G04 #@! TF.GenerationSoftware,KiCad,Pcbnew,6.0.10-86aedd382b~118~ubuntu20.04.1*
G04 #@! TF.CreationDate,2023-01-07T15:43:11+01:00*
G04 #@! TF.ProjectId,IOB_V3,494f425f-5633-42e6-9b69-6361645f7063,rev?*
G04 #@! TF.SameCoordinates,Original*
G04 #@! TF.FileFunction,Soldermask,Top*
G04 #@! TF.FilePolarity,Negative*
%FSLAX46Y46*%
G04 Gerber Fmt 4.6, Leading zero omitted, Abs format (unit mm)*
G04 Created by KiCad (PCBNEW 6.0.10-86aedd382b~118~ubuntu20.04.1) date 2023-01-07 15:43:11*
%MOMM*%
%LPD*%
G01*
G04 APERTURE LIST*
G04 Aperture macros list*
%AMRoundRect*
0 Rectangle with rounded corners*
0 $1 Rounding radius*
0 $2 $3 $4 $5 $6 $7 $8 $9 X,Y pos of 4 corners*
0 Add a 4 corners polygon primitive as box body*
4,1,4,$2,$3,$4,$5,$6,$7,$8,$9,$2,$3,0*
0 Add four circle primitives for the rounded corners*
1,1,$1+$1,$2,$3*
1,1,$1+$1,$4,$5*
1,1,$1+$1,$6,$7*
1,1,$1+$1,$8,$9*
0 Add four rect primitives between the rounded corners*
20,1,$1+$1,$2,$3,$4,$5,0*
20,1,$1+$1,$4,$5,$6,$7,0*
20,1,$1+$1,$6,$7,$8,$9,0*
20,1,$1+$1,$8,$9,$2,$3,0*%
%AMFreePoly0*
4,1,6,1.000000,0.000000,0.500000,-0.750000,-0.500000,-0.750000,-0.500000,0.750000,0.500000,0.750000,1.000000,0.000000,1.000000,0.000000,$1*%
%AMFreePoly1*
4,1,6,0.500000,-0.750000,-0.650000,-0.750000,-0.150000,0.000000,-0.650000,0.750000,0.500000,0.750000,0.500000,-0.750000,0.500000,-0.750000,$1*%
G04 Aperture macros list end*
%ADD10RoundRect,0.062500X0.062500X-0.675000X0.062500X0.675000X-0.062500X0.675000X-0.062500X-0.675000X0*%
%ADD11RoundRect,0.062500X0.675000X-0.062500X0.675000X0.062500X-0.675000X0.062500X-0.675000X-0.062500X0*%
%ADD12R,1.200000X0.450000*%
%ADD13RoundRect,0.062500X0.325000X0.062500X-0.325000X0.062500X-0.325000X-0.062500X0.325000X-0.062500X0*%
%ADD14RoundRect,0.062500X0.062500X0.325000X-0.062500X0.325000X-0.062500X-0.325000X0.062500X-0.325000X0*%
%ADD15R,1.750000X1.750000*%
%ADD16RoundRect,0.140000X-0.140000X-0.170000X0.140000X-0.170000X0.140000X0.170000X-0.140000X0.170000X0*%
%ADD17RoundRect,0.200000X0.200000X0.275000X-0.200000X0.275000X-0.200000X-0.275000X0.200000X-0.275000X0*%
%ADD18RoundRect,0.200000X-0.200000X-0.275000X0.200000X-0.275000X0.200000X0.275000X-0.200000X0.275000X0*%
%ADD19R,0.740000X2.400000*%
%ADD20RoundRect,0.218750X0.218750X0.256250X-0.218750X0.256250X-0.218750X-0.256250X0.218750X-0.256250X0*%
%ADD21RoundRect,0.140000X0.170000X-0.140000X0.170000X0.140000X-0.170000X0.140000X-0.170000X-0.140000X0*%
%ADD22R,1.000000X0.340000*%
%ADD23R,0.500000X1.640000*%
%ADD24R,1.710000X2.290000*%
%ADD25FreePoly0,180.000000*%
%ADD26FreePoly1,180.000000*%
%ADD27R,1.500000X1.000000*%
%ADD28FreePoly0,0.000000*%
%ADD29FreePoly1,0.000000*%
%ADD30FreePoly0,90.000000*%
%ADD31FreePoly1,90.000000*%
%ADD32R,1.000000X0.500000*%
%ADD33R,3.500000X4.500000*%
%ADD34FreePoly0,270.000000*%
%ADD35FreePoly1,270.000000*%
%ADD36R,1.100000X1.100000*%
%ADD37RoundRect,0.150000X0.587500X0.150000X-0.587500X0.150000X-0.587500X-0.150000X0.587500X-0.150000X0*%
%ADD38C,1.000000*%
%ADD39RoundRect,0.150000X0.150000X-0.587500X0.150000X0.587500X-0.150000X0.587500X-0.150000X-0.587500X0*%
%ADD40R,2.000000X4.200000*%
%ADD41RoundRect,0.250000X0.550000X-1.500000X0.550000X1.500000X-0.550000X1.500000X-0.550000X-1.500000X0*%
%ADD42RoundRect,0.225000X0.250000X-0.225000X0.250000X0.225000X-0.250000X0.225000X-0.250000X-0.225000X0*%
%ADD43RoundRect,0.225000X0.225000X0.250000X-0.225000X0.250000X-0.225000X-0.250000X0.225000X-0.250000X0*%
%ADD44RoundRect,0.200000X0.275000X-0.200000X0.275000X0.200000X-0.275000X0.200000X-0.275000X-0.200000X0*%
%ADD45R,0.760000X1.270000*%
%ADD46RoundRect,0.150000X-0.587500X-0.150000X0.587500X-0.150000X0.587500X0.150000X-0.587500X0.150000X0*%
%ADD47RoundRect,0.250000X0.475000X-0.250000X0.475000X0.250000X-0.475000X0.250000X-0.475000X-0.250000X0*%
%ADD48RoundRect,0.250000X0.600000X0.600000X-0.600000X0.600000X-0.600000X-0.600000X0.600000X-0.600000X0*%
%ADD49C,1.700000*%
%ADD50RoundRect,0.150000X-0.150000X0.875000X-0.150000X-0.875000X0.150000X-0.875000X0.150000X0.875000X0*%
%ADD51R,2.540000X1.270000*%
%ADD52R,1.650000X3.430000*%
%ADD53RoundRect,0.140000X0.140000X0.170000X-0.140000X0.170000X-0.140000X-0.170000X0.140000X-0.170000X0*%
%ADD54R,4.200000X1.400000*%
%ADD55RoundRect,0.250000X-0.620000X-0.620000X0.620000X-0.620000X0.620000X0.620000X-0.620000X0.620000X0*%
%ADD56C,1.740000*%
%ADD57R,1.700000X1.700000*%
%ADD58O,1.700000X1.700000*%
%ADD59R,0.650000X0.350000*%
%ADD60R,1.550000X2.400000*%
%ADD61R,1.500000X1.500000*%
%ADD62RoundRect,0.140000X-0.170000X0.140000X-0.170000X-0.140000X0.170000X-0.140000X0.170000X0.140000X0*%
%ADD63R,1.400000X1.200000*%
%ADD64RoundRect,0.225000X-0.250000X0.225000X-0.250000X-0.225000X0.250000X-0.225000X0.250000X0.225000X0*%
%ADD65R,1.000000X1.500000*%
%ADD66C,2.500000*%
G04 APERTURE END LIST*
D10*
X105250000Y-106687500D03*
X105750000Y-106687500D03*
X106250000Y-106687500D03*
X106750000Y-106687500D03*
X107250000Y-106687500D03*
X107750000Y-106687500D03*
X108250000Y-106687500D03*
X108750000Y-106687500D03*
X109250000Y-106687500D03*
X109750000Y-106687500D03*
X110250000Y-106687500D03*
X110750000Y-106687500D03*
X111250000Y-106687500D03*
X111750000Y-106687500D03*
X112250000Y-106687500D03*
X112750000Y-106687500D03*
X113250000Y-106687500D03*
X113750000Y-106687500D03*
X114250000Y-106687500D03*
X114750000Y-106687500D03*
D11*
X116687500Y-104750000D03*
X116687500Y-104250000D03*
X116687500Y-103750000D03*
X116687500Y-103250000D03*
X116687500Y-102750000D03*
X116687500Y-102250000D03*
X116687500Y-101750000D03*
X116687500Y-101250000D03*
X116687500Y-100750000D03*
X116687500Y-100250000D03*
X116687500Y-99750000D03*
X116687500Y-99250000D03*
X116687500Y-98750000D03*
X116687500Y-98250000D03*
X116687500Y-97750000D03*
X116687500Y-97250000D03*
X116687500Y-96750000D03*
X116687500Y-96250000D03*
X116687500Y-95750000D03*
X116687500Y-95250000D03*
D10*
X114750000Y-93312500D03*
X114250000Y-93312500D03*
X113750000Y-93312500D03*
X113250000Y-93312500D03*
X112750000Y-93312500D03*
X112250000Y-93312500D03*
X111750000Y-93312500D03*
X111250000Y-93312500D03*
X110750000Y-93312500D03*
X110250000Y-93312500D03*
X109750000Y-93312500D03*
X109250000Y-93312500D03*
X108750000Y-93312500D03*
X108250000Y-93312500D03*
X107750000Y-93312500D03*
X107250000Y-93312500D03*
X106750000Y-93312500D03*
X106250000Y-93312500D03*
X105750000Y-93312500D03*
X105250000Y-93312500D03*
D11*
X103312500Y-95250000D03*
X103312500Y-95750000D03*
X103312500Y-96250000D03*
X103312500Y-96750000D03*
X103312500Y-97250000D03*
X103312500Y-97750000D03*
X103312500Y-98250000D03*
X103312500Y-98750000D03*
X103312500Y-99250000D03*
X103312500Y-99750000D03*
X103312500Y-100250000D03*
X103312500Y-100750000D03*
X103312500Y-101250000D03*
X103312500Y-101750000D03*
X103312500Y-102250000D03*
X103312500Y-102750000D03*
X103312500Y-103250000D03*
X103312500Y-103750000D03*
X103312500Y-104250000D03*
X103312500Y-104750000D03*
D12*
X144460000Y-153765000D03*
X144460000Y-154415000D03*
X144460000Y-155065000D03*
X144460000Y-155715000D03*
X146960000Y-155715000D03*
X146960000Y-155065000D03*
X146960000Y-154415000D03*
X146960000Y-153765000D03*
X114420000Y-153745000D03*
X114420000Y-154395000D03*
X114420000Y-155045000D03*
X114420000Y-155695000D03*
X116920000Y-155695000D03*
X116920000Y-155045000D03*
X116920000Y-154395000D03*
X116920000Y-153745000D03*
X84430000Y-153795000D03*
X84430000Y-154445000D03*
X84430000Y-155095000D03*
X84430000Y-155745000D03*
X86930000Y-155745000D03*
X86930000Y-155095000D03*
X86930000Y-154445000D03*
X86930000Y-153795000D03*
X144410000Y-113695000D03*
X144410000Y-114345000D03*
X144410000Y-114995000D03*
X144410000Y-115645000D03*
X146910000Y-115645000D03*
X146910000Y-114995000D03*
X146910000Y-114345000D03*
X146910000Y-113695000D03*
X114240000Y-113645000D03*
X114240000Y-114295000D03*
X114240000Y-114945000D03*
X114240000Y-115595000D03*
X116740000Y-115595000D03*
X116740000Y-114945000D03*
X116740000Y-114295000D03*
X116740000Y-113645000D03*
X84450000Y-113775000D03*
X84450000Y-114425000D03*
X84450000Y-115075000D03*
X84450000Y-115725000D03*
X86950000Y-115725000D03*
X86950000Y-115075000D03*
X86950000Y-114425000D03*
X86950000Y-113775000D03*
X144440000Y-73775000D03*
X144440000Y-74425000D03*
X144440000Y-75075000D03*
X144440000Y-75725000D03*
X146940000Y-75725000D03*
X146940000Y-75075000D03*
X146940000Y-74425000D03*
X146940000Y-73775000D03*
X114470000Y-73735000D03*
X114470000Y-74385000D03*
X114470000Y-75035000D03*
X114470000Y-75685000D03*
X116970000Y-75685000D03*
X116970000Y-75035000D03*
X116970000Y-74385000D03*
X116970000Y-73735000D03*
X84440000Y-73735000D03*
X84440000Y-74385000D03*
X84440000Y-75035000D03*
X84440000Y-75685000D03*
X86940000Y-75685000D03*
X86940000Y-75035000D03*
X86940000Y-74385000D03*
X86940000Y-73735000D03*
X144410000Y-33705000D03*
X144410000Y-34355000D03*
X144410000Y-35005000D03*
X144410000Y-35655000D03*
X146910000Y-35655000D03*
X146910000Y-35005000D03*
X146910000Y-34355000D03*
X146910000Y-33705000D03*
X114420000Y-33695000D03*
X114420000Y-34345000D03*
X114420000Y-34995000D03*
X114420000Y-35645000D03*
X116920000Y-35645000D03*
X116920000Y-34995000D03*
X116920000Y-34345000D03*
X116920000Y-33695000D03*
X84450000Y-33725000D03*
X84450000Y-34375000D03*
X84450000Y-35025000D03*
X84450000Y-35675000D03*
X86950000Y-35675000D03*
X86950000Y-35025000D03*
X86950000Y-34375000D03*
X86950000Y-33725000D03*
D13*
X129737500Y-139350000D03*
X129737500Y-138850000D03*
X129737500Y-138350000D03*
X129737500Y-137850000D03*
D14*
X129025000Y-137137500D03*
X128525000Y-137137500D03*
X128025000Y-137137500D03*
X127525000Y-137137500D03*
D13*
X126812500Y-137850000D03*
X126812500Y-138350000D03*
X126812500Y-138850000D03*
X126812500Y-139350000D03*
D14*
X127525000Y-140062500D03*
X128025000Y-140062500D03*
X128525000Y-140062500D03*
X129025000Y-140062500D03*
D15*
X128275000Y-138600000D03*
D16*
X101520000Y-112250000D03*
X102480000Y-112250000D03*
D17*
X85850000Y-164250000D03*
X84200000Y-164250000D03*
D18*
X144175000Y-161250000D03*
X145825000Y-161250000D03*
X134125000Y-119850000D03*
X135775000Y-119850000D03*
D19*
X131670000Y-57750000D03*
X131670000Y-53850000D03*
X132940000Y-57750000D03*
X132940000Y-53850000D03*
X134210000Y-57750000D03*
X134210000Y-53850000D03*
X135480000Y-57750000D03*
X135480000Y-53850000D03*
D20*
X124237500Y-54800000D03*
X122662500Y-54800000D03*
D21*
X101500000Y-105380000D03*
X101500000Y-104420000D03*
D17*
X127525000Y-135650000D03*
X125875000Y-135650000D03*
X145825000Y-124175000D03*
X144175000Y-124175000D03*
X145775000Y-44250000D03*
X144125000Y-44250000D03*
D18*
X84175000Y-122750000D03*
X85825000Y-122750000D03*
X134125000Y-118350000D03*
X135775000Y-118350000D03*
X144175000Y-162750000D03*
X145825000Y-162750000D03*
D22*
X77290000Y-124675000D03*
X77290000Y-124025000D03*
X77290000Y-125325000D03*
D23*
X77540000Y-124675000D03*
D22*
X77290000Y-125975000D03*
X80190000Y-124025000D03*
X80190000Y-125325000D03*
X80190000Y-125975000D03*
D24*
X79035000Y-125000000D03*
D22*
X80190000Y-124675000D03*
D25*
X145750000Y-37700000D03*
D26*
X144300000Y-37700000D03*
D20*
X124237500Y-51550000D03*
X122662500Y-51550000D03*
D27*
X107450000Y-33475000D03*
X107450000Y-35675000D03*
D17*
X75775000Y-41450000D03*
X74125000Y-41450000D03*
D28*
X74125000Y-116450000D03*
D29*
X75575000Y-116450000D03*
D30*
X82250000Y-165875000D03*
D31*
X82250000Y-164425000D03*
D18*
X144125000Y-42700000D03*
X145775000Y-42700000D03*
D27*
X107625000Y-113550000D03*
X107625000Y-115750000D03*
D32*
X130100000Y-117015000D03*
X130100000Y-115745000D03*
X130100000Y-114475000D03*
X130100000Y-113205000D03*
X122100000Y-113205000D03*
X122100000Y-114475000D03*
X122100000Y-115745000D03*
X122100000Y-117015000D03*
D33*
X126100000Y-115110000D03*
D18*
X114175000Y-42700000D03*
X115825000Y-42700000D03*
D17*
X135725000Y-41450000D03*
X134075000Y-41450000D03*
D34*
X141860000Y-153525000D03*
D35*
X141860000Y-154975000D03*
D18*
X104125000Y-78400000D03*
X105775000Y-78400000D03*
X144125000Y-39700000D03*
X145775000Y-39700000D03*
D25*
X145800000Y-77725000D03*
D26*
X144350000Y-77725000D03*
D25*
X145825000Y-117675000D03*
D26*
X144375000Y-117675000D03*
D17*
X105750000Y-161400000D03*
X104100000Y-161400000D03*
D28*
X74150000Y-153950000D03*
D29*
X75600000Y-153950000D03*
D36*
X134325000Y-126125000D03*
X134325000Y-123325000D03*
D25*
X85825000Y-157750000D03*
D26*
X84375000Y-157750000D03*
D28*
X104150000Y-113900000D03*
D29*
X105600000Y-113900000D03*
D18*
X134175000Y-158450000D03*
X135825000Y-158450000D03*
D27*
X107475000Y-153525000D03*
X107475000Y-155725000D03*
D30*
X112250000Y-125850000D03*
D31*
X112250000Y-124400000D03*
D30*
X142250000Y-165875000D03*
D31*
X142250000Y-164425000D03*
D34*
X111830000Y-73765000D03*
D35*
X111830000Y-75215000D03*
D37*
X124262500Y-105775000D03*
X124262500Y-103875000D03*
X122387500Y-104825000D03*
D34*
X111800000Y-33615000D03*
D35*
X111800000Y-35065000D03*
D38*
X99725000Y-108550000D03*
D23*
X77540000Y-44650000D03*
D22*
X77290000Y-45300000D03*
X77290000Y-44000000D03*
X77290000Y-44650000D03*
X77290000Y-45950000D03*
D24*
X79035000Y-44975000D03*
D22*
X80190000Y-45950000D03*
X80190000Y-44650000D03*
X80190000Y-44000000D03*
X80190000Y-45300000D03*
D18*
X114175000Y-82725000D03*
X115825000Y-82725000D03*
D28*
X104125000Y-76400000D03*
D29*
X105575000Y-76400000D03*
D17*
X105800000Y-121475000D03*
X104150000Y-121475000D03*
D36*
X134400000Y-166200000D03*
X134400000Y-163400000D03*
D21*
X121275000Y-143955000D03*
X121275000Y-142995000D03*
D27*
X77500000Y-33525000D03*
X77500000Y-35725000D03*
D28*
X74100000Y-73900000D03*
D29*
X75550000Y-73900000D03*
D18*
X104075000Y-39875000D03*
X105725000Y-39875000D03*
D39*
X92325000Y-46162500D03*
X94225000Y-46162500D03*
X93275000Y-44287500D03*
D18*
X84175000Y-81225000D03*
X85825000Y-81225000D03*
X114175000Y-121225000D03*
X115825000Y-121225000D03*
X134125000Y-78400000D03*
X135775000Y-78400000D03*
D27*
X79525000Y-153575000D03*
X79525000Y-155775000D03*
D17*
X105700000Y-41425000D03*
X104050000Y-41425000D03*
D18*
X104100000Y-158400000D03*
X105750000Y-158400000D03*
D17*
X100225000Y-104750000D03*
X98575000Y-104750000D03*
D34*
X111860000Y-113410000D03*
D35*
X111860000Y-114860000D03*
D27*
X109575000Y-113550000D03*
X109575000Y-115750000D03*
D18*
X144175000Y-119700000D03*
X145825000Y-119700000D03*
D38*
X98200000Y-86700000D03*
D25*
X145825000Y-157750000D03*
D26*
X144375000Y-157750000D03*
D16*
X109610000Y-90600000D03*
X110570000Y-90600000D03*
D28*
X74100000Y-36400000D03*
D29*
X75550000Y-36400000D03*
D21*
X81412500Y-131205000D03*
X81412500Y-130245000D03*
D17*
X75775000Y-81475000D03*
X74125000Y-81475000D03*
D25*
X85775000Y-37725000D03*
D26*
X84325000Y-37725000D03*
D40*
X91250000Y-38000000D03*
X99250000Y-38000000D03*
D18*
X144175000Y-159750000D03*
X145825000Y-159750000D03*
D28*
X104075000Y-36350000D03*
D29*
X105525000Y-36350000D03*
D34*
X81850000Y-153580000D03*
D35*
X81850000Y-155030000D03*
D22*
X137315000Y-125275000D03*
X137315000Y-124625000D03*
D23*
X137565000Y-124625000D03*
D22*
X137315000Y-123975000D03*
X137315000Y-125925000D03*
X140215000Y-124625000D03*
X140215000Y-125925000D03*
X140215000Y-123975000D03*
X140215000Y-125275000D03*
D24*
X139060000Y-124950000D03*
D27*
X109500000Y-153525000D03*
X109500000Y-155725000D03*
D17*
X75825000Y-161475000D03*
X74175000Y-161475000D03*
D18*
X119575000Y-53175000D03*
X121225000Y-53175000D03*
D41*
X118500000Y-141250000D03*
X118500000Y-135650000D03*
D18*
X114125000Y-159700000D03*
X115775000Y-159700000D03*
D30*
X82250000Y-125875000D03*
D31*
X82250000Y-124425000D03*
D42*
X132350000Y-139875000D03*
X132350000Y-138325000D03*
D36*
X134450000Y-46125000D03*
X134450000Y-43325000D03*
D28*
X104075000Y-153850000D03*
D29*
X105525000Y-153850000D03*
D22*
X77340000Y-164050000D03*
D23*
X77590000Y-164700000D03*
D22*
X77340000Y-164700000D03*
X77340000Y-165350000D03*
X77340000Y-166000000D03*
X80240000Y-164700000D03*
D24*
X79085000Y-165025000D03*
D22*
X80240000Y-165350000D03*
X80240000Y-164050000D03*
X80240000Y-166000000D03*
D18*
X114175000Y-39700000D03*
X115825000Y-39700000D03*
D43*
X124575000Y-141400000D03*
X123025000Y-141400000D03*
D18*
X104125000Y-79925000D03*
X105775000Y-79925000D03*
D28*
X74125000Y-76400000D03*
D29*
X75575000Y-76400000D03*
D44*
X75737500Y-131500000D03*
X75737500Y-129850000D03*
D17*
X85825000Y-124250000D03*
X84175000Y-124250000D03*
D28*
X134175000Y-153900000D03*
D29*
X135625000Y-153900000D03*
D27*
X139500000Y-113500000D03*
X139500000Y-115700000D03*
X77500000Y-73550000D03*
X77500000Y-75750000D03*
D18*
X144175000Y-122650000D03*
X145825000Y-122650000D03*
X114125000Y-162675000D03*
X115775000Y-162675000D03*
D22*
X107290000Y-43950000D03*
D23*
X107540000Y-44600000D03*
D22*
X107290000Y-44600000D03*
X107290000Y-45250000D03*
X107290000Y-45900000D03*
D24*
X109035000Y-44925000D03*
D22*
X110190000Y-45250000D03*
X110190000Y-44600000D03*
X110190000Y-45900000D03*
X110190000Y-43950000D03*
D18*
X144175000Y-121175000D03*
X145825000Y-121175000D03*
D17*
X145825000Y-84200000D03*
X144175000Y-84200000D03*
D34*
X81840000Y-73755000D03*
D35*
X81840000Y-75205000D03*
D25*
X115750000Y-157700000D03*
D26*
X114300000Y-157700000D03*
D18*
X84175000Y-39750000D03*
X85825000Y-39750000D03*
D45*
X127605000Y-108100000D03*
X128875000Y-108100000D03*
X130145000Y-108100000D03*
X131415000Y-108100000D03*
X132685000Y-108100000D03*
X133955000Y-108100000D03*
X135225000Y-108100000D03*
X136495000Y-108100000D03*
X136495000Y-104000000D03*
X135225000Y-104000000D03*
X133955000Y-104000000D03*
X132685000Y-104000000D03*
X131415000Y-104000000D03*
X130145000Y-104000000D03*
X128875000Y-104000000D03*
X127605000Y-104000000D03*
D17*
X135775000Y-81450000D03*
X134125000Y-81450000D03*
D22*
X77340000Y-84700000D03*
X77340000Y-84050000D03*
X77340000Y-85350000D03*
D23*
X77590000Y-84700000D03*
D22*
X77340000Y-86000000D03*
X80240000Y-84050000D03*
X80240000Y-84700000D03*
X80240000Y-86000000D03*
D24*
X79085000Y-85025000D03*
D22*
X80240000Y-85350000D03*
D18*
X84200000Y-162750000D03*
X85850000Y-162750000D03*
D38*
X99075000Y-106550000D03*
D18*
X74150000Y-159950000D03*
X75800000Y-159950000D03*
X119575000Y-51550000D03*
X121225000Y-51550000D03*
D17*
X115775000Y-164225000D03*
X114125000Y-164225000D03*
D28*
X134125000Y-116350000D03*
D29*
X135575000Y-116350000D03*
D30*
X142200000Y-45825000D03*
D31*
X142200000Y-44375000D03*
D17*
X145825000Y-164300000D03*
X144175000Y-164300000D03*
D27*
X139475000Y-33525000D03*
X139475000Y-35725000D03*
D30*
X142200000Y-85825000D03*
D31*
X142200000Y-84375000D03*
D18*
X74125000Y-39900000D03*
X75775000Y-39900000D03*
D46*
X122812500Y-142975000D03*
X122812500Y-144875000D03*
X124687500Y-143925000D03*
D18*
X119580000Y-49915000D03*
X121230000Y-49915000D03*
X144175000Y-82725000D03*
X145825000Y-82725000D03*
D17*
X115825000Y-44200000D03*
X114175000Y-44200000D03*
D27*
X79475000Y-73550000D03*
X79475000Y-75750000D03*
D34*
X141780000Y-33700000D03*
D35*
X141780000Y-35150000D03*
D27*
X139500000Y-73550000D03*
X139500000Y-75750000D03*
D25*
X115800000Y-117725000D03*
D26*
X114350000Y-117725000D03*
D47*
X138100000Y-138125000D03*
X138100000Y-136225000D03*
D34*
X81800000Y-33575000D03*
D35*
X81800000Y-35025000D03*
D30*
X82225000Y-45850000D03*
D31*
X82225000Y-44400000D03*
D18*
X134075000Y-39850000D03*
X135725000Y-39850000D03*
D28*
X74125000Y-113900000D03*
D29*
X75575000Y-113900000D03*
D48*
X145112500Y-64460000D03*
D49*
X142572500Y-64460000D03*
X145112500Y-61920000D03*
X142572500Y-61920000D03*
X145112500Y-59380000D03*
X142572500Y-59380000D03*
X145112500Y-56840000D03*
X142572500Y-56840000D03*
X145112500Y-54300000D03*
X142572500Y-54300000D03*
D34*
X141840000Y-73705000D03*
D35*
X141840000Y-75155000D03*
D18*
X144175000Y-79725000D03*
X145825000Y-79725000D03*
X74125000Y-78400000D03*
X75775000Y-78400000D03*
D36*
X134350000Y-86100000D03*
X134350000Y-83300000D03*
D18*
X74125000Y-38400000D03*
X75775000Y-38400000D03*
D36*
X74450000Y-166150000D03*
X74450000Y-163350000D03*
X74300000Y-126100000D03*
X74300000Y-123300000D03*
D27*
X137500000Y-113500000D03*
X137500000Y-115700000D03*
D20*
X124237500Y-53175000D03*
X122662500Y-53175000D03*
D50*
X137735000Y-92100000D03*
X136465000Y-92100000D03*
X135195000Y-92100000D03*
X133925000Y-92100000D03*
X132655000Y-92100000D03*
X131385000Y-92100000D03*
X130115000Y-92100000D03*
X128845000Y-92100000D03*
X127575000Y-92100000D03*
X126305000Y-92100000D03*
X125035000Y-92100000D03*
X123765000Y-92100000D03*
X123765000Y-101400000D03*
X125035000Y-101400000D03*
X126305000Y-101400000D03*
X127575000Y-101400000D03*
X128845000Y-101400000D03*
X130115000Y-101400000D03*
X131385000Y-101400000D03*
X132655000Y-101400000D03*
X133925000Y-101400000D03*
X135195000Y-101400000D03*
X136465000Y-101400000D03*
X137735000Y-101400000D03*
D18*
X74150000Y-158450000D03*
X75800000Y-158450000D03*
X84225000Y-159750000D03*
X85875000Y-159750000D03*
D34*
X141810000Y-113505000D03*
D35*
X141810000Y-114955000D03*
D38*
X126700000Y-162950000D03*
D18*
X104150000Y-118400000D03*
X105800000Y-118400000D03*
D30*
X112200000Y-165825000D03*
D31*
X112200000Y-164375000D03*
D17*
X115825000Y-84250000D03*
X114175000Y-84250000D03*
D18*
X84175000Y-121250000D03*
X85825000Y-121250000D03*
D17*
X75775000Y-121500000D03*
X74125000Y-121500000D03*
D51*
X140980000Y-138500000D03*
X140980000Y-141500000D03*
D52*
X144400000Y-134615000D03*
X144400000Y-145385000D03*
D25*
X115825000Y-77725000D03*
D26*
X114375000Y-77725000D03*
D22*
X107315000Y-83975000D03*
X107315000Y-84625000D03*
D23*
X107565000Y-84625000D03*
D22*
X107315000Y-85275000D03*
X107315000Y-85925000D03*
X110215000Y-83975000D03*
X110215000Y-85275000D03*
X110215000Y-85925000D03*
X110215000Y-84625000D03*
D24*
X109060000Y-84950000D03*
D27*
X79500000Y-113600000D03*
X79500000Y-115800000D03*
D18*
X114175000Y-41225000D03*
X115825000Y-41225000D03*
D53*
X76417500Y-128000000D03*
X75457500Y-128000000D03*
D54*
X128275000Y-141650000D03*
X128275000Y-144450000D03*
D17*
X85825000Y-84250000D03*
X84175000Y-84250000D03*
D27*
X137500000Y-153600000D03*
X137500000Y-155800000D03*
D42*
X124725000Y-138975000D03*
X124725000Y-137425000D03*
D25*
X85800000Y-77725000D03*
D26*
X84350000Y-77725000D03*
D28*
X74100000Y-33900000D03*
D29*
X75550000Y-33900000D03*
D18*
X74150000Y-79900000D03*
X75800000Y-79900000D03*
D28*
X134125000Y-113850000D03*
D29*
X135575000Y-113850000D03*
D17*
X115825000Y-124250000D03*
X114175000Y-124250000D03*
X85825000Y-44225000D03*
X84175000Y-44225000D03*
D25*
X85775000Y-117750000D03*
D26*
X84325000Y-117750000D03*
D55*
X77590000Y-136450000D03*
D56*
X80130000Y-136450000D03*
X82670000Y-136450000D03*
X85210000Y-136450000D03*
D57*
X136725000Y-62450000D03*
D58*
X134185000Y-62450000D03*
X131645000Y-62450000D03*
X129105000Y-62450000D03*
X126565000Y-62450000D03*
X124025000Y-62450000D03*
X121485000Y-62450000D03*
X118945000Y-62450000D03*
D59*
X80237500Y-131575000D03*
X80237500Y-130925000D03*
X80237500Y-130275000D03*
X80237500Y-129625000D03*
X77137500Y-129625000D03*
X77137500Y-130275000D03*
X77137500Y-130925000D03*
X77137500Y-131575000D03*
D60*
X78687500Y-130600000D03*
D36*
X104350000Y-166125000D03*
X104350000Y-163325000D03*
D18*
X144125000Y-41200000D03*
X145775000Y-41200000D03*
X134125000Y-79900000D03*
X135775000Y-79900000D03*
D17*
X105775000Y-81475000D03*
X104125000Y-81475000D03*
D16*
X116620000Y-92100000D03*
X117580000Y-92100000D03*
D27*
X79475000Y-33550000D03*
X79475000Y-35750000D03*
X107475000Y-73550000D03*
X107475000Y-75750000D03*
D34*
X81830000Y-113765000D03*
D35*
X81830000Y-115215000D03*
D18*
X128925000Y-135650000D03*
X130575000Y-135650000D03*
D28*
X134175000Y-156450000D03*
D29*
X135625000Y-156450000D03*
D18*
X74125000Y-119950000D03*
X75775000Y-119950000D03*
D55*
X77590000Y-144550000D03*
D56*
X80130000Y-144550000D03*
X82670000Y-144550000D03*
X85210000Y-144550000D03*
D57*
X75525000Y-59925000D03*
D58*
X75525000Y-62465000D03*
X75525000Y-65005000D03*
D28*
X74150000Y-156450000D03*
D29*
X75600000Y-156450000D03*
D18*
X84175000Y-79725000D03*
X85825000Y-79725000D03*
D27*
X137475000Y-73550000D03*
X137475000Y-75750000D03*
D21*
X101500000Y-96480000D03*
X101500000Y-95520000D03*
D38*
X122675000Y-162900000D03*
D18*
X134075000Y-38350000D03*
X135725000Y-38350000D03*
D36*
X104375000Y-126125000D03*
X104375000Y-123325000D03*
D30*
X112225000Y-45800000D03*
D31*
X112225000Y-44350000D03*
D21*
X130975000Y-139580000D03*
X130975000Y-138620000D03*
D27*
X109450000Y-33475000D03*
X109450000Y-35675000D03*
X139500000Y-153600000D03*
X139500000Y-155800000D03*
D18*
X114125000Y-161200000D03*
X115775000Y-161200000D03*
D38*
X115000000Y-69250000D03*
D18*
X84175000Y-82700000D03*
X85825000Y-82700000D03*
D30*
X142250000Y-125800000D03*
D31*
X142250000Y-124350000D03*
D49*
X100295000Y-69300000D03*
D61*
X102925000Y-69300000D03*
D49*
X97755000Y-69300000D03*
D61*
X95125000Y-69300000D03*
D27*
X137500000Y-33525000D03*
X137500000Y-35725000D03*
D36*
X104300000Y-46150000D03*
X104300000Y-43350000D03*
D22*
X137315000Y-45325000D03*
D23*
X137565000Y-44675000D03*
D22*
X137315000Y-44025000D03*
X137315000Y-44675000D03*
X137315000Y-45975000D03*
D24*
X139060000Y-45000000D03*
D22*
X140215000Y-44675000D03*
X140215000Y-44025000D03*
X140215000Y-45975000D03*
X140215000Y-45325000D03*
D36*
X74325000Y-86150000D03*
X74325000Y-83350000D03*
D28*
X104125000Y-73900000D03*
D29*
X105575000Y-73900000D03*
D18*
X104100000Y-159900000D03*
X105750000Y-159900000D03*
D27*
X77500000Y-113600000D03*
X77500000Y-115800000D03*
D62*
X136150000Y-139570000D03*
X136150000Y-140530000D03*
D18*
X84175000Y-119750000D03*
X85825000Y-119750000D03*
D23*
X137590000Y-164675000D03*
D22*
X137340000Y-164025000D03*
X137340000Y-165325000D03*
X137340000Y-164675000D03*
X137340000Y-165975000D03*
X140240000Y-165325000D03*
X140240000Y-164675000D03*
X140240000Y-164025000D03*
X140240000Y-165975000D03*
D24*
X139085000Y-165000000D03*
D28*
X134075000Y-36350000D03*
D29*
X135525000Y-36350000D03*
D63*
X102380000Y-110850000D03*
X104920000Y-110850000D03*
X104920000Y-108650000D03*
X102380000Y-108650000D03*
D64*
X131325000Y-141825000D03*
X131325000Y-143375000D03*
D65*
X136125000Y-138025000D03*
X133925000Y-138025000D03*
D22*
X137305000Y-84025000D03*
X137305000Y-84675000D03*
D23*
X137555000Y-84675000D03*
D22*
X137305000Y-85325000D03*
X137305000Y-85975000D03*
X140205000Y-84025000D03*
X140205000Y-85975000D03*
X140205000Y-85325000D03*
X140205000Y-84675000D03*
D24*
X139050000Y-85000000D03*
D18*
X144175000Y-81225000D03*
X145825000Y-81225000D03*
X104150000Y-119875000D03*
X105800000Y-119875000D03*
D20*
X124237500Y-49925000D03*
X122662500Y-49925000D03*
D18*
X114175000Y-81225000D03*
X115825000Y-81225000D03*
D27*
X77500000Y-153575000D03*
X77500000Y-155775000D03*
D36*
X137900000Y-139875000D03*
X137900000Y-142675000D03*
D18*
X114175000Y-119725000D03*
X115825000Y-119725000D03*
D36*
X74325000Y-46125000D03*
X74325000Y-43325000D03*
D18*
X84175000Y-41250000D03*
X85825000Y-41250000D03*
D28*
X104150000Y-116400000D03*
D29*
X105600000Y-116400000D03*
D17*
X135825000Y-161500000D03*
X134175000Y-161500000D03*
D64*
X132875000Y-141825000D03*
X132875000Y-143375000D03*
D53*
X103980000Y-107100000D03*
X103020000Y-107100000D03*
D30*
X112250000Y-85850000D03*
D31*
X112250000Y-84400000D03*
D28*
X134100000Y-73900000D03*
D29*
X135550000Y-73900000D03*
D18*
X104075000Y-38350000D03*
X105725000Y-38350000D03*
X119575000Y-54800000D03*
X121225000Y-54800000D03*
D27*
X109500000Y-73550000D03*
X109500000Y-75750000D03*
D30*
X82250000Y-85850000D03*
D31*
X82250000Y-84400000D03*
D22*
X107290000Y-165325000D03*
D23*
X107540000Y-164675000D03*
D22*
X107290000Y-164675000D03*
X107290000Y-164025000D03*
X107290000Y-165975000D03*
X110190000Y-164025000D03*
X110190000Y-165325000D03*
X110190000Y-164675000D03*
D24*
X109035000Y-165000000D03*
D22*
X110190000Y-165975000D03*
D18*
X134175000Y-159950000D03*
X135825000Y-159950000D03*
D22*
X107315000Y-124000000D03*
X107315000Y-125300000D03*
D23*
X107565000Y-124650000D03*
D22*
X107315000Y-124650000D03*
X107315000Y-125950000D03*
X110215000Y-124650000D03*
D24*
X109060000Y-124975000D03*
D22*
X110215000Y-124000000D03*
X110215000Y-125300000D03*
X110215000Y-125950000D03*
D18*
X84175000Y-42750000D03*
X85825000Y-42750000D03*
D25*
X115775000Y-37675000D03*
D26*
X114325000Y-37675000D03*
D18*
X114175000Y-122725000D03*
X115825000Y-122725000D03*
D28*
X104075000Y-156400000D03*
D29*
X105525000Y-156400000D03*
D28*
X134075000Y-33850000D03*
D29*
X135525000Y-33850000D03*
D18*
X84225000Y-161250000D03*
X85875000Y-161250000D03*
D28*
X104075000Y-33850000D03*
D29*
X105525000Y-33850000D03*
D36*
X104325000Y-86150000D03*
X104325000Y-83350000D03*
D44*
X107790000Y-110685000D03*
X107790000Y-109035000D03*
D34*
X111820000Y-153570000D03*
D35*
X111820000Y-155020000D03*
D28*
X134100000Y-76400000D03*
D29*
X135550000Y-76400000D03*
D53*
X113680000Y-109100000D03*
X112720000Y-109100000D03*
D50*
X93485000Y-95300000D03*
X92215000Y-95300000D03*
X90945000Y-95300000D03*
X89675000Y-95300000D03*
X88405000Y-95300000D03*
X87135000Y-95300000D03*
X85865000Y-95300000D03*
X84595000Y-95300000D03*
X83325000Y-95300000D03*
X82055000Y-95300000D03*
X80785000Y-95300000D03*
X79515000Y-95300000D03*
X79515000Y-104600000D03*
X80785000Y-104600000D03*
X82055000Y-104600000D03*
X83325000Y-104600000D03*
X84595000Y-104600000D03*
X85865000Y-104600000D03*
X87135000Y-104600000D03*
X88405000Y-104600000D03*
X89675000Y-104600000D03*
X90945000Y-104600000D03*
X92215000Y-104600000D03*
X93485000Y-104600000D03*
D17*
X135775000Y-121400000D03*
X134125000Y-121400000D03*
D18*
X114175000Y-79750000D03*
X115825000Y-79750000D03*
D61*
X105050000Y-69300000D03*
D49*
X107680000Y-69300000D03*
X110220000Y-69300000D03*
D61*
X112850000Y-69300000D03*
D48*
X145152500Y-104310000D03*
D49*
X142612500Y-104310000D03*
X145152500Y-101770000D03*
X142612500Y-101770000D03*
X145152500Y-99230000D03*
X142612500Y-99230000D03*
X145152500Y-96690000D03*
X142612500Y-96690000D03*
X145152500Y-94150000D03*
X142612500Y-94150000D03*
D18*
X74125000Y-118450000D03*
X75775000Y-118450000D03*
D66*
X78232233Y-118232233D03*
X81767767Y-118232233D03*
X81767767Y-121767767D03*
X78232233Y-121767767D03*
X78232233Y-158232233D03*
X81767767Y-158232233D03*
X81767767Y-161767767D03*
X78232233Y-161767767D03*
X138232233Y-158232233D03*
X141767767Y-158232233D03*
X141767767Y-161767767D03*
X138232233Y-161767767D03*
X108232233Y-118232233D03*
X111767767Y-118232233D03*
X111767767Y-121767767D03*
X108232233Y-121767767D03*
X138232233Y-38232233D03*
X141767767Y-38232233D03*
X141767767Y-41767767D03*
X138232233Y-41767767D03*
X108232233Y-158232233D03*
X111767767Y-158232233D03*
X111767767Y-161767767D03*
X108232233Y-161767767D03*
X108232233Y-38232233D03*
X111767767Y-38232233D03*
X111767767Y-41767767D03*
X108232233Y-41767767D03*
X78232233Y-38232233D03*
X81767767Y-38232233D03*
X81767767Y-41767767D03*
X78232233Y-41767767D03*
X78232233Y-78232233D03*
X81767767Y-78232233D03*
X81767767Y-81767767D03*
X78232233Y-81767767D03*
X138232233Y-78232233D03*
X141767767Y-78232233D03*
X141767767Y-81767767D03*
X138232233Y-81767767D03*
X108232233Y-78232233D03*
X111767767Y-78232233D03*
X111767767Y-81767767D03*
X108232233Y-81767767D03*
X138232233Y-118232233D03*
X141767767Y-118232233D03*
X141767767Y-121767767D03*
X138232233Y-121767767D03*
M02*
