G04 #@! TF.GenerationSoftware,KiCad,Pcbnew,6.0.10-86aedd382b~118~ubuntu20.04.1*
G04 #@! TF.CreationDate,2023-01-07T15:43:11+01:00*
G04 #@! TF.ProjectId,IOB_V3,494f425f-5633-42e6-9b69-6361645f7063,rev?*
G04 #@! TF.SameCoordinates,Original*
G04 #@! TF.FileFunction,Legend,Bot*
G04 #@! TF.FilePolarity,Positive*
%FSLAX46Y46*%
G04 Gerber Fmt 4.6, Leading zero omitted, Abs format (unit mm)*
G04 Created by KiCad (PCBNEW 6.0.10-86aedd382b~118~ubuntu20.04.1) date 2023-01-07 15:43:11*
%MOMM*%
%LPD*%
G01*
G04 APERTURE LIST*
G04 Aperture macros list*
%AMRoundRect*
0 Rectangle with rounded corners*
0 $1 Rounding radius*
0 $2 $3 $4 $5 $6 $7 $8 $9 X,Y pos of 4 corners*
0 Add a 4 corners polygon primitive as box body*
4,1,4,$2,$3,$4,$5,$6,$7,$8,$9,$2,$3,0*
0 Add four circle primitives for the rounded corners*
1,1,$1+$1,$2,$3*
1,1,$1+$1,$4,$5*
1,1,$1+$1,$6,$7*
1,1,$1+$1,$8,$9*
0 Add four rect primitives between the rounded corners*
20,1,$1+$1,$2,$3,$4,$5,0*
20,1,$1+$1,$4,$5,$6,$7,0*
20,1,$1+$1,$6,$7,$8,$9,0*
20,1,$1+$1,$8,$9,$2,$3,0*%
G04 Aperture macros list end*
%ADD10C,0.120000*%
%ADD11C,1.000000*%
%ADD12RoundRect,0.250000X0.600000X0.600000X-0.600000X0.600000X-0.600000X-0.600000X0.600000X-0.600000X0*%
%ADD13C,1.700000*%
%ADD14RoundRect,0.250000X-0.620000X-0.620000X0.620000X-0.620000X0.620000X0.620000X-0.620000X0.620000X0*%
%ADD15C,1.740000*%
%ADD16R,1.700000X1.700000*%
%ADD17O,1.700000X1.700000*%
%ADD18C,2.500000*%
G04 APERTURE END LIST*
D10*
X79732233Y-118232233D02*
G75*
G03*
X79732233Y-118232233I-1500000J0D01*
G01*
X79732233Y-158232233D02*
G75*
G03*
X79732233Y-158232233I-1500000J0D01*
G01*
X139732233Y-158232233D02*
G75*
G03*
X139732233Y-158232233I-1500000J0D01*
G01*
X109732233Y-118232233D02*
G75*
G03*
X109732233Y-118232233I-1500000J0D01*
G01*
X139732233Y-38232233D02*
G75*
G03*
X139732233Y-38232233I-1500000J0D01*
G01*
X109732233Y-158232233D02*
G75*
G03*
X109732233Y-158232233I-1500000J0D01*
G01*
X109732233Y-38232233D02*
G75*
G03*
X109732233Y-38232233I-1500000J0D01*
G01*
X79732233Y-38232233D02*
G75*
G03*
X79732233Y-38232233I-1500000J0D01*
G01*
X79732233Y-78232233D02*
G75*
G03*
X79732233Y-78232233I-1500000J0D01*
G01*
X139732233Y-78232233D02*
G75*
G03*
X139732233Y-78232233I-1500000J0D01*
G01*
X109732233Y-78232233D02*
G75*
G03*
X109732233Y-78232233I-1500000J0D01*
G01*
X139732233Y-118232233D02*
G75*
G03*
X139732233Y-118232233I-1500000J0D01*
G01*
%LPC*%
D11*
X99725000Y-108550000D03*
X98200000Y-86700000D03*
X99075000Y-106550000D03*
D12*
X145112500Y-64460000D03*
D13*
X142572500Y-64460000D03*
X145112500Y-61920000D03*
X142572500Y-61920000D03*
X145112500Y-59380000D03*
X142572500Y-59380000D03*
X145112500Y-56840000D03*
X142572500Y-56840000D03*
X145112500Y-54300000D03*
X142572500Y-54300000D03*
D11*
X126700000Y-162950000D03*
D14*
X77590000Y-136450000D03*
D15*
X80130000Y-136450000D03*
X82670000Y-136450000D03*
X85210000Y-136450000D03*
D16*
X136725000Y-62450000D03*
D17*
X134185000Y-62450000D03*
X131645000Y-62450000D03*
X129105000Y-62450000D03*
X126565000Y-62450000D03*
X124025000Y-62450000D03*
X121485000Y-62450000D03*
X118945000Y-62450000D03*
D14*
X77590000Y-144550000D03*
D15*
X80130000Y-144550000D03*
X82670000Y-144550000D03*
X85210000Y-144550000D03*
D16*
X75525000Y-59925000D03*
D17*
X75525000Y-62465000D03*
X75525000Y-65005000D03*
D11*
X122675000Y-162900000D03*
X115000000Y-69250000D03*
D13*
X100295000Y-69300000D03*
X97755000Y-69300000D03*
X107680000Y-69300000D03*
X110220000Y-69300000D03*
D12*
X145152500Y-104310000D03*
D13*
X142612500Y-104310000D03*
X145152500Y-101770000D03*
X142612500Y-101770000D03*
X145152500Y-99230000D03*
X142612500Y-99230000D03*
X145152500Y-96690000D03*
X142612500Y-96690000D03*
X145152500Y-94150000D03*
X142612500Y-94150000D03*
D18*
X78232233Y-118232233D03*
X81767767Y-118232233D03*
X81767767Y-121767767D03*
X78232233Y-121767767D03*
X78232233Y-158232233D03*
X81767767Y-158232233D03*
X81767767Y-161767767D03*
X78232233Y-161767767D03*
X138232233Y-158232233D03*
X141767767Y-158232233D03*
X141767767Y-161767767D03*
X138232233Y-161767767D03*
X108232233Y-118232233D03*
X111767767Y-118232233D03*
X111767767Y-121767767D03*
X108232233Y-121767767D03*
X138232233Y-38232233D03*
X141767767Y-38232233D03*
X141767767Y-41767767D03*
X138232233Y-41767767D03*
X108232233Y-158232233D03*
X111767767Y-158232233D03*
X111767767Y-161767767D03*
X108232233Y-161767767D03*
X108232233Y-38232233D03*
X111767767Y-38232233D03*
X111767767Y-41767767D03*
X108232233Y-41767767D03*
X78232233Y-38232233D03*
X81767767Y-38232233D03*
X81767767Y-41767767D03*
X78232233Y-41767767D03*
X78232233Y-78232233D03*
X81767767Y-78232233D03*
X81767767Y-81767767D03*
X78232233Y-81767767D03*
X138232233Y-78232233D03*
X141767767Y-78232233D03*
X141767767Y-81767767D03*
X138232233Y-81767767D03*
X108232233Y-78232233D03*
X111767767Y-78232233D03*
X111767767Y-81767767D03*
X108232233Y-81767767D03*
X138232233Y-118232233D03*
X141767767Y-118232233D03*
X141767767Y-121767767D03*
X138232233Y-121767767D03*
M02*
