%TF.GenerationSoftware,KiCad,Pcbnew,6.0.10-86aedd382b~118~ubuntu20.04.1*%
%TF.CreationDate,2023-01-07T15:43:35+01:00*%
%TF.ProjectId,IOB_V3,494f425f-5633-42e6-9b69-6361645f7063,rev?*%
%TF.SameCoordinates,Original*%
%TF.FileFunction,Drillmap*%
%TF.FilePolarity,Positive*%
%FSLAX45Y45*%
G04 Gerber Fmt 4.5, Leading zero omitted, Abs format (unit mm)*
G04 Created by KiCad (PCBNEW 6.0.10-86aedd382b~118~ubuntu20.04.1) date 2023-01-07 15:43:35*
%MOMM*%
%LPD*%
G01*
G04 APERTURE LIST*
%ADD10C,0.100000*%
%ADD11C,0.200000*%
%ADD12C,0.020000*%
%ADD13C,0.030000*%
%ADD14C,0.040000*%
%ADD15C,0.050000*%
%ADD16C,0.109000*%
%ADD17C,0.140000*%
G04 APERTURE END LIST*
D10*
X14898995Y-17000000D02*
X7101005Y-17000000D01*
X7100711Y-3000000D02*
G75*
G03*
X7000000Y-3100711I719J-101430D01*
G01*
X7000005Y-16900000D02*
G75*
G03*
X7101005Y-17000000I102025J2040D01*
G01*
X7000000Y-16900000D02*
X7000000Y-3100711D01*
X15000000Y-3101005D02*
X15000000Y-16898995D01*
X7100711Y-3000000D02*
X14898995Y-3000000D01*
X15000000Y-3101005D02*
G75*
G03*
X14898995Y-3000000I-102020J-1015D01*
G01*
X14898995Y-17000000D02*
G75*
G03*
X15000000Y-16898995I-1015J102020D01*
G01*
D11*
D12*
X12755000Y-13787500D02*
X12775000Y-13807500D01*
X12775000Y-13787500D02*
X12755000Y-13807500D01*
X12755000Y-13912500D02*
X12775000Y-13932500D01*
X12775000Y-13912500D02*
X12755000Y-13932500D01*
X12880000Y-13787500D02*
X12900000Y-13807500D01*
X12900000Y-13787500D02*
X12880000Y-13807500D01*
X12880000Y-13912500D02*
X12900000Y-13932500D01*
X12900000Y-13912500D02*
X12880000Y-13932500D01*
D13*
X7165000Y-5100000D02*
G75*
G03*
X7165000Y-5100000I-15000J0D01*
G01*
X7165000Y-5350000D02*
G75*
G03*
X7165000Y-5350000I-15000J0D01*
G01*
X7165000Y-5600000D02*
G75*
G03*
X7165000Y-5600000I-15000J0D01*
G01*
X7165000Y-5850000D02*
G75*
G03*
X7165000Y-5850000I-15000J0D01*
G01*
X7165000Y-6100000D02*
G75*
G03*
X7165000Y-6100000I-15000J0D01*
G01*
X7165000Y-9850000D02*
G75*
G03*
X7165000Y-9850000I-15000J0D01*
G01*
X7165000Y-16100000D02*
G75*
G03*
X7165000Y-16100000I-15000J0D01*
G01*
X7165000Y-16350000D02*
G75*
G03*
X7165000Y-16350000I-15000J0D01*
G01*
X7165000Y-16600000D02*
G75*
G03*
X7165000Y-16600000I-15000J0D01*
G01*
X7165000Y-16850000D02*
G75*
G03*
X7165000Y-16850000I-15000J0D01*
G01*
X7415000Y-5100000D02*
G75*
G03*
X7415000Y-5100000I-15000J0D01*
G01*
X7415000Y-5350000D02*
G75*
G03*
X7415000Y-5350000I-15000J0D01*
G01*
X7415000Y-5600000D02*
G75*
G03*
X7415000Y-5600000I-15000J0D01*
G01*
X7415000Y-6850000D02*
G75*
G03*
X7415000Y-6850000I-15000J0D01*
G01*
X7415000Y-8850000D02*
G75*
G03*
X7415000Y-8850000I-15000J0D01*
G01*
X7415000Y-9350000D02*
G75*
G03*
X7415000Y-9350000I-15000J0D01*
G01*
X7415000Y-9600000D02*
G75*
G03*
X7415000Y-9600000I-15000J0D01*
G01*
X7415000Y-10350000D02*
G75*
G03*
X7415000Y-10350000I-15000J0D01*
G01*
X7415000Y-10600000D02*
G75*
G03*
X7415000Y-10600000I-15000J0D01*
G01*
X7415000Y-10850000D02*
G75*
G03*
X7415000Y-10850000I-15000J0D01*
G01*
X7415000Y-11100000D02*
G75*
G03*
X7415000Y-11100000I-15000J0D01*
G01*
X7415000Y-12850000D02*
G75*
G03*
X7415000Y-12850000I-15000J0D01*
G01*
X7415000Y-14850000D02*
G75*
G03*
X7415000Y-14850000I-15000J0D01*
G01*
X7415000Y-15100000D02*
G75*
G03*
X7415000Y-15100000I-15000J0D01*
G01*
X7415000Y-16850000D02*
G75*
G03*
X7415000Y-16850000I-15000J0D01*
G01*
X7445000Y-8470000D02*
G75*
G03*
X7445000Y-8470000I-15000J0D01*
G01*
X7445000Y-12465000D02*
G75*
G03*
X7445000Y-12465000I-15000J0D01*
G01*
X7450000Y-4470000D02*
G75*
G03*
X7450000Y-4470000I-15000J0D01*
G01*
X7457500Y-16472500D02*
G75*
G03*
X7457500Y-16472500I-15000J0D01*
G01*
X7665000Y-5100000D02*
G75*
G03*
X7665000Y-5100000I-15000J0D01*
G01*
X7665000Y-5350000D02*
G75*
G03*
X7665000Y-5350000I-15000J0D01*
G01*
X7665000Y-5600000D02*
G75*
G03*
X7665000Y-5600000I-15000J0D01*
G01*
X7665000Y-6850000D02*
G75*
G03*
X7665000Y-6850000I-15000J0D01*
G01*
X7665000Y-8850000D02*
G75*
G03*
X7665000Y-8850000I-15000J0D01*
G01*
X7665000Y-9350000D02*
G75*
G03*
X7665000Y-9350000I-15000J0D01*
G01*
X7665000Y-9600000D02*
G75*
G03*
X7665000Y-9600000I-15000J0D01*
G01*
X7665000Y-10350000D02*
G75*
G03*
X7665000Y-10350000I-15000J0D01*
G01*
X7665000Y-10600000D02*
G75*
G03*
X7665000Y-10600000I-15000J0D01*
G01*
X7665000Y-10850000D02*
G75*
G03*
X7665000Y-10850000I-15000J0D01*
G01*
X7665000Y-11100000D02*
G75*
G03*
X7665000Y-11100000I-15000J0D01*
G01*
X7665000Y-14850000D02*
G75*
G03*
X7665000Y-14850000I-15000J0D01*
G01*
X7665000Y-15100000D02*
G75*
G03*
X7665000Y-15100000I-15000J0D01*
G01*
X7665000Y-16850000D02*
G75*
G03*
X7665000Y-16850000I-15000J0D01*
G01*
X7690000Y-12325000D02*
G75*
G03*
X7690000Y-12325000I-15000J0D01*
G01*
X7695000Y-8325000D02*
G75*
G03*
X7695000Y-8325000I-15000J0D01*
G01*
X7695000Y-16340000D02*
G75*
G03*
X7695000Y-16340000I-15000J0D01*
G01*
X7710000Y-4335000D02*
G75*
G03*
X7710000Y-4335000I-15000J0D01*
G01*
X7730000Y-10100000D02*
G75*
G03*
X7730000Y-10100000I-15000J0D01*
G01*
X7755000Y-9800050D02*
G75*
G03*
X7755000Y-9800050I-15000J0D01*
G01*
X7905000Y-9800000D02*
G75*
G03*
X7905000Y-9800000I-15000J0D01*
G01*
X7905000Y-10100000D02*
G75*
G03*
X7905000Y-10100000I-15000J0D01*
G01*
X7915000Y-5100000D02*
G75*
G03*
X7915000Y-5100000I-15000J0D01*
G01*
X7915000Y-5350000D02*
G75*
G03*
X7915000Y-5350000I-15000J0D01*
G01*
X7915000Y-5600000D02*
G75*
G03*
X7915000Y-5600000I-15000J0D01*
G01*
X7915000Y-5850000D02*
G75*
G03*
X7915000Y-5850000I-15000J0D01*
G01*
X7915000Y-6100000D02*
G75*
G03*
X7915000Y-6100000I-15000J0D01*
G01*
X7915000Y-6350000D02*
G75*
G03*
X7915000Y-6350000I-15000J0D01*
G01*
X7915000Y-6600000D02*
G75*
G03*
X7915000Y-6600000I-15000J0D01*
G01*
X7915000Y-6850000D02*
G75*
G03*
X7915000Y-6850000I-15000J0D01*
G01*
X7915000Y-8850000D02*
G75*
G03*
X7915000Y-8850000I-15000J0D01*
G01*
X7915000Y-10850000D02*
G75*
G03*
X7915000Y-10850000I-15000J0D01*
G01*
X7915000Y-11100000D02*
G75*
G03*
X7915000Y-11100000I-15000J0D01*
G01*
X7915000Y-12850000D02*
G75*
G03*
X7915000Y-12850000I-15000J0D01*
G01*
X7915000Y-14850000D02*
G75*
G03*
X7915000Y-14850000I-15000J0D01*
G01*
X7915000Y-15100000D02*
G75*
G03*
X7915000Y-15100000I-15000J0D01*
G01*
X7915000Y-16850000D02*
G75*
G03*
X7915000Y-16850000I-15000J0D01*
G01*
X7992500Y-9722500D02*
G75*
G03*
X7992500Y-9722500I-15000J0D01*
G01*
X8025000Y-4700000D02*
G75*
G03*
X8025000Y-4700000I-15000J0D01*
G01*
X8055000Y-8710000D02*
G75*
G03*
X8055000Y-8710000I-15000J0D01*
G01*
X8165000Y-5100000D02*
G75*
G03*
X8165000Y-5100000I-15000J0D01*
G01*
X8165000Y-5350000D02*
G75*
G03*
X8165000Y-5350000I-15000J0D01*
G01*
X8165000Y-5600000D02*
G75*
G03*
X8165000Y-5600000I-15000J0D01*
G01*
X8165000Y-5850000D02*
G75*
G03*
X8165000Y-5850000I-15000J0D01*
G01*
X8165000Y-6100000D02*
G75*
G03*
X8165000Y-6100000I-15000J0D01*
G01*
X8165000Y-6350000D02*
G75*
G03*
X8165000Y-6350000I-15000J0D01*
G01*
X8165000Y-6600000D02*
G75*
G03*
X8165000Y-6600000I-15000J0D01*
G01*
X8165000Y-6850000D02*
G75*
G03*
X8165000Y-6850000I-15000J0D01*
G01*
X8165000Y-8850000D02*
G75*
G03*
X8165000Y-8850000I-15000J0D01*
G01*
X8165000Y-10850000D02*
G75*
G03*
X8165000Y-10850000I-15000J0D01*
G01*
X8165000Y-11100000D02*
G75*
G03*
X8165000Y-11100000I-15000J0D01*
G01*
X8165000Y-12850000D02*
G75*
G03*
X8165000Y-12850000I-15000J0D01*
G01*
X8165000Y-14850000D02*
G75*
G03*
X8165000Y-14850000I-15000J0D01*
G01*
X8165000Y-15100000D02*
G75*
G03*
X8165000Y-15100000I-15000J0D01*
G01*
X8165000Y-16850000D02*
G75*
G03*
X8165000Y-16850000I-15000J0D01*
G01*
X8275000Y-13004950D02*
G75*
G03*
X8275000Y-13004950I-15000J0D01*
G01*
X8345000Y-3630000D02*
G75*
G03*
X8345000Y-3630000I-15000J0D01*
G01*
X8345000Y-15670000D02*
G75*
G03*
X8345000Y-15670000I-15000J0D01*
G01*
X8358000Y-7648000D02*
G75*
G03*
X8358000Y-7648000I-15000J0D01*
G01*
X8366000Y-11643000D02*
G75*
G03*
X8366000Y-11643000I-15000J0D01*
G01*
X8415000Y-5100000D02*
G75*
G03*
X8415000Y-5100000I-15000J0D01*
G01*
X8415000Y-5350000D02*
G75*
G03*
X8415000Y-5350000I-15000J0D01*
G01*
X8415000Y-5600000D02*
G75*
G03*
X8415000Y-5600000I-15000J0D01*
G01*
X8415000Y-5850000D02*
G75*
G03*
X8415000Y-5850000I-15000J0D01*
G01*
X8415000Y-6100000D02*
G75*
G03*
X8415000Y-6100000I-15000J0D01*
G01*
X8415000Y-6350000D02*
G75*
G03*
X8415000Y-6350000I-15000J0D01*
G01*
X8415000Y-6600000D02*
G75*
G03*
X8415000Y-6600000I-15000J0D01*
G01*
X8415000Y-6850000D02*
G75*
G03*
X8415000Y-6850000I-15000J0D01*
G01*
X8415000Y-8850000D02*
G75*
G03*
X8415000Y-8850000I-15000J0D01*
G01*
X8415000Y-10850000D02*
G75*
G03*
X8415000Y-10850000I-15000J0D01*
G01*
X8415000Y-11100000D02*
G75*
G03*
X8415000Y-11100000I-15000J0D01*
G01*
X8415000Y-12850000D02*
G75*
G03*
X8415000Y-12850000I-15000J0D01*
G01*
X8415000Y-13100000D02*
G75*
G03*
X8415000Y-13100000I-15000J0D01*
G01*
X8415000Y-14850000D02*
G75*
G03*
X8415000Y-14850000I-15000J0D01*
G01*
X8415000Y-15100000D02*
G75*
G03*
X8415000Y-15100000I-15000J0D01*
G01*
X8415000Y-16850000D02*
G75*
G03*
X8415000Y-16850000I-15000J0D01*
G01*
X8444000Y-7222000D02*
G75*
G03*
X8444000Y-7222000I-15000J0D01*
G01*
X8575000Y-3360000D02*
G75*
G03*
X8575000Y-3360000I-15000J0D01*
G01*
X8593000Y-11362000D02*
G75*
G03*
X8593000Y-11362000I-15000J0D01*
G01*
X8653550Y-9292500D02*
G75*
G03*
X8653550Y-9292500I-15000J0D01*
G01*
X8660000Y-9680000D02*
G75*
G03*
X8660000Y-9680000I-15000J0D01*
G01*
X8665000Y-4600000D02*
G75*
G03*
X8665000Y-4600000I-15000J0D01*
G01*
X8665000Y-5100000D02*
G75*
G03*
X8665000Y-5100000I-15000J0D01*
G01*
X8665000Y-5350000D02*
G75*
G03*
X8665000Y-5350000I-15000J0D01*
G01*
X8665000Y-5600000D02*
G75*
G03*
X8665000Y-5600000I-15000J0D01*
G01*
X8665000Y-5850000D02*
G75*
G03*
X8665000Y-5850000I-15000J0D01*
G01*
X8665000Y-6100000D02*
G75*
G03*
X8665000Y-6100000I-15000J0D01*
G01*
X8665000Y-6350000D02*
G75*
G03*
X8665000Y-6350000I-15000J0D01*
G01*
X8665000Y-6600000D02*
G75*
G03*
X8665000Y-6600000I-15000J0D01*
G01*
X8665000Y-6850000D02*
G75*
G03*
X8665000Y-6850000I-15000J0D01*
G01*
X8665000Y-8600000D02*
G75*
G03*
X8665000Y-8600000I-15000J0D01*
G01*
X8665000Y-8850000D02*
G75*
G03*
X8665000Y-8850000I-15000J0D01*
G01*
X8665000Y-9100000D02*
G75*
G03*
X8665000Y-9100000I-15000J0D01*
G01*
X8665000Y-10850000D02*
G75*
G03*
X8665000Y-10850000I-15000J0D01*
G01*
X8665000Y-11097100D02*
G75*
G03*
X8665000Y-11097100I-15000J0D01*
G01*
X8665000Y-12600000D02*
G75*
G03*
X8665000Y-12600000I-15000J0D01*
G01*
X8665000Y-12850000D02*
G75*
G03*
X8665000Y-12850000I-15000J0D01*
G01*
X8665000Y-13350000D02*
G75*
G03*
X8665000Y-13350000I-15000J0D01*
G01*
X8665000Y-13850000D02*
G75*
G03*
X8665000Y-13850000I-15000J0D01*
G01*
X8665000Y-14100000D02*
G75*
G03*
X8665000Y-14100000I-15000J0D01*
G01*
X8665000Y-14350000D02*
G75*
G03*
X8665000Y-14350000I-15000J0D01*
G01*
X8665000Y-14600000D02*
G75*
G03*
X8665000Y-14600000I-15000J0D01*
G01*
X8665000Y-14850000D02*
G75*
G03*
X8665000Y-14850000I-15000J0D01*
G01*
X8665000Y-15100000D02*
G75*
G03*
X8665000Y-15100000I-15000J0D01*
G01*
X8665000Y-16600000D02*
G75*
G03*
X8665000Y-16600000I-15000J0D01*
G01*
X8665000Y-16850000D02*
G75*
G03*
X8665000Y-16850000I-15000J0D01*
G01*
X8720000Y-11656000D02*
G75*
G03*
X8720000Y-11656000I-15000J0D01*
G01*
X8735000Y-4130000D02*
G75*
G03*
X8735000Y-4130000I-15000J0D01*
G01*
X8735000Y-7650000D02*
G75*
G03*
X8735000Y-7650000I-15000J0D01*
G01*
X8747000Y-15208000D02*
G75*
G03*
X8747000Y-15208000I-15000J0D01*
G01*
X8915000Y-3600000D02*
G75*
G03*
X8915000Y-3600000I-15000J0D01*
G01*
X8915000Y-3850000D02*
G75*
G03*
X8915000Y-3850000I-15000J0D01*
G01*
X8915000Y-4350000D02*
G75*
G03*
X8915000Y-4350000I-15000J0D01*
G01*
X8915000Y-4600000D02*
G75*
G03*
X8915000Y-4600000I-15000J0D01*
G01*
X8915000Y-13350000D02*
G75*
G03*
X8915000Y-13350000I-15000J0D01*
G01*
X8915000Y-13600000D02*
G75*
G03*
X8915000Y-13600000I-15000J0D01*
G01*
X8915000Y-13850000D02*
G75*
G03*
X8915000Y-13850000I-15000J0D01*
G01*
X8915000Y-14100000D02*
G75*
G03*
X8915000Y-14100000I-15000J0D01*
G01*
X8915000Y-14350000D02*
G75*
G03*
X8915000Y-14350000I-15000J0D01*
G01*
X8915000Y-14600000D02*
G75*
G03*
X8915000Y-14600000I-15000J0D01*
G01*
X8915000Y-14850000D02*
G75*
G03*
X8915000Y-14850000I-15000J0D01*
G01*
X8915000Y-15100000D02*
G75*
G03*
X8915000Y-15100000I-15000J0D01*
G01*
X8915000Y-15600000D02*
G75*
G03*
X8915000Y-15600000I-15000J0D01*
G01*
X8915000Y-15850000D02*
G75*
G03*
X8915000Y-15850000I-15000J0D01*
G01*
X8915000Y-16100000D02*
G75*
G03*
X8915000Y-16100000I-15000J0D01*
G01*
X8915000Y-16350000D02*
G75*
G03*
X8915000Y-16350000I-15000J0D01*
G01*
X8915000Y-16600000D02*
G75*
G03*
X8915000Y-16600000I-15000J0D01*
G01*
X8915000Y-16850000D02*
G75*
G03*
X8915000Y-16850000I-15000J0D01*
G01*
X8915000Y-10950000D02*
G75*
G03*
X8915000Y-10950000I-15000J0D01*
G01*
X8954950Y-9047500D02*
G75*
G03*
X8954950Y-9047500I-15000J0D01*
G01*
X9002500Y-11082500D02*
G75*
G03*
X9002500Y-11082500I-15000J0D01*
G01*
X9045000Y-9250000D02*
G75*
G03*
X9045000Y-9250000I-15000J0D01*
G01*
X9055000Y-8930000D02*
G75*
G03*
X9055000Y-8930000I-15000J0D01*
G01*
X9165000Y-15100000D02*
G75*
G03*
X9165000Y-15100000I-15000J0D01*
G01*
X9165000Y-15600000D02*
G75*
G03*
X9165000Y-15600000I-15000J0D01*
G01*
X9165000Y-15850000D02*
G75*
G03*
X9165000Y-15850000I-15000J0D01*
G01*
X9165000Y-16100000D02*
G75*
G03*
X9165000Y-16100000I-15000J0D01*
G01*
X9165000Y-16350000D02*
G75*
G03*
X9165000Y-16350000I-15000J0D01*
G01*
X9165000Y-16600000D02*
G75*
G03*
X9165000Y-16600000I-15000J0D01*
G01*
X9165000Y-16850000D02*
G75*
G03*
X9165000Y-16850000I-15000J0D01*
G01*
X9304999Y-8875000D02*
G75*
G03*
X9304999Y-8875000I-15000J0D01*
G01*
X9354950Y-8720000D02*
G75*
G03*
X9354950Y-8720000I-15000J0D01*
G01*
X9415000Y-3600000D02*
G75*
G03*
X9415000Y-3600000I-15000J0D01*
G01*
X9415000Y-4850000D02*
G75*
G03*
X9415000Y-4850000I-15000J0D01*
G01*
X9415000Y-5100000D02*
G75*
G03*
X9415000Y-5100000I-15000J0D01*
G01*
X9415000Y-5350000D02*
G75*
G03*
X9415000Y-5350000I-15000J0D01*
G01*
X9415000Y-5600000D02*
G75*
G03*
X9415000Y-5600000I-15000J0D01*
G01*
X9415000Y-5850000D02*
G75*
G03*
X9415000Y-5850000I-15000J0D01*
G01*
X9415000Y-6100000D02*
G75*
G03*
X9415000Y-6100000I-15000J0D01*
G01*
X9415000Y-6350000D02*
G75*
G03*
X9415000Y-6350000I-15000J0D01*
G01*
X9415000Y-6600000D02*
G75*
G03*
X9415000Y-6600000I-15000J0D01*
G01*
X9415000Y-9350000D02*
G75*
G03*
X9415000Y-9350000I-15000J0D01*
G01*
X9415000Y-12100000D02*
G75*
G03*
X9415000Y-12100000I-15000J0D01*
G01*
X9415000Y-12350000D02*
G75*
G03*
X9415000Y-12350000I-15000J0D01*
G01*
X9415000Y-12850000D02*
G75*
G03*
X9415000Y-12850000I-15000J0D01*
G01*
X9415000Y-13350000D02*
G75*
G03*
X9415000Y-13350000I-15000J0D01*
G01*
X9415000Y-13600000D02*
G75*
G03*
X9415000Y-13600000I-15000J0D01*
G01*
X9415000Y-13850000D02*
G75*
G03*
X9415000Y-13850000I-15000J0D01*
G01*
X9415000Y-14100000D02*
G75*
G03*
X9415000Y-14100000I-15000J0D01*
G01*
X9415000Y-14350000D02*
G75*
G03*
X9415000Y-14350000I-15000J0D01*
G01*
X9415000Y-14600000D02*
G75*
G03*
X9415000Y-14600000I-15000J0D01*
G01*
X9415000Y-15100000D02*
G75*
G03*
X9415000Y-15100000I-15000J0D01*
G01*
X9415000Y-15600000D02*
G75*
G03*
X9415000Y-15600000I-15000J0D01*
G01*
X9415000Y-16100000D02*
G75*
G03*
X9415000Y-16100000I-15000J0D01*
G01*
X9415000Y-16350000D02*
G75*
G03*
X9415000Y-16350000I-15000J0D01*
G01*
X9415000Y-16600000D02*
G75*
G03*
X9415000Y-16600000I-15000J0D01*
G01*
X9415000Y-16850000D02*
G75*
G03*
X9415000Y-16850000I-15000J0D01*
G01*
X9445000Y-4480000D02*
G75*
G03*
X9445000Y-4480000I-15000J0D01*
G01*
X9580000Y-10727500D02*
G75*
G03*
X9580000Y-10727500I-15000J0D01*
G01*
X9632500Y-8922500D02*
G75*
G03*
X9632500Y-8922500I-15000J0D01*
G01*
X9642500Y-9197500D02*
G75*
G03*
X9642500Y-9197500I-15000J0D01*
G01*
X9643038Y-9044462D02*
G75*
G03*
X9643038Y-9044462I-15000J0D01*
G01*
X9650000Y-8762500D02*
G75*
G03*
X9650000Y-8762500I-15000J0D01*
G01*
X9665000Y-4100000D02*
G75*
G03*
X9665000Y-4100000I-15000J0D01*
G01*
X9665000Y-4350000D02*
G75*
G03*
X9665000Y-4350000I-15000J0D01*
G01*
X9665000Y-4600000D02*
G75*
G03*
X9665000Y-4600000I-15000J0D01*
G01*
X9665000Y-4850000D02*
G75*
G03*
X9665000Y-4850000I-15000J0D01*
G01*
X9665000Y-5100000D02*
G75*
G03*
X9665000Y-5100000I-15000J0D01*
G01*
X9665000Y-5350000D02*
G75*
G03*
X9665000Y-5350000I-15000J0D01*
G01*
X9665000Y-5600000D02*
G75*
G03*
X9665000Y-5600000I-15000J0D01*
G01*
X9665000Y-5850000D02*
G75*
G03*
X9665000Y-5850000I-15000J0D01*
G01*
X9665000Y-6100000D02*
G75*
G03*
X9665000Y-6100000I-15000J0D01*
G01*
X9665000Y-6350000D02*
G75*
G03*
X9665000Y-6350000I-15000J0D01*
G01*
X9665000Y-6600000D02*
G75*
G03*
X9665000Y-6600000I-15000J0D01*
G01*
X9665000Y-8600000D02*
G75*
G03*
X9665000Y-8600000I-15000J0D01*
G01*
X9665000Y-9350000D02*
G75*
G03*
X9665000Y-9350000I-15000J0D01*
G01*
X9665000Y-11850000D02*
G75*
G03*
X9665000Y-11850000I-15000J0D01*
G01*
X9665000Y-12100000D02*
G75*
G03*
X9665000Y-12100000I-15000J0D01*
G01*
X9665000Y-12350000D02*
G75*
G03*
X9665000Y-12350000I-15000J0D01*
G01*
X9665000Y-12600000D02*
G75*
G03*
X9665000Y-12600000I-15000J0D01*
G01*
X9665000Y-13350000D02*
G75*
G03*
X9665000Y-13350000I-15000J0D01*
G01*
X9665000Y-13600000D02*
G75*
G03*
X9665000Y-13600000I-15000J0D01*
G01*
X9665000Y-13850000D02*
G75*
G03*
X9665000Y-13850000I-15000J0D01*
G01*
X9665000Y-14100000D02*
G75*
G03*
X9665000Y-14100000I-15000J0D01*
G01*
X9665000Y-14350000D02*
G75*
G03*
X9665000Y-14350000I-15000J0D01*
G01*
X9665000Y-14600000D02*
G75*
G03*
X9665000Y-14600000I-15000J0D01*
G01*
X9665000Y-15100000D02*
G75*
G03*
X9665000Y-15100000I-15000J0D01*
G01*
X9665000Y-15850000D02*
G75*
G03*
X9665000Y-15850000I-15000J0D01*
G01*
X9665000Y-16100000D02*
G75*
G03*
X9665000Y-16100000I-15000J0D01*
G01*
X9665000Y-16350000D02*
G75*
G03*
X9665000Y-16350000I-15000J0D01*
G01*
X9665000Y-16600000D02*
G75*
G03*
X9665000Y-16600000I-15000J0D01*
G01*
X9665000Y-16850000D02*
G75*
G03*
X9665000Y-16850000I-15000J0D01*
G01*
X9915000Y-4100000D02*
G75*
G03*
X9915000Y-4100000I-15000J0D01*
G01*
X9915000Y-4350000D02*
G75*
G03*
X9915000Y-4350000I-15000J0D01*
G01*
X9915000Y-4600000D02*
G75*
G03*
X9915000Y-4600000I-15000J0D01*
G01*
X9915000Y-4850000D02*
G75*
G03*
X9915000Y-4850000I-15000J0D01*
G01*
X9915000Y-5100000D02*
G75*
G03*
X9915000Y-5100000I-15000J0D01*
G01*
X9915000Y-5350000D02*
G75*
G03*
X9915000Y-5350000I-15000J0D01*
G01*
X9915000Y-5600000D02*
G75*
G03*
X9915000Y-5600000I-15000J0D01*
G01*
X9915000Y-5850000D02*
G75*
G03*
X9915000Y-5850000I-15000J0D01*
G01*
X9915000Y-6100000D02*
G75*
G03*
X9915000Y-6100000I-15000J0D01*
G01*
X9915000Y-6350000D02*
G75*
G03*
X9915000Y-6350000I-15000J0D01*
G01*
X9915000Y-6600000D02*
G75*
G03*
X9915000Y-6600000I-15000J0D01*
G01*
X9915000Y-11850000D02*
G75*
G03*
X9915000Y-11850000I-15000J0D01*
G01*
X9915000Y-12100000D02*
G75*
G03*
X9915000Y-12100000I-15000J0D01*
G01*
X9915000Y-12350000D02*
G75*
G03*
X9915000Y-12350000I-15000J0D01*
G01*
X9915000Y-12600000D02*
G75*
G03*
X9915000Y-12600000I-15000J0D01*
G01*
X9915000Y-13350000D02*
G75*
G03*
X9915000Y-13350000I-15000J0D01*
G01*
X9915000Y-13600000D02*
G75*
G03*
X9915000Y-13600000I-15000J0D01*
G01*
X9915000Y-13850000D02*
G75*
G03*
X9915000Y-13850000I-15000J0D01*
G01*
X9915000Y-14100000D02*
G75*
G03*
X9915000Y-14100000I-15000J0D01*
G01*
X9915000Y-14350000D02*
G75*
G03*
X9915000Y-14350000I-15000J0D01*
G01*
X9915000Y-14600000D02*
G75*
G03*
X9915000Y-14600000I-15000J0D01*
G01*
X9915000Y-15100000D02*
G75*
G03*
X9915000Y-15100000I-15000J0D01*
G01*
X9915000Y-15600000D02*
G75*
G03*
X9915000Y-15600000I-15000J0D01*
G01*
X9915000Y-15850000D02*
G75*
G03*
X9915000Y-15850000I-15000J0D01*
G01*
X9915000Y-16100000D02*
G75*
G03*
X9915000Y-16100000I-15000J0D01*
G01*
X9915000Y-16350000D02*
G75*
G03*
X9915000Y-16350000I-15000J0D01*
G01*
X9915000Y-16600000D02*
G75*
G03*
X9915000Y-16600000I-15000J0D01*
G01*
X9915000Y-16850000D02*
G75*
G03*
X9915000Y-16850000I-15000J0D01*
G01*
X10065000Y-9550000D02*
G75*
G03*
X10065000Y-9550000I-15000J0D01*
G01*
X10095000Y-9850000D02*
G75*
G03*
X10095000Y-9850000I-15000J0D01*
G01*
X10165000Y-3600000D02*
G75*
G03*
X10165000Y-3600000I-15000J0D01*
G01*
X10165000Y-3850000D02*
G75*
G03*
X10165000Y-3850000I-15000J0D01*
G01*
X10165000Y-4100000D02*
G75*
G03*
X10165000Y-4100000I-15000J0D01*
G01*
X10165000Y-4350000D02*
G75*
G03*
X10165000Y-4350000I-15000J0D01*
G01*
X10165000Y-4600000D02*
G75*
G03*
X10165000Y-4600000I-15000J0D01*
G01*
X10165000Y-4850000D02*
G75*
G03*
X10165000Y-4850000I-15000J0D01*
G01*
X10165000Y-5100000D02*
G75*
G03*
X10165000Y-5100000I-15000J0D01*
G01*
X10165000Y-5350000D02*
G75*
G03*
X10165000Y-5350000I-15000J0D01*
G01*
X10165000Y-5600000D02*
G75*
G03*
X10165000Y-5600000I-15000J0D01*
G01*
X10165000Y-5850000D02*
G75*
G03*
X10165000Y-5850000I-15000J0D01*
G01*
X10165000Y-6100000D02*
G75*
G03*
X10165000Y-6100000I-15000J0D01*
G01*
X10165000Y-6350000D02*
G75*
G03*
X10165000Y-6350000I-15000J0D01*
G01*
X10165000Y-6600000D02*
G75*
G03*
X10165000Y-6600000I-15000J0D01*
G01*
X10165000Y-11850000D02*
G75*
G03*
X10165000Y-11850000I-15000J0D01*
G01*
X10165000Y-12100000D02*
G75*
G03*
X10165000Y-12100000I-15000J0D01*
G01*
X10165000Y-12350000D02*
G75*
G03*
X10165000Y-12350000I-15000J0D01*
G01*
X10165000Y-12600000D02*
G75*
G03*
X10165000Y-12600000I-15000J0D01*
G01*
X10165000Y-13350000D02*
G75*
G03*
X10165000Y-13350000I-15000J0D01*
G01*
X10165000Y-13600000D02*
G75*
G03*
X10165000Y-13600000I-15000J0D01*
G01*
X10165000Y-13850000D02*
G75*
G03*
X10165000Y-13850000I-15000J0D01*
G01*
X10165000Y-14100000D02*
G75*
G03*
X10165000Y-14100000I-15000J0D01*
G01*
X10165000Y-14350000D02*
G75*
G03*
X10165000Y-14350000I-15000J0D01*
G01*
X10165000Y-14600000D02*
G75*
G03*
X10165000Y-14600000I-15000J0D01*
G01*
X10165000Y-15600000D02*
G75*
G03*
X10165000Y-15600000I-15000J0D01*
G01*
X10165000Y-15850000D02*
G75*
G03*
X10165000Y-15850000I-15000J0D01*
G01*
X10165000Y-16100000D02*
G75*
G03*
X10165000Y-16100000I-15000J0D01*
G01*
X10165000Y-16350000D02*
G75*
G03*
X10165000Y-16350000I-15000J0D01*
G01*
X10165000Y-16600000D02*
G75*
G03*
X10165000Y-16600000I-15000J0D01*
G01*
X10165000Y-16850000D02*
G75*
G03*
X10165000Y-16850000I-15000J0D01*
G01*
X10415000Y-4850000D02*
G75*
G03*
X10415000Y-4850000I-15000J0D01*
G01*
X10415000Y-5100000D02*
G75*
G03*
X10415000Y-5100000I-15000J0D01*
G01*
X10415000Y-5350000D02*
G75*
G03*
X10415000Y-5350000I-15000J0D01*
G01*
X10415000Y-5600000D02*
G75*
G03*
X10415000Y-5600000I-15000J0D01*
G01*
X10415000Y-5850000D02*
G75*
G03*
X10415000Y-5850000I-15000J0D01*
G01*
X10415000Y-6100000D02*
G75*
G03*
X10415000Y-6100000I-15000J0D01*
G01*
X10415000Y-6350000D02*
G75*
G03*
X10415000Y-6350000I-15000J0D01*
G01*
X10415000Y-6600000D02*
G75*
G03*
X10415000Y-6600000I-15000J0D01*
G01*
X10415000Y-13350000D02*
G75*
G03*
X10415000Y-13350000I-15000J0D01*
G01*
X10415000Y-13600000D02*
G75*
G03*
X10415000Y-13600000I-15000J0D01*
G01*
X10415000Y-16850000D02*
G75*
G03*
X10415000Y-16850000I-15000J0D01*
G01*
X10445000Y-8480000D02*
G75*
G03*
X10445000Y-8480000I-15000J0D01*
G01*
X10447500Y-4472500D02*
G75*
G03*
X10447500Y-4472500I-15000J0D01*
G01*
X10450000Y-16467500D02*
G75*
G03*
X10450000Y-16467500I-15000J0D01*
G01*
X10452500Y-12472500D02*
G75*
G03*
X10452500Y-12472500I-15000J0D01*
G01*
X10503649Y-9894950D02*
G75*
G03*
X10503649Y-9894950I-15000J0D01*
G01*
X10540000Y-11217500D02*
G75*
G03*
X10540000Y-11217500I-15000J0D01*
G01*
X10565000Y-3267500D02*
G75*
G03*
X10565000Y-3267500I-15000J0D01*
G01*
X10572500Y-7272500D02*
G75*
G03*
X10572500Y-7272500I-15000J0D01*
G01*
X10665000Y-4850000D02*
G75*
G03*
X10665000Y-4850000I-15000J0D01*
G01*
X10665000Y-5100000D02*
G75*
G03*
X10665000Y-5100000I-15000J0D01*
G01*
X10665000Y-5350000D02*
G75*
G03*
X10665000Y-5350000I-15000J0D01*
G01*
X10665000Y-5600000D02*
G75*
G03*
X10665000Y-5600000I-15000J0D01*
G01*
X10665000Y-5850000D02*
G75*
G03*
X10665000Y-5850000I-15000J0D01*
G01*
X10665000Y-6100000D02*
G75*
G03*
X10665000Y-6100000I-15000J0D01*
G01*
X10665000Y-6350000D02*
G75*
G03*
X10665000Y-6350000I-15000J0D01*
G01*
X10665000Y-6600000D02*
G75*
G03*
X10665000Y-6600000I-15000J0D01*
G01*
X10665000Y-10100000D02*
G75*
G03*
X10665000Y-10100000I-15000J0D01*
G01*
X10665000Y-13350000D02*
G75*
G03*
X10665000Y-13350000I-15000J0D01*
G01*
X10665000Y-15100000D02*
G75*
G03*
X10665000Y-15100000I-15000J0D01*
G01*
X10665000Y-16350000D02*
G75*
G03*
X10665000Y-16350000I-15000J0D01*
G01*
X10665000Y-16850000D02*
G75*
G03*
X10665000Y-16850000I-15000J0D01*
G01*
X10675000Y-12325000D02*
G75*
G03*
X10675000Y-12325000I-15000J0D01*
G01*
X10695000Y-4335000D02*
G75*
G03*
X10695000Y-4335000I-15000J0D01*
G01*
X10695000Y-8325000D02*
G75*
G03*
X10695000Y-8325000I-15000J0D01*
G01*
X10843000Y-10487000D02*
G75*
G03*
X10843000Y-10487000I-15000J0D01*
G01*
X10915000Y-4850000D02*
G75*
G03*
X10915000Y-4850000I-15000J0D01*
G01*
X10915000Y-5100000D02*
G75*
G03*
X10915000Y-5100000I-15000J0D01*
G01*
X10915000Y-5350000D02*
G75*
G03*
X10915000Y-5350000I-15000J0D01*
G01*
X10915000Y-5600000D02*
G75*
G03*
X10915000Y-5600000I-15000J0D01*
G01*
X10915000Y-5850000D02*
G75*
G03*
X10915000Y-5850000I-15000J0D01*
G01*
X10915000Y-6100000D02*
G75*
G03*
X10915000Y-6100000I-15000J0D01*
G01*
X10915000Y-6350000D02*
G75*
G03*
X10915000Y-6350000I-15000J0D01*
G01*
X10915000Y-6600000D02*
G75*
G03*
X10915000Y-6600000I-15000J0D01*
G01*
X10915000Y-8850000D02*
G75*
G03*
X10915000Y-8850000I-15000J0D01*
G01*
X10915000Y-10100000D02*
G75*
G03*
X10915000Y-10100000I-15000J0D01*
G01*
X10915000Y-13850000D02*
G75*
G03*
X10915000Y-13850000I-15000J0D01*
G01*
X10915000Y-14100000D02*
G75*
G03*
X10915000Y-14100000I-15000J0D01*
G01*
X10915000Y-14350000D02*
G75*
G03*
X10915000Y-14350000I-15000J0D01*
G01*
X10915000Y-14600000D02*
G75*
G03*
X10915000Y-14600000I-15000J0D01*
G01*
X10915000Y-15100000D02*
G75*
G03*
X10915000Y-15100000I-15000J0D01*
G01*
X10915000Y-16850000D02*
G75*
G03*
X10915000Y-16850000I-15000J0D01*
G01*
X10989000Y-9500000D02*
G75*
G03*
X10989000Y-9500000I-15000J0D01*
G01*
X11071050Y-11475000D02*
G75*
G03*
X11071050Y-11475000I-15000J0D01*
G01*
X11105000Y-8960000D02*
G75*
G03*
X11105000Y-8960000I-15000J0D01*
G01*
X11155000Y-9700000D02*
G75*
G03*
X11155000Y-9700000I-15000J0D01*
G01*
X11165000Y-4850000D02*
G75*
G03*
X11165000Y-4850000I-15000J0D01*
G01*
X11165000Y-5100000D02*
G75*
G03*
X11165000Y-5100000I-15000J0D01*
G01*
X11165000Y-5350000D02*
G75*
G03*
X11165000Y-5350000I-15000J0D01*
G01*
X11165000Y-5600000D02*
G75*
G03*
X11165000Y-5600000I-15000J0D01*
G01*
X11165000Y-5850000D02*
G75*
G03*
X11165000Y-5850000I-15000J0D01*
G01*
X11165000Y-6100000D02*
G75*
G03*
X11165000Y-6100000I-15000J0D01*
G01*
X11165000Y-6350000D02*
G75*
G03*
X11165000Y-6350000I-15000J0D01*
G01*
X11165000Y-6600000D02*
G75*
G03*
X11165000Y-6600000I-15000J0D01*
G01*
X11165000Y-10350000D02*
G75*
G03*
X11165000Y-10350000I-15000J0D01*
G01*
X11165000Y-13600000D02*
G75*
G03*
X11165000Y-13600000I-15000J0D01*
G01*
X11165000Y-13850000D02*
G75*
G03*
X11165000Y-13850000I-15000J0D01*
G01*
X11165000Y-14100000D02*
G75*
G03*
X11165000Y-14100000I-15000J0D01*
G01*
X11165000Y-14350000D02*
G75*
G03*
X11165000Y-14350000I-15000J0D01*
G01*
X11165000Y-14600000D02*
G75*
G03*
X11165000Y-14600000I-15000J0D01*
G01*
X11165000Y-15100000D02*
G75*
G03*
X11165000Y-15100000I-15000J0D01*
G01*
X11165000Y-16850000D02*
G75*
G03*
X11165000Y-16850000I-15000J0D01*
G01*
X11230000Y-10482500D02*
G75*
G03*
X11230000Y-10482500I-15000J0D01*
G01*
X11255000Y-9690000D02*
G75*
G03*
X11255000Y-9690000I-15000J0D01*
G01*
X11326000Y-15648000D02*
G75*
G03*
X11326000Y-15648000I-15000J0D01*
G01*
X11337000Y-3650000D02*
G75*
G03*
X11337000Y-3650000I-15000J0D01*
G01*
X11355000Y-11657000D02*
G75*
G03*
X11355000Y-11657000I-15000J0D01*
G01*
X11356000Y-7637000D02*
G75*
G03*
X11356000Y-7637000I-15000J0D01*
G01*
X11374838Y-9650000D02*
G75*
G03*
X11374838Y-9650000I-15000J0D01*
G01*
X11399000Y-11274000D02*
G75*
G03*
X11399000Y-11274000I-15000J0D01*
G01*
X11415000Y-4850000D02*
G75*
G03*
X11415000Y-4850000I-15000J0D01*
G01*
X11415000Y-5100000D02*
G75*
G03*
X11415000Y-5100000I-15000J0D01*
G01*
X11415000Y-9850000D02*
G75*
G03*
X11415000Y-9850000I-15000J0D01*
G01*
X11415000Y-10100000D02*
G75*
G03*
X11415000Y-10100000I-15000J0D01*
G01*
X11415000Y-13600000D02*
G75*
G03*
X11415000Y-13600000I-15000J0D01*
G01*
X11415000Y-13850000D02*
G75*
G03*
X11415000Y-13850000I-15000J0D01*
G01*
X11415000Y-14100000D02*
G75*
G03*
X11415000Y-14100000I-15000J0D01*
G01*
X11415000Y-14350000D02*
G75*
G03*
X11415000Y-14350000I-15000J0D01*
G01*
X11415000Y-14600000D02*
G75*
G03*
X11415000Y-14600000I-15000J0D01*
G01*
X11415000Y-15100000D02*
G75*
G03*
X11415000Y-15100000I-15000J0D01*
G01*
X11415000Y-16850000D02*
G75*
G03*
X11415000Y-16850000I-15000J0D01*
G01*
X11425000Y-7234000D02*
G75*
G03*
X11425000Y-7234000I-15000J0D01*
G01*
X11444788Y-9579795D02*
G75*
G03*
X11444788Y-9579795I-15000J0D01*
G01*
X11535000Y-11295050D02*
G75*
G03*
X11535000Y-11295050I-15000J0D01*
G01*
X11567500Y-10710050D02*
G75*
G03*
X11567500Y-10710050I-15000J0D01*
G01*
X11595000Y-9215000D02*
G75*
G03*
X11595000Y-9215000I-15000J0D01*
G01*
X11659504Y-15056652D02*
G75*
G03*
X11659504Y-15056652I-15000J0D01*
G01*
X11665000Y-4600000D02*
G75*
G03*
X11665000Y-4600000I-15000J0D01*
G01*
X11665000Y-4850000D02*
G75*
G03*
X11665000Y-4850000I-15000J0D01*
G01*
X11665000Y-6850000D02*
G75*
G03*
X11665000Y-6850000I-15000J0D01*
G01*
X11665000Y-13100000D02*
G75*
G03*
X11665000Y-13100000I-15000J0D01*
G01*
X11665000Y-13600000D02*
G75*
G03*
X11665000Y-13600000I-15000J0D01*
G01*
X11665000Y-13850000D02*
G75*
G03*
X11665000Y-13850000I-15000J0D01*
G01*
X11665000Y-14100000D02*
G75*
G03*
X11665000Y-14100000I-15000J0D01*
G01*
X11665000Y-14350000D02*
G75*
G03*
X11665000Y-14350000I-15000J0D01*
G01*
X11665000Y-14600000D02*
G75*
G03*
X11665000Y-14600000I-15000J0D01*
G01*
X11665000Y-16600000D02*
G75*
G03*
X11665000Y-16600000I-15000J0D01*
G01*
X11665000Y-16850000D02*
G75*
G03*
X11665000Y-16850000I-15000J0D01*
G01*
X11702000Y-15216000D02*
G75*
G03*
X11702000Y-15216000I-15000J0D01*
G01*
X11705000Y-10930000D02*
G75*
G03*
X11705000Y-10930000I-15000J0D01*
G01*
X11733000Y-15652000D02*
G75*
G03*
X11733000Y-15652000I-15000J0D01*
G01*
X11735000Y-8130000D02*
G75*
G03*
X11735000Y-8130000I-15000J0D01*
G01*
X11735000Y-8340000D02*
G75*
G03*
X11735000Y-8340000I-15000J0D01*
G01*
X11737000Y-3648000D02*
G75*
G03*
X11737000Y-3648000I-15000J0D01*
G01*
X11744000Y-11673000D02*
G75*
G03*
X11744000Y-11673000I-15000J0D01*
G01*
X11748000Y-7652000D02*
G75*
G03*
X11748000Y-7652000I-15000J0D01*
G01*
X11783750Y-11218750D02*
G75*
G03*
X11783750Y-11218750I-15000J0D01*
G01*
X11792500Y-10527500D02*
G75*
G03*
X11792500Y-10527500I-15000J0D01*
G01*
X11842500Y-10397500D02*
G75*
G03*
X11842500Y-10397500I-15000J0D01*
G01*
X11877500Y-7150000D02*
G75*
G03*
X11877500Y-7150000I-15000J0D01*
G01*
X11915000Y-3602000D02*
G75*
G03*
X11915000Y-3602000I-15000J0D01*
G01*
X11915000Y-3850000D02*
G75*
G03*
X11915000Y-3850000I-15000J0D01*
G01*
X11915000Y-5600000D02*
G75*
G03*
X11915000Y-5600000I-15000J0D01*
G01*
X11915000Y-5850000D02*
G75*
G03*
X11915000Y-5850000I-15000J0D01*
G01*
X11915000Y-8850000D02*
G75*
G03*
X11915000Y-8850000I-15000J0D01*
G01*
X11915000Y-9100000D02*
G75*
G03*
X11915000Y-9100000I-15000J0D01*
G01*
X11915000Y-12850000D02*
G75*
G03*
X11915000Y-12850000I-15000J0D01*
G01*
X11915000Y-13100000D02*
G75*
G03*
X11915000Y-13100000I-15000J0D01*
G01*
X11915000Y-13600000D02*
G75*
G03*
X11915000Y-13600000I-15000J0D01*
G01*
X11915000Y-13850000D02*
G75*
G03*
X11915000Y-13850000I-15000J0D01*
G01*
X11915000Y-14600000D02*
G75*
G03*
X11915000Y-14600000I-15000J0D01*
G01*
X11915000Y-15100000D02*
G75*
G03*
X11915000Y-15100000I-15000J0D01*
G01*
X11915000Y-15600000D02*
G75*
G03*
X11915000Y-15600000I-15000J0D01*
G01*
X11915000Y-15850000D02*
G75*
G03*
X11915000Y-15850000I-15000J0D01*
G01*
X11915000Y-16100000D02*
G75*
G03*
X11915000Y-16100000I-15000J0D01*
G01*
X11915000Y-16350000D02*
G75*
G03*
X11915000Y-16350000I-15000J0D01*
G01*
X11915000Y-16600000D02*
G75*
G03*
X11915000Y-16600000I-15000J0D01*
G01*
X11915000Y-16850000D02*
G75*
G03*
X11915000Y-16850000I-15000J0D01*
G01*
X12047682Y-10592318D02*
G75*
G03*
X12047682Y-10592318I-15000J0D01*
G01*
X12055000Y-10410000D02*
G75*
G03*
X12055000Y-10410000I-15000J0D01*
G01*
X12073250Y-11875750D02*
G75*
G03*
X12073250Y-11875750I-15000J0D01*
G01*
X12120000Y-11704000D02*
G75*
G03*
X12120000Y-11704000I-15000J0D01*
G01*
X12145000Y-10240000D02*
G75*
G03*
X12145000Y-10240000I-15000J0D01*
G01*
X12165000Y-3600000D02*
G75*
G03*
X12165000Y-3600000I-15000J0D01*
G01*
X12165000Y-4350000D02*
G75*
G03*
X12165000Y-4350000I-15000J0D01*
G01*
X12165000Y-4600000D02*
G75*
G03*
X12165000Y-4600000I-15000J0D01*
G01*
X12165000Y-4850000D02*
G75*
G03*
X12165000Y-4850000I-15000J0D01*
G01*
X12165000Y-5600000D02*
G75*
G03*
X12165000Y-5600000I-15000J0D01*
G01*
X12165000Y-5850000D02*
G75*
G03*
X12165000Y-5850000I-15000J0D01*
G01*
X12165000Y-8850000D02*
G75*
G03*
X12165000Y-8850000I-15000J0D01*
G01*
X12165000Y-9100000D02*
G75*
G03*
X12165000Y-9100000I-15000J0D01*
G01*
X12165000Y-12100000D02*
G75*
G03*
X12165000Y-12100000I-15000J0D01*
G01*
X12165000Y-12350000D02*
G75*
G03*
X12165000Y-12350000I-15000J0D01*
G01*
X12165000Y-12600000D02*
G75*
G03*
X12165000Y-12600000I-15000J0D01*
G01*
X12165000Y-12850000D02*
G75*
G03*
X12165000Y-12850000I-15000J0D01*
G01*
X12165000Y-13100000D02*
G75*
G03*
X12165000Y-13100000I-15000J0D01*
G01*
X12165000Y-13600000D02*
G75*
G03*
X12165000Y-13600000I-15000J0D01*
G01*
X12165000Y-13850000D02*
G75*
G03*
X12165000Y-13850000I-15000J0D01*
G01*
X12165000Y-14100000D02*
G75*
G03*
X12165000Y-14100000I-15000J0D01*
G01*
X12165000Y-14600000D02*
G75*
G03*
X12165000Y-14600000I-15000J0D01*
G01*
X12165000Y-15100000D02*
G75*
G03*
X12165000Y-15100000I-15000J0D01*
G01*
X12165000Y-15600000D02*
G75*
G03*
X12165000Y-15600000I-15000J0D01*
G01*
X12165000Y-15850000D02*
G75*
G03*
X12165000Y-15850000I-15000J0D01*
G01*
X12165000Y-16100000D02*
G75*
G03*
X12165000Y-16100000I-15000J0D01*
G01*
X12165000Y-16350000D02*
G75*
G03*
X12165000Y-16350000I-15000J0D01*
G01*
X12165000Y-16600000D02*
G75*
G03*
X12165000Y-16600000I-15000J0D01*
G01*
X12165000Y-16850000D02*
G75*
G03*
X12165000Y-16850000I-15000J0D01*
G01*
X12225000Y-10890000D02*
G75*
G03*
X12225000Y-10890000I-15000J0D01*
G01*
X12225000Y-11210000D02*
G75*
G03*
X12225000Y-11210000I-15000J0D01*
G01*
X12250962Y-11905962D02*
G75*
G03*
X12250962Y-11905962I-15000J0D01*
G01*
X12415000Y-3600000D02*
G75*
G03*
X12415000Y-3600000I-15000J0D01*
G01*
X12415000Y-3850000D02*
G75*
G03*
X12415000Y-3850000I-15000J0D01*
G01*
X12415000Y-4100000D02*
G75*
G03*
X12415000Y-4100000I-15000J0D01*
G01*
X12415000Y-4350000D02*
G75*
G03*
X12415000Y-4350000I-15000J0D01*
G01*
X12415000Y-4600000D02*
G75*
G03*
X12415000Y-4600000I-15000J0D01*
G01*
X12415000Y-4850000D02*
G75*
G03*
X12415000Y-4850000I-15000J0D01*
G01*
X12415000Y-5600000D02*
G75*
G03*
X12415000Y-5600000I-15000J0D01*
G01*
X12415000Y-12100000D02*
G75*
G03*
X12415000Y-12100000I-15000J0D01*
G01*
X12415000Y-12350000D02*
G75*
G03*
X12415000Y-12350000I-15000J0D01*
G01*
X12415000Y-12600000D02*
G75*
G03*
X12415000Y-12600000I-15000J0D01*
G01*
X12415000Y-12850000D02*
G75*
G03*
X12415000Y-12850000I-15000J0D01*
G01*
X12415000Y-13100000D02*
G75*
G03*
X12415000Y-13100000I-15000J0D01*
G01*
X12415000Y-13350000D02*
G75*
G03*
X12415000Y-13350000I-15000J0D01*
G01*
X12415000Y-14600000D02*
G75*
G03*
X12415000Y-14600000I-15000J0D01*
G01*
X12415000Y-14850000D02*
G75*
G03*
X12415000Y-14850000I-15000J0D01*
G01*
X12415000Y-15100000D02*
G75*
G03*
X12415000Y-15100000I-15000J0D01*
G01*
X12415000Y-15600000D02*
G75*
G03*
X12415000Y-15600000I-15000J0D01*
G01*
X12415000Y-15850000D02*
G75*
G03*
X12415000Y-15850000I-15000J0D01*
G01*
X12415000Y-16100000D02*
G75*
G03*
X12415000Y-16100000I-15000J0D01*
G01*
X12415000Y-16350000D02*
G75*
G03*
X12415000Y-16350000I-15000J0D01*
G01*
X12415000Y-16600000D02*
G75*
G03*
X12415000Y-16600000I-15000J0D01*
G01*
X12415000Y-16850000D02*
G75*
G03*
X12415000Y-16850000I-15000J0D01*
G01*
X12455000Y-14277500D02*
G75*
G03*
X12455000Y-14277500I-15000J0D01*
G01*
X12474121Y-9019955D02*
G75*
G03*
X12474121Y-9019955I-15000J0D01*
G01*
X12565000Y-14277500D02*
G75*
G03*
X12565000Y-14277500I-15000J0D01*
G01*
X12569549Y-9022066D02*
G75*
G03*
X12569549Y-9022066I-15000J0D01*
G01*
X12580000Y-10540000D02*
G75*
G03*
X12580000Y-10540000I-15000J0D01*
G01*
X12594471Y-8934968D02*
G75*
G03*
X12594471Y-8934968I-15000J0D01*
G01*
X12595000Y-13882500D02*
G75*
G03*
X12595000Y-13882500I-15000J0D01*
G01*
X12659498Y-9022578D02*
G75*
G03*
X12659498Y-9022578I-15000J0D01*
G01*
X12665000Y-3600000D02*
G75*
G03*
X12665000Y-3600000I-15000J0D01*
G01*
X12665000Y-3850000D02*
G75*
G03*
X12665000Y-3850000I-15000J0D01*
G01*
X12665000Y-4100000D02*
G75*
G03*
X12665000Y-4100000I-15000J0D01*
G01*
X12665000Y-4350000D02*
G75*
G03*
X12665000Y-4350000I-15000J0D01*
G01*
X12665000Y-4600000D02*
G75*
G03*
X12665000Y-4600000I-15000J0D01*
G01*
X12665000Y-4850000D02*
G75*
G03*
X12665000Y-4850000I-15000J0D01*
G01*
X12665000Y-5100000D02*
G75*
G03*
X12665000Y-5100000I-15000J0D01*
G01*
X12665000Y-5350000D02*
G75*
G03*
X12665000Y-5350000I-15000J0D01*
G01*
X12665000Y-5850000D02*
G75*
G03*
X12665000Y-5850000I-15000J0D01*
G01*
X12665000Y-9600000D02*
G75*
G03*
X12665000Y-9600000I-15000J0D01*
G01*
X12665000Y-12100000D02*
G75*
G03*
X12665000Y-12100000I-15000J0D01*
G01*
X12665000Y-12350000D02*
G75*
G03*
X12665000Y-12350000I-15000J0D01*
G01*
X12665000Y-12600000D02*
G75*
G03*
X12665000Y-12600000I-15000J0D01*
G01*
X12665000Y-12850000D02*
G75*
G03*
X12665000Y-12850000I-15000J0D01*
G01*
X12665000Y-13100000D02*
G75*
G03*
X12665000Y-13100000I-15000J0D01*
G01*
X12665000Y-13350000D02*
G75*
G03*
X12665000Y-13350000I-15000J0D01*
G01*
X12665000Y-14600000D02*
G75*
G03*
X12665000Y-14600000I-15000J0D01*
G01*
X12665000Y-14850000D02*
G75*
G03*
X12665000Y-14850000I-15000J0D01*
G01*
X12665000Y-15100000D02*
G75*
G03*
X12665000Y-15100000I-15000J0D01*
G01*
X12665000Y-15600000D02*
G75*
G03*
X12665000Y-15600000I-15000J0D01*
G01*
X12665000Y-15850000D02*
G75*
G03*
X12665000Y-15850000I-15000J0D01*
G01*
X12665000Y-16100000D02*
G75*
G03*
X12665000Y-16100000I-15000J0D01*
G01*
X12665000Y-16600000D02*
G75*
G03*
X12665000Y-16600000I-15000J0D01*
G01*
X12665000Y-16850000D02*
G75*
G03*
X12665000Y-16850000I-15000J0D01*
G01*
X12685000Y-14310000D02*
G75*
G03*
X12685000Y-14310000I-15000J0D01*
G01*
X12750050Y-9031351D02*
G75*
G03*
X12750050Y-9031351I-15000J0D01*
G01*
X12845000Y-14310000D02*
G75*
G03*
X12845000Y-14310000I-15000J0D01*
G01*
X12915000Y-3600000D02*
G75*
G03*
X12915000Y-3600000I-15000J0D01*
G01*
X12915000Y-3850000D02*
G75*
G03*
X12915000Y-3850000I-15000J0D01*
G01*
X12915000Y-4100000D02*
G75*
G03*
X12915000Y-4100000I-15000J0D01*
G01*
X12915000Y-4350000D02*
G75*
G03*
X12915000Y-4350000I-15000J0D01*
G01*
X12915000Y-4600000D02*
G75*
G03*
X12915000Y-4600000I-15000J0D01*
G01*
X12915000Y-4850000D02*
G75*
G03*
X12915000Y-4850000I-15000J0D01*
G01*
X12915000Y-5100000D02*
G75*
G03*
X12915000Y-5100000I-15000J0D01*
G01*
X12915000Y-5350000D02*
G75*
G03*
X12915000Y-5350000I-15000J0D01*
G01*
X12915000Y-5850000D02*
G75*
G03*
X12915000Y-5850000I-15000J0D01*
G01*
X12915000Y-9600000D02*
G75*
G03*
X12915000Y-9600000I-15000J0D01*
G01*
X12915000Y-11600000D02*
G75*
G03*
X12915000Y-11600000I-15000J0D01*
G01*
X12915000Y-12100000D02*
G75*
G03*
X12915000Y-12100000I-15000J0D01*
G01*
X12915000Y-12350000D02*
G75*
G03*
X12915000Y-12350000I-15000J0D01*
G01*
X12915000Y-12600000D02*
G75*
G03*
X12915000Y-12600000I-15000J0D01*
G01*
X12915000Y-12850000D02*
G75*
G03*
X12915000Y-12850000I-15000J0D01*
G01*
X12915000Y-13100000D02*
G75*
G03*
X12915000Y-13100000I-15000J0D01*
G01*
X12915000Y-13350000D02*
G75*
G03*
X12915000Y-13350000I-15000J0D01*
G01*
X12915000Y-14600000D02*
G75*
G03*
X12915000Y-14600000I-15000J0D01*
G01*
X12915000Y-14850000D02*
G75*
G03*
X12915000Y-14850000I-15000J0D01*
G01*
X12915000Y-15100000D02*
G75*
G03*
X12915000Y-15100000I-15000J0D01*
G01*
X12915000Y-15600000D02*
G75*
G03*
X12915000Y-15600000I-15000J0D01*
G01*
X12915000Y-15850000D02*
G75*
G03*
X12915000Y-15850000I-15000J0D01*
G01*
X12915000Y-16100000D02*
G75*
G03*
X12915000Y-16100000I-15000J0D01*
G01*
X12915000Y-16350000D02*
G75*
G03*
X12915000Y-16350000I-15000J0D01*
G01*
X12915000Y-16600000D02*
G75*
G03*
X12915000Y-16600000I-15000J0D01*
G01*
X12915000Y-16850000D02*
G75*
G03*
X12915000Y-16850000I-15000J0D01*
G01*
X12994400Y-11233000D02*
G75*
G03*
X12994400Y-11233000I-15000J0D01*
G01*
X13000000Y-14312500D02*
G75*
G03*
X13000000Y-14312500I-15000J0D01*
G01*
X13045000Y-7150000D02*
G75*
G03*
X13045000Y-7150000I-15000J0D01*
G01*
X13127500Y-14470000D02*
G75*
G03*
X13127500Y-14470000I-15000J0D01*
G01*
X13165000Y-3600000D02*
G75*
G03*
X13165000Y-3600000I-15000J0D01*
G01*
X13165000Y-3850000D02*
G75*
G03*
X13165000Y-3850000I-15000J0D01*
G01*
X13165000Y-4100000D02*
G75*
G03*
X13165000Y-4100000I-15000J0D01*
G01*
X13165000Y-4350000D02*
G75*
G03*
X13165000Y-4350000I-15000J0D01*
G01*
X13165000Y-4600000D02*
G75*
G03*
X13165000Y-4600000I-15000J0D01*
G01*
X13165000Y-4850000D02*
G75*
G03*
X13165000Y-4850000I-15000J0D01*
G01*
X13165000Y-5100000D02*
G75*
G03*
X13165000Y-5100000I-15000J0D01*
G01*
X13165000Y-9600000D02*
G75*
G03*
X13165000Y-9600000I-15000J0D01*
G01*
X13165000Y-11100000D02*
G75*
G03*
X13165000Y-11100000I-15000J0D01*
G01*
X13165000Y-12100000D02*
G75*
G03*
X13165000Y-12100000I-15000J0D01*
G01*
X13165000Y-12350000D02*
G75*
G03*
X13165000Y-12350000I-15000J0D01*
G01*
X13165000Y-12600000D02*
G75*
G03*
X13165000Y-12600000I-15000J0D01*
G01*
X13165000Y-12850000D02*
G75*
G03*
X13165000Y-12850000I-15000J0D01*
G01*
X13165000Y-13100000D02*
G75*
G03*
X13165000Y-13100000I-15000J0D01*
G01*
X13165000Y-13350000D02*
G75*
G03*
X13165000Y-13350000I-15000J0D01*
G01*
X13165000Y-14100000D02*
G75*
G03*
X13165000Y-14100000I-15000J0D01*
G01*
X13165000Y-14600000D02*
G75*
G03*
X13165000Y-14600000I-15000J0D01*
G01*
X13165000Y-14850000D02*
G75*
G03*
X13165000Y-14850000I-15000J0D01*
G01*
X13165000Y-15100000D02*
G75*
G03*
X13165000Y-15100000I-15000J0D01*
G01*
X13165000Y-15600000D02*
G75*
G03*
X13165000Y-15600000I-15000J0D01*
G01*
X13165000Y-15850000D02*
G75*
G03*
X13165000Y-15850000I-15000J0D01*
G01*
X13165000Y-16100000D02*
G75*
G03*
X13165000Y-16100000I-15000J0D01*
G01*
X13165000Y-16350000D02*
G75*
G03*
X13165000Y-16350000I-15000J0D01*
G01*
X13165000Y-16600000D02*
G75*
G03*
X13165000Y-16600000I-15000J0D01*
G01*
X13165000Y-16850000D02*
G75*
G03*
X13165000Y-16850000I-15000J0D01*
G01*
X13195000Y-13560000D02*
G75*
G03*
X13195000Y-13560000I-15000J0D01*
G01*
X13225000Y-14470000D02*
G75*
G03*
X13225000Y-14470000I-15000J0D01*
G01*
X13245000Y-13725000D02*
G75*
G03*
X13245000Y-13725000I-15000J0D01*
G01*
X13295000Y-8330000D02*
G75*
G03*
X13295000Y-8330000I-15000J0D01*
G01*
X13295000Y-8650000D02*
G75*
G03*
X13295000Y-8650000I-15000J0D01*
G01*
X13317500Y-14470000D02*
G75*
G03*
X13317500Y-14470000I-15000J0D01*
G01*
X13415000Y-4850000D02*
G75*
G03*
X13415000Y-4850000I-15000J0D01*
G01*
X13415000Y-5100000D02*
G75*
G03*
X13415000Y-5100000I-15000J0D01*
G01*
X13415000Y-11100000D02*
G75*
G03*
X13415000Y-11100000I-15000J0D01*
G01*
X13415000Y-12850000D02*
G75*
G03*
X13415000Y-12850000I-15000J0D01*
G01*
X13415000Y-13100000D02*
G75*
G03*
X13415000Y-13100000I-15000J0D01*
G01*
X13415000Y-13350000D02*
G75*
G03*
X13415000Y-13350000I-15000J0D01*
G01*
X13415000Y-13600000D02*
G75*
G03*
X13415000Y-13600000I-15000J0D01*
G01*
X13415000Y-14100000D02*
G75*
G03*
X13415000Y-14100000I-15000J0D01*
G01*
X13415000Y-14350000D02*
G75*
G03*
X13415000Y-14350000I-15000J0D01*
G01*
X13415000Y-14600000D02*
G75*
G03*
X13415000Y-14600000I-15000J0D01*
G01*
X13415000Y-14850000D02*
G75*
G03*
X13415000Y-14850000I-15000J0D01*
G01*
X13415000Y-15100000D02*
G75*
G03*
X13415000Y-15100000I-15000J0D01*
G01*
X13415000Y-16850000D02*
G75*
G03*
X13415000Y-16850000I-15000J0D01*
G01*
X13447500Y-8470000D02*
G75*
G03*
X13447500Y-8470000I-15000J0D01*
G01*
X13450000Y-12470000D02*
G75*
G03*
X13450000Y-12470000I-15000J0D01*
G01*
X13455000Y-16475000D02*
G75*
G03*
X13455000Y-16475000I-15000J0D01*
G01*
X13465000Y-4472500D02*
G75*
G03*
X13465000Y-4472500I-15000J0D01*
G01*
X13665000Y-4850000D02*
G75*
G03*
X13665000Y-4850000I-15000J0D01*
G01*
X13665000Y-5100000D02*
G75*
G03*
X13665000Y-5100000I-15000J0D01*
G01*
X13665000Y-10917500D02*
G75*
G03*
X13665000Y-10917500I-15000J0D01*
G01*
X13665000Y-11100000D02*
G75*
G03*
X13665000Y-11100000I-15000J0D01*
G01*
X13665000Y-12850000D02*
G75*
G03*
X13665000Y-12850000I-15000J0D01*
G01*
X13665000Y-13100000D02*
G75*
G03*
X13665000Y-13100000I-15000J0D01*
G01*
X13665000Y-13350000D02*
G75*
G03*
X13665000Y-13350000I-15000J0D01*
G01*
X13665000Y-13600000D02*
G75*
G03*
X13665000Y-13600000I-15000J0D01*
G01*
X13665000Y-14350000D02*
G75*
G03*
X13665000Y-14350000I-15000J0D01*
G01*
X13665000Y-14600000D02*
G75*
G03*
X13665000Y-14600000I-15000J0D01*
G01*
X13665000Y-14850000D02*
G75*
G03*
X13665000Y-14850000I-15000J0D01*
G01*
X13665000Y-15100000D02*
G75*
G03*
X13665000Y-15100000I-15000J0D01*
G01*
X13665000Y-16850000D02*
G75*
G03*
X13665000Y-16850000I-15000J0D01*
G01*
X13670000Y-8355000D02*
G75*
G03*
X13670000Y-8355000I-15000J0D01*
G01*
X13690000Y-12320000D02*
G75*
G03*
X13690000Y-12320000I-15000J0D01*
G01*
X13695000Y-16340000D02*
G75*
G03*
X13695000Y-16340000I-15000J0D01*
G01*
X13700000Y-4335000D02*
G75*
G03*
X13700000Y-4335000I-15000J0D01*
G01*
X13789000Y-10328000D02*
G75*
G03*
X13789000Y-10328000I-15000J0D01*
G01*
X13915000Y-4850000D02*
G75*
G03*
X13915000Y-4850000I-15000J0D01*
G01*
X13915000Y-5100000D02*
G75*
G03*
X13915000Y-5100000I-15000J0D01*
G01*
X13915000Y-5350000D02*
G75*
G03*
X13915000Y-5350000I-15000J0D01*
G01*
X13915000Y-5600000D02*
G75*
G03*
X13915000Y-5600000I-15000J0D01*
G01*
X13915000Y-9100000D02*
G75*
G03*
X13915000Y-9100000I-15000J0D01*
G01*
X13915000Y-9350000D02*
G75*
G03*
X13915000Y-9350000I-15000J0D01*
G01*
X13915000Y-10350000D02*
G75*
G03*
X13915000Y-10350000I-15000J0D01*
G01*
X13915000Y-11100000D02*
G75*
G03*
X13915000Y-11100000I-15000J0D01*
G01*
X13915000Y-12850000D02*
G75*
G03*
X13915000Y-12850000I-15000J0D01*
G01*
X13915000Y-13100000D02*
G75*
G03*
X13915000Y-13100000I-15000J0D01*
G01*
X13915000Y-13350000D02*
G75*
G03*
X13915000Y-13350000I-15000J0D01*
G01*
X13915000Y-13600000D02*
G75*
G03*
X13915000Y-13600000I-15000J0D01*
G01*
X13915000Y-14100000D02*
G75*
G03*
X13915000Y-14100000I-15000J0D01*
G01*
X13915000Y-14350000D02*
G75*
G03*
X13915000Y-14350000I-15000J0D01*
G01*
X13915000Y-14600000D02*
G75*
G03*
X13915000Y-14600000I-15000J0D01*
G01*
X13915000Y-14850000D02*
G75*
G03*
X13915000Y-14850000I-15000J0D01*
G01*
X13915000Y-15100000D02*
G75*
G03*
X13915000Y-15100000I-15000J0D01*
G01*
X13915000Y-16850000D02*
G75*
G03*
X13915000Y-16850000I-15000J0D01*
G01*
X14025000Y-8710000D02*
G75*
G03*
X14025000Y-8710000I-15000J0D01*
G01*
X14165000Y-4850000D02*
G75*
G03*
X14165000Y-4850000I-15000J0D01*
G01*
X14165000Y-5100000D02*
G75*
G03*
X14165000Y-5100000I-15000J0D01*
G01*
X14165000Y-5350000D02*
G75*
G03*
X14165000Y-5350000I-15000J0D01*
G01*
X14165000Y-7100000D02*
G75*
G03*
X14165000Y-7100000I-15000J0D01*
G01*
X14165000Y-9100000D02*
G75*
G03*
X14165000Y-9100000I-15000J0D01*
G01*
X14165000Y-9350000D02*
G75*
G03*
X14165000Y-9350000I-15000J0D01*
G01*
X14165000Y-12850000D02*
G75*
G03*
X14165000Y-12850000I-15000J0D01*
G01*
X14165000Y-13100000D02*
G75*
G03*
X14165000Y-13100000I-15000J0D01*
G01*
X14165000Y-13350000D02*
G75*
G03*
X14165000Y-13350000I-15000J0D01*
G01*
X14165000Y-13600000D02*
G75*
G03*
X14165000Y-13600000I-15000J0D01*
G01*
X14165000Y-14350000D02*
G75*
G03*
X14165000Y-14350000I-15000J0D01*
G01*
X14165000Y-14600000D02*
G75*
G03*
X14165000Y-14600000I-15000J0D01*
G01*
X14165000Y-14850000D02*
G75*
G03*
X14165000Y-14850000I-15000J0D01*
G01*
X14165000Y-16850000D02*
G75*
G03*
X14165000Y-16850000I-15000J0D01*
G01*
X14275000Y-10680000D02*
G75*
G03*
X14275000Y-10680000I-15000J0D01*
G01*
X14296000Y-11658000D02*
G75*
G03*
X14296000Y-11658000I-15000J0D01*
G01*
X14330000Y-15662000D02*
G75*
G03*
X14330000Y-15662000I-15000J0D01*
G01*
X14350000Y-7650000D02*
G75*
G03*
X14350000Y-7650000I-15000J0D01*
G01*
X14415000Y-4850000D02*
G75*
G03*
X14415000Y-4850000I-15000J0D01*
G01*
X14415000Y-5100000D02*
G75*
G03*
X14415000Y-5100000I-15000J0D01*
G01*
X14415000Y-7100000D02*
G75*
G03*
X14415000Y-7100000I-15000J0D01*
G01*
X14415000Y-10600000D02*
G75*
G03*
X14415000Y-10600000I-15000J0D01*
G01*
X14415000Y-11100000D02*
G75*
G03*
X14415000Y-11100000I-15000J0D01*
G01*
X14415000Y-14100000D02*
G75*
G03*
X14415000Y-14100000I-15000J0D01*
G01*
X14415000Y-14850000D02*
G75*
G03*
X14415000Y-14850000I-15000J0D01*
G01*
X14415000Y-15100000D02*
G75*
G03*
X14415000Y-15100000I-15000J0D01*
G01*
X14415000Y-16850000D02*
G75*
G03*
X14415000Y-16850000I-15000J0D01*
G01*
X14545000Y-6980000D02*
G75*
G03*
X14545000Y-6980000I-15000J0D01*
G01*
X14665000Y-4600000D02*
G75*
G03*
X14665000Y-4600000I-15000J0D01*
G01*
X14665000Y-4850000D02*
G75*
G03*
X14665000Y-4850000I-15000J0D01*
G01*
X14665000Y-5100000D02*
G75*
G03*
X14665000Y-5100000I-15000J0D01*
G01*
X14665000Y-5350000D02*
G75*
G03*
X14665000Y-5350000I-15000J0D01*
G01*
X14665000Y-5850000D02*
G75*
G03*
X14665000Y-5850000I-15000J0D01*
G01*
X14665000Y-6850000D02*
G75*
G03*
X14665000Y-6850000I-15000J0D01*
G01*
X14665000Y-7100000D02*
G75*
G03*
X14665000Y-7100000I-15000J0D01*
G01*
X14665000Y-14100000D02*
G75*
G03*
X14665000Y-14100000I-15000J0D01*
G01*
X14665000Y-14350000D02*
G75*
G03*
X14665000Y-14350000I-15000J0D01*
G01*
X14665000Y-14600000D02*
G75*
G03*
X14665000Y-14600000I-15000J0D01*
G01*
X14665000Y-14850000D02*
G75*
G03*
X14665000Y-14850000I-15000J0D01*
G01*
X14665000Y-15100000D02*
G75*
G03*
X14665000Y-15100000I-15000J0D01*
G01*
X14665000Y-16600000D02*
G75*
G03*
X14665000Y-16600000I-15000J0D01*
G01*
X14665000Y-16850000D02*
G75*
G03*
X14665000Y-16850000I-15000J0D01*
G01*
X14700000Y-7221000D02*
G75*
G03*
X14700000Y-7221000I-15000J0D01*
G01*
X14706000Y-11251000D02*
G75*
G03*
X14706000Y-11251000I-15000J0D01*
G01*
X14707000Y-7657000D02*
G75*
G03*
X14707000Y-7657000I-15000J0D01*
G01*
X14711000Y-11656000D02*
G75*
G03*
X14711000Y-11656000I-15000J0D01*
G01*
X14715000Y-8120000D02*
G75*
G03*
X14715000Y-8120000I-15000J0D01*
G01*
X14715000Y-8600000D02*
G75*
G03*
X14715000Y-8600000I-15000J0D01*
G01*
X14720000Y-8855000D02*
G75*
G03*
X14720000Y-8855000I-15000J0D01*
G01*
X14725000Y-3643000D02*
G75*
G03*
X14725000Y-3643000I-15000J0D01*
G01*
X14731000Y-15240000D02*
G75*
G03*
X14731000Y-15240000I-15000J0D01*
G01*
X14740000Y-15656000D02*
G75*
G03*
X14740000Y-15656000I-15000J0D01*
G01*
D14*
X7140000Y-10040000D02*
X7140000Y-10080000D01*
X7120000Y-10060000D02*
X7160000Y-10060000D01*
X7280000Y-11630000D02*
X7280000Y-11670000D01*
X7260000Y-11650000D02*
X7300000Y-11650000D01*
X7285000Y-3605000D02*
X7285000Y-3645000D01*
X7265000Y-3625000D02*
X7305000Y-3625000D01*
X7285000Y-15615000D02*
X7285000Y-15655000D01*
X7265000Y-15635000D02*
X7305000Y-15635000D01*
X7292500Y-7607500D02*
X7292500Y-7647500D01*
X7272500Y-7627500D02*
X7312500Y-7627500D01*
X7400000Y-5830000D02*
X7400000Y-5870000D01*
X7380000Y-5850000D02*
X7420000Y-5850000D01*
X7400000Y-6080000D02*
X7400000Y-6120000D01*
X7380000Y-6100000D02*
X7420000Y-6100000D01*
X7400000Y-6330000D02*
X7400000Y-6370000D01*
X7380000Y-6350000D02*
X7420000Y-6350000D01*
X7400000Y-6580000D02*
X7400000Y-6620000D01*
X7380000Y-6600000D02*
X7420000Y-6600000D01*
X7510000Y-7230000D02*
X7510000Y-7270000D01*
X7490000Y-7250000D02*
X7530000Y-7250000D01*
X7525000Y-8955000D02*
X7525000Y-8995000D01*
X7505000Y-8975000D02*
X7545000Y-8975000D01*
X7525000Y-9455000D02*
X7525000Y-9495000D01*
X7505000Y-9475000D02*
X7545000Y-9475000D01*
X7560000Y-11190000D02*
X7560000Y-11230000D01*
X7540000Y-11210000D02*
X7580000Y-11210000D01*
X7562500Y-3230000D02*
X7562500Y-3270000D01*
X7542500Y-3250000D02*
X7582500Y-3250000D01*
X7570000Y-15200000D02*
X7570000Y-15240000D01*
X7550000Y-15220000D02*
X7590000Y-15220000D01*
X7680000Y-11200000D02*
X7680000Y-11240000D01*
X7660000Y-11220000D02*
X7700000Y-11220000D01*
X7700000Y-3200000D02*
X7700000Y-3240000D01*
X7680000Y-3220000D02*
X7720000Y-3220000D01*
X7700000Y-7200000D02*
X7700000Y-7240000D01*
X7680000Y-7220000D02*
X7720000Y-7220000D01*
X7700000Y-15220000D02*
X7700000Y-15260000D01*
X7680000Y-15240000D02*
X7720000Y-15240000D01*
X7775000Y-8955000D02*
X7775000Y-8995000D01*
X7755000Y-8975000D02*
X7795000Y-8975000D01*
X7945000Y-3425000D02*
X7945000Y-3465000D01*
X7925000Y-3445000D02*
X7965000Y-3445000D01*
X7945000Y-7430000D02*
X7945000Y-7470000D01*
X7925000Y-7450000D02*
X7965000Y-7450000D01*
X7950000Y-11430000D02*
X7950000Y-11470000D01*
X7930000Y-11450000D02*
X7970000Y-11450000D01*
X7950000Y-15430000D02*
X7950000Y-15470000D01*
X7930000Y-15450000D02*
X7970000Y-15450000D01*
X8180000Y-3230000D02*
X8180000Y-3270000D01*
X8160000Y-3250000D02*
X8200000Y-3250000D01*
X8185000Y-7252500D02*
X8185000Y-7292500D01*
X8165000Y-7272500D02*
X8205000Y-7272500D01*
X8185000Y-11200000D02*
X8185000Y-11240000D01*
X8165000Y-11220000D02*
X8205000Y-11220000D01*
X8187500Y-15227500D02*
X8187500Y-15267500D01*
X8167500Y-15247500D02*
X8207500Y-15247500D01*
X8280000Y-13100000D02*
X8280000Y-13140000D01*
X8260000Y-13120000D02*
X8300000Y-13120000D01*
X8650000Y-13080000D02*
X8650000Y-13120000D01*
X8630000Y-13100000D02*
X8670000Y-13100000D01*
X8676000Y-7206000D02*
X8676000Y-7246000D01*
X8656000Y-7226000D02*
X8696000Y-7226000D01*
X8720000Y-8100000D02*
X8720000Y-8140000D01*
X8700000Y-8120000D02*
X8740000Y-8120000D01*
X8720000Y-11260000D02*
X8720000Y-11300000D01*
X8700000Y-11280000D02*
X8740000Y-11280000D01*
X8720000Y-12110000D02*
X8720000Y-12150000D01*
X8700000Y-12130000D02*
X8740000Y-12130000D01*
X8730000Y-16110000D02*
X8730000Y-16150000D01*
X8710000Y-16130000D02*
X8750000Y-16130000D01*
X8775000Y-4445000D02*
X8775000Y-4485000D01*
X8755000Y-4465000D02*
X8795000Y-4465000D01*
X8825000Y-11010000D02*
X8825000Y-11050000D01*
X8805000Y-11030000D02*
X8845000Y-11030000D01*
X8850000Y-11880000D02*
X8850000Y-11920000D01*
X8830000Y-11900000D02*
X8870000Y-11900000D01*
X8881000Y-11311750D02*
X8881000Y-11351750D01*
X8861000Y-11331750D02*
X8901000Y-11331750D01*
X9030000Y-10230000D02*
X9030000Y-10270000D01*
X9010000Y-10250000D02*
X9050000Y-10250000D01*
X9260000Y-14575000D02*
X9260000Y-14615000D01*
X9240000Y-14595000D02*
X9280000Y-14595000D01*
X9400000Y-7180000D02*
X9400000Y-7220000D01*
X9380000Y-7200000D02*
X9420000Y-7200000D01*
X9400000Y-7680000D02*
X9400000Y-7720000D01*
X9380000Y-7700000D02*
X9420000Y-7700000D01*
X9400000Y-11580000D02*
X9400000Y-11620000D01*
X9380000Y-11600000D02*
X9420000Y-11600000D01*
X9400000Y-11830000D02*
X9400000Y-11870000D01*
X9380000Y-11850000D02*
X9420000Y-11850000D01*
X9500000Y-9580000D02*
X9500000Y-9620000D01*
X9480000Y-9600000D02*
X9520000Y-9600000D01*
X9500000Y-10230000D02*
X9500000Y-10270000D01*
X9480000Y-10250000D02*
X9520000Y-10250000D01*
X9650000Y-7180000D02*
X9650000Y-7220000D01*
X9630000Y-7200000D02*
X9670000Y-7200000D01*
X9650000Y-7930000D02*
X9650000Y-7970000D01*
X9630000Y-7950000D02*
X9670000Y-7950000D01*
X9650000Y-8180000D02*
X9650000Y-8220000D01*
X9630000Y-8200000D02*
X9670000Y-8200000D01*
X9650000Y-8430000D02*
X9650000Y-8470000D01*
X9630000Y-8450000D02*
X9670000Y-8450000D01*
X9650000Y-11580000D02*
X9650000Y-11620000D01*
X9630000Y-11600000D02*
X9670000Y-11600000D01*
X9660000Y-9472500D02*
X9660000Y-9512500D01*
X9640000Y-9492500D02*
X9680000Y-9492500D01*
X9670000Y-9625050D02*
X9670000Y-9665050D01*
X9650000Y-9645050D02*
X9690000Y-9645050D01*
X9675000Y-10805000D02*
X9675000Y-10845000D01*
X9655000Y-10825000D02*
X9695000Y-10825000D01*
X9765000Y-3690000D02*
X9765000Y-3730000D01*
X9745000Y-3710000D02*
X9785000Y-3710000D01*
X9785000Y-10875000D02*
X9785000Y-10915000D01*
X9765000Y-10895000D02*
X9805000Y-10895000D01*
X9803750Y-9496250D02*
X9803750Y-9536250D01*
X9783750Y-9516250D02*
X9823750Y-9516250D01*
X9900000Y-7180000D02*
X9900000Y-7220000D01*
X9880000Y-7200000D02*
X9920000Y-7200000D01*
X9900000Y-7680000D02*
X9900000Y-7720000D01*
X9880000Y-7700000D02*
X9920000Y-7700000D01*
X9900000Y-7930000D02*
X9900000Y-7970000D01*
X9880000Y-7950000D02*
X9920000Y-7950000D01*
X9900000Y-8180000D02*
X9900000Y-8220000D01*
X9880000Y-8200000D02*
X9920000Y-8200000D01*
X9900000Y-8430000D02*
X9900000Y-8470000D01*
X9880000Y-8450000D02*
X9920000Y-8450000D01*
X9900000Y-11580000D02*
X9900000Y-11620000D01*
X9880000Y-11600000D02*
X9920000Y-11600000D01*
X9950000Y-9655000D02*
X9950000Y-9695000D01*
X9930000Y-9675000D02*
X9970000Y-9675000D01*
X10020000Y-10545050D02*
X10020000Y-10585050D01*
X10000000Y-10565050D02*
X10040000Y-10565050D01*
X10032002Y-10644502D02*
X10032002Y-10684502D01*
X10012002Y-10664502D02*
X10052002Y-10664502D01*
X10050000Y-8640000D02*
X10050000Y-8680000D01*
X10030000Y-8660000D02*
X10070000Y-8660000D01*
X10150000Y-7680000D02*
X10150000Y-7720000D01*
X10130000Y-7700000D02*
X10170000Y-7700000D01*
X10150000Y-7930000D02*
X10150000Y-7970000D01*
X10130000Y-7950000D02*
X10170000Y-7950000D01*
X10150000Y-11580000D02*
X10150000Y-11620000D01*
X10130000Y-11600000D02*
X10170000Y-11600000D01*
X10245000Y-10716300D02*
X10245000Y-10756300D01*
X10225000Y-10736300D02*
X10265000Y-10736300D01*
X10270000Y-8640000D02*
X10270000Y-8680000D01*
X10250000Y-8660000D02*
X10290000Y-8660000D01*
X10275000Y-3620000D02*
X10275000Y-3660000D01*
X10255000Y-3640000D02*
X10295000Y-3640000D01*
X10275000Y-15617500D02*
X10275000Y-15657500D01*
X10255000Y-15637500D02*
X10295000Y-15637500D01*
X10276000Y-14824000D02*
X10276000Y-14864000D01*
X10256000Y-14844000D02*
X10296000Y-14844000D01*
X10285000Y-7620000D02*
X10285000Y-7660000D01*
X10265000Y-7640000D02*
X10305000Y-7640000D01*
X10287500Y-11612500D02*
X10287500Y-11652500D01*
X10267500Y-11632500D02*
X10307500Y-11632500D01*
X10353000Y-14740000D02*
X10353000Y-14780000D01*
X10333000Y-14760000D02*
X10373000Y-14760000D01*
X10356256Y-10769033D02*
X10356256Y-10809033D01*
X10336256Y-10789033D02*
X10376256Y-10789033D01*
X10416949Y-14994047D02*
X10416949Y-15034047D01*
X10396949Y-15014047D02*
X10436949Y-15014047D01*
X10550000Y-15180000D02*
X10550000Y-15220000D01*
X10530000Y-15200000D02*
X10570000Y-15200000D01*
X10660000Y-15220000D02*
X10660000Y-15260000D01*
X10640000Y-15240000D02*
X10680000Y-15240000D01*
X10711000Y-14715000D02*
X10711000Y-14755000D01*
X10691000Y-14735000D02*
X10731000Y-14735000D01*
X10720000Y-3200000D02*
X10720000Y-3240000D01*
X10700000Y-3220000D02*
X10740000Y-3220000D01*
X10750000Y-7210000D02*
X10750000Y-7250000D01*
X10730000Y-7230000D02*
X10770000Y-7230000D01*
X10762500Y-11200000D02*
X10762500Y-11240000D01*
X10742500Y-11220000D02*
X10782500Y-11220000D01*
X10860000Y-11160000D02*
X10860000Y-11200000D01*
X10840000Y-11180000D02*
X10880000Y-11180000D01*
X10945000Y-3425000D02*
X10945000Y-3465000D01*
X10925000Y-3445000D02*
X10965000Y-3445000D01*
X10950000Y-7425000D02*
X10950000Y-7465000D01*
X10930000Y-7445000D02*
X10970000Y-7445000D01*
X10950000Y-15425000D02*
X10950000Y-15465000D01*
X10930000Y-15445000D02*
X10970000Y-15445000D01*
X10960000Y-11430000D02*
X10960000Y-11470000D01*
X10940000Y-11450000D02*
X10980000Y-11450000D01*
X11065000Y-12912500D02*
X11065000Y-12952500D01*
X11045000Y-12932500D02*
X11085000Y-12932500D01*
X11180000Y-3247500D02*
X11180000Y-3287500D01*
X11160000Y-3267500D02*
X11200000Y-3267500D01*
X11182500Y-15212500D02*
X11182500Y-15252500D01*
X11162500Y-15232500D02*
X11202500Y-15232500D01*
X11185000Y-7235000D02*
X11185000Y-7275000D01*
X11165000Y-7255000D02*
X11205000Y-7255000D01*
X11215000Y-9960000D02*
X11215000Y-10000000D01*
X11195000Y-9980000D02*
X11235000Y-9980000D01*
X11252200Y-12806000D02*
X11252200Y-12846000D01*
X11232200Y-12826000D02*
X11272200Y-12826000D01*
X11260000Y-8800000D02*
X11260000Y-8840000D01*
X11240000Y-8820000D02*
X11280000Y-8820000D01*
X11455000Y-10890000D02*
X11455000Y-10930000D01*
X11435000Y-10910000D02*
X11475000Y-10910000D01*
X11561950Y-3342500D02*
X11561950Y-3382500D01*
X11541950Y-3362500D02*
X11581950Y-3362500D01*
X11572500Y-10917500D02*
X11572500Y-10957500D01*
X11552500Y-10937500D02*
X11592500Y-10937500D01*
X11620000Y-11260000D02*
X11620000Y-11300000D01*
X11600000Y-11280000D02*
X11640000Y-11280000D01*
X11700000Y-12100000D02*
X11700000Y-12140000D01*
X11680000Y-12120000D02*
X11720000Y-12120000D01*
X11709400Y-12806000D02*
X11709400Y-12846000D01*
X11689400Y-12826000D02*
X11729400Y-12826000D01*
X11711000Y-7230000D02*
X11711000Y-7270000D01*
X11691000Y-7250000D02*
X11731000Y-7250000D01*
X11715000Y-15810000D02*
X11715000Y-15850000D01*
X11695000Y-15830000D02*
X11735000Y-15830000D01*
X11720000Y-4100000D02*
X11720000Y-4140000D01*
X11700000Y-4120000D02*
X11740000Y-4120000D01*
X11720000Y-16100000D02*
X11720000Y-16140000D01*
X11700000Y-16120000D02*
X11740000Y-16120000D01*
X11950000Y-7280000D02*
X11950000Y-7320000D01*
X11930000Y-7300000D02*
X11970000Y-7300000D01*
X11950000Y-7580000D02*
X11950000Y-7620000D01*
X11930000Y-7600000D02*
X11970000Y-7600000D01*
X11950000Y-7830000D02*
X11950000Y-7870000D01*
X11930000Y-7850000D02*
X11970000Y-7850000D01*
X11950000Y-8080000D02*
X11950000Y-8120000D01*
X11930000Y-8100000D02*
X11970000Y-8100000D01*
X12022500Y-5705000D02*
X12022500Y-5745000D01*
X12002500Y-5725000D02*
X12042500Y-5725000D01*
X12150000Y-3830000D02*
X12150000Y-3870000D01*
X12130000Y-3850000D02*
X12170000Y-3850000D01*
X12150000Y-4080000D02*
X12150000Y-4120000D01*
X12130000Y-4100000D02*
X12170000Y-4100000D01*
X12150000Y-8580000D02*
X12150000Y-8620000D01*
X12130000Y-8600000D02*
X12170000Y-8600000D01*
X12275000Y-6505000D02*
X12275000Y-6545000D01*
X12255000Y-6525000D02*
X12295000Y-6525000D01*
X12325000Y-11255000D02*
X12325000Y-11295000D01*
X12305000Y-11275000D02*
X12345000Y-11275000D01*
X12350000Y-10880000D02*
X12350000Y-10920000D01*
X12330000Y-10900000D02*
X12370000Y-10900000D01*
X12357500Y-11672500D02*
X12357500Y-11712500D01*
X12337500Y-11692500D02*
X12377500Y-11692500D01*
X12390000Y-9550000D02*
X12390000Y-9590000D01*
X12370000Y-9570000D02*
X12410000Y-9570000D01*
X12500000Y-6505000D02*
X12500000Y-6545000D01*
X12480000Y-6525000D02*
X12520000Y-6525000D01*
X12525000Y-5980000D02*
X12525000Y-6020000D01*
X12505000Y-6000000D02*
X12545000Y-6000000D01*
X12765000Y-10910000D02*
X12765000Y-10950000D01*
X12745000Y-10930000D02*
X12785000Y-10930000D01*
X12775000Y-6530000D02*
X12775000Y-6570000D01*
X12755000Y-6550000D02*
X12795000Y-6550000D01*
X13000000Y-5750000D02*
X13000000Y-5790000D01*
X12980000Y-5770000D02*
X13020000Y-5770000D01*
X13000000Y-7280000D02*
X13000000Y-7320000D01*
X12980000Y-7300000D02*
X13020000Y-7300000D01*
X13000000Y-7580000D02*
X13000000Y-7620000D01*
X12980000Y-7600000D02*
X13020000Y-7600000D01*
X13000000Y-7830000D02*
X13000000Y-7870000D01*
X12980000Y-7850000D02*
X13020000Y-7850000D01*
X13000000Y-8080000D02*
X13000000Y-8120000D01*
X12980000Y-8100000D02*
X13020000Y-8100000D01*
X13000000Y-8330000D02*
X13000000Y-8370000D01*
X12980000Y-8350000D02*
X13020000Y-8350000D01*
X13000000Y-9905000D02*
X13000000Y-9945000D01*
X12980000Y-9925000D02*
X13020000Y-9925000D01*
X13025000Y-9430000D02*
X13025000Y-9470000D01*
X13005000Y-9450000D02*
X13045000Y-9450000D01*
X13200000Y-7030000D02*
X13200000Y-7070000D01*
X13180000Y-7050000D02*
X13220000Y-7050000D01*
X13210000Y-8980000D02*
X13210000Y-9020000D01*
X13190000Y-9000000D02*
X13230000Y-9000000D01*
X13240000Y-9780000D02*
X13240000Y-9820000D01*
X13220000Y-9800000D02*
X13260000Y-9800000D01*
X13265000Y-8140000D02*
X13265000Y-8180000D01*
X13245000Y-8160000D02*
X13285000Y-8160000D01*
X13275000Y-7620000D02*
X13275000Y-7660000D01*
X13255000Y-7640000D02*
X13295000Y-7640000D01*
X13277500Y-15607500D02*
X13277500Y-15647500D01*
X13257500Y-15627500D02*
X13297500Y-15627500D01*
X13282500Y-3612500D02*
X13282500Y-3652500D01*
X13262500Y-3632500D02*
X13302500Y-3632500D01*
X13285000Y-11607500D02*
X13285000Y-11647500D01*
X13265000Y-11627500D02*
X13305000Y-11627500D01*
X13407500Y-5992500D02*
X13407500Y-6032500D01*
X13387500Y-6012500D02*
X13427500Y-6012500D01*
X13450000Y-7030000D02*
X13450000Y-7070000D01*
X13430000Y-7050000D02*
X13470000Y-7050000D01*
X13550000Y-7190000D02*
X13550000Y-7230000D01*
X13530000Y-7210000D02*
X13570000Y-7210000D01*
X13550000Y-15190000D02*
X13550000Y-15230000D01*
X13530000Y-15210000D02*
X13570000Y-15210000D01*
X13552500Y-3240000D02*
X13552500Y-3280000D01*
X13532500Y-3260000D02*
X13572500Y-3260000D01*
X13560000Y-11190000D02*
X13560000Y-11230000D01*
X13540000Y-11210000D02*
X13580000Y-11210000D01*
X13669000Y-9837000D02*
X13669000Y-9877000D01*
X13649000Y-9857000D02*
X13689000Y-9857000D01*
X13700000Y-3200000D02*
X13700000Y-3240000D01*
X13680000Y-3220000D02*
X13720000Y-3220000D01*
X13700000Y-7030000D02*
X13700000Y-7070000D01*
X13680000Y-7050000D02*
X13720000Y-7050000D01*
X13700000Y-7200000D02*
X13700000Y-7240000D01*
X13680000Y-7220000D02*
X13720000Y-7220000D01*
X13700000Y-11200000D02*
X13700000Y-11240000D01*
X13680000Y-11220000D02*
X13720000Y-11220000D01*
X13720000Y-15220000D02*
X13720000Y-15260000D01*
X13700000Y-15240000D02*
X13740000Y-15240000D01*
X13760000Y-9480000D02*
X13760000Y-9520000D01*
X13740000Y-9500000D02*
X13780000Y-9500000D01*
X13945000Y-3430000D02*
X13945000Y-3470000D01*
X13925000Y-3450000D02*
X13965000Y-3450000D01*
X13950000Y-7430000D02*
X13950000Y-7470000D01*
X13930000Y-7450000D02*
X13970000Y-7450000D01*
X13950000Y-11425000D02*
X13950000Y-11465000D01*
X13930000Y-11445000D02*
X13970000Y-11445000D01*
X13950000Y-15435000D02*
X13950000Y-15475000D01*
X13930000Y-15455000D02*
X13970000Y-15455000D01*
X13985000Y-13955000D02*
X13985000Y-13995000D01*
X13965000Y-13975000D02*
X14005000Y-13975000D01*
X14180000Y-3247500D02*
X14180000Y-3287500D01*
X14160000Y-3267500D02*
X14200000Y-3267500D01*
X14180000Y-15080000D02*
X14180000Y-15120000D01*
X14160000Y-15100000D02*
X14200000Y-15100000D01*
X14187500Y-7232500D02*
X14187500Y-7272500D01*
X14167500Y-7252500D02*
X14207500Y-7252500D01*
X14187500Y-15217500D02*
X14187500Y-15257500D01*
X14167500Y-15237500D02*
X14207500Y-15237500D01*
X14343000Y-3624000D02*
X14343000Y-3664000D01*
X14323000Y-3644000D02*
X14363000Y-3644000D01*
X14360000Y-8700000D02*
X14360000Y-8740000D01*
X14340000Y-8720000D02*
X14380000Y-8720000D01*
X14375000Y-12955000D02*
X14375000Y-12995000D01*
X14355000Y-12975000D02*
X14395000Y-12975000D01*
X14695050Y-12100000D02*
X14695050Y-12140000D01*
X14675050Y-12120000D02*
X14715050Y-12120000D01*
X14710000Y-4110000D02*
X14710000Y-4150000D01*
X14690000Y-4130000D02*
X14730000Y-4130000D01*
X14715000Y-15770000D02*
X14715000Y-15810000D01*
X14695000Y-15790000D02*
X14735000Y-15790000D01*
X14720000Y-16110000D02*
X14720000Y-16150000D01*
X14700000Y-16130000D02*
X14740000Y-16130000D01*
X14827000Y-3418000D02*
X14827000Y-3458000D01*
X14807000Y-3438000D02*
X14847000Y-3438000D01*
D15*
X9837678Y-8687678D02*
X9837678Y-8652322D01*
X9802322Y-8652322D01*
X9802322Y-8687678D01*
X9837678Y-8687678D01*
X9925178Y-10672678D02*
X9925178Y-10637322D01*
X9889822Y-10637322D01*
X9889822Y-10672678D01*
X9925178Y-10672678D01*
X9990178Y-10872678D02*
X9990178Y-10837322D01*
X9954822Y-10837322D01*
X9954822Y-10872678D01*
X9990178Y-10872678D01*
X11517678Y-6942678D02*
X11517678Y-6907322D01*
X11482322Y-6907322D01*
X11482322Y-6942678D01*
X11517678Y-6942678D01*
X12285178Y-16307678D02*
X12285178Y-16272322D01*
X12249822Y-16272322D01*
X12249822Y-16307678D01*
X12285178Y-16307678D01*
X12687678Y-16312678D02*
X12687678Y-16277322D01*
X12652322Y-16277322D01*
X12652322Y-16312678D01*
X12687678Y-16312678D01*
D10*
X7552500Y-6042500D02*
X7602500Y-5992500D01*
X7552500Y-5942500D01*
X7502500Y-5992500D01*
X7552500Y-6042500D01*
X7552500Y-6296500D02*
X7602500Y-6246500D01*
X7552500Y-6196500D01*
X7502500Y-6246500D01*
X7552500Y-6296500D01*
X7552500Y-6550500D02*
X7602500Y-6500500D01*
X7552500Y-6450500D01*
X7502500Y-6500500D01*
X7552500Y-6550500D01*
X9775500Y-6980000D02*
X9825500Y-6930000D01*
X9775500Y-6880000D01*
X9725500Y-6930000D01*
X9775500Y-6980000D01*
X10029500Y-6980000D02*
X10079500Y-6930000D01*
X10029500Y-6880000D01*
X9979500Y-6930000D01*
X10029500Y-6980000D01*
X10768000Y-6980000D02*
X10818000Y-6930000D01*
X10768000Y-6880000D01*
X10718000Y-6930000D01*
X10768000Y-6980000D01*
X11022000Y-6980000D02*
X11072000Y-6930000D01*
X11022000Y-6880000D01*
X10972000Y-6930000D01*
X11022000Y-6980000D01*
X11894500Y-6295000D02*
X11944500Y-6245000D01*
X11894500Y-6195000D01*
X11844500Y-6245000D01*
X11894500Y-6295000D01*
X12148500Y-6295000D02*
X12198500Y-6245000D01*
X12148500Y-6195000D01*
X12098500Y-6245000D01*
X12148500Y-6295000D01*
X12402500Y-6295000D02*
X12452500Y-6245000D01*
X12402500Y-6195000D01*
X12352500Y-6245000D01*
X12402500Y-6295000D01*
X12656500Y-6295000D02*
X12706500Y-6245000D01*
X12656500Y-6195000D01*
X12606500Y-6245000D01*
X12656500Y-6295000D01*
X12910500Y-6295000D02*
X12960500Y-6245000D01*
X12910500Y-6195000D01*
X12860500Y-6245000D01*
X12910500Y-6295000D01*
X13164500Y-6295000D02*
X13214500Y-6245000D01*
X13164500Y-6195000D01*
X13114500Y-6245000D01*
X13164500Y-6295000D01*
X13418500Y-6295000D02*
X13468500Y-6245000D01*
X13418500Y-6195000D01*
X13368500Y-6245000D01*
X13418500Y-6295000D01*
X13672500Y-6295000D02*
X13722500Y-6245000D01*
X13672500Y-6195000D01*
X13622500Y-6245000D01*
X13672500Y-6295000D01*
X14257250Y-5480000D02*
X14307250Y-5430000D01*
X14257250Y-5380000D01*
X14207250Y-5430000D01*
X14257250Y-5480000D01*
X14257250Y-5734000D02*
X14307250Y-5684000D01*
X14257250Y-5634000D01*
X14207250Y-5684000D01*
X14257250Y-5734000D01*
X14257250Y-5988000D02*
X14307250Y-5938000D01*
X14257250Y-5888000D01*
X14207250Y-5938000D01*
X14257250Y-5988000D01*
X14257250Y-6242000D02*
X14307250Y-6192000D01*
X14257250Y-6142000D01*
X14207250Y-6192000D01*
X14257250Y-6242000D01*
X14257250Y-6496000D02*
X14307250Y-6446000D01*
X14257250Y-6396000D01*
X14207250Y-6446000D01*
X14257250Y-6496000D01*
X14261250Y-9465000D02*
X14311250Y-9415000D01*
X14261250Y-9365000D01*
X14211250Y-9415000D01*
X14261250Y-9465000D01*
X14261250Y-9719000D02*
X14311250Y-9669000D01*
X14261250Y-9619000D01*
X14211250Y-9669000D01*
X14261250Y-9719000D01*
X14261250Y-9973000D02*
X14311250Y-9923000D01*
X14261250Y-9873000D01*
X14211250Y-9923000D01*
X14261250Y-9973000D01*
X14261250Y-10227000D02*
X14311250Y-10177000D01*
X14261250Y-10127000D01*
X14211250Y-10177000D01*
X14261250Y-10227000D01*
X14261250Y-10481000D02*
X14311250Y-10431000D01*
X14261250Y-10381000D01*
X14211250Y-10431000D01*
X14261250Y-10481000D01*
X14511250Y-5480000D02*
X14561250Y-5430000D01*
X14511250Y-5380000D01*
X14461250Y-5430000D01*
X14511250Y-5480000D01*
X14511250Y-5734000D02*
X14561250Y-5684000D01*
X14511250Y-5634000D01*
X14461250Y-5684000D01*
X14511250Y-5734000D01*
X14511250Y-5988000D02*
X14561250Y-5938000D01*
X14511250Y-5888000D01*
X14461250Y-5938000D01*
X14511250Y-5988000D01*
X14511250Y-6242000D02*
X14561250Y-6192000D01*
X14511250Y-6142000D01*
X14461250Y-6192000D01*
X14511250Y-6242000D01*
X14511250Y-6496000D02*
X14561250Y-6446000D01*
X14511250Y-6396000D01*
X14461250Y-6446000D01*
X14511250Y-6496000D01*
X14515250Y-9465000D02*
X14565250Y-9415000D01*
X14515250Y-9365000D01*
X14465250Y-9415000D01*
X14515250Y-9465000D01*
X14515250Y-9719000D02*
X14565250Y-9669000D01*
X14515250Y-9619000D01*
X14465250Y-9669000D01*
X14515250Y-9719000D01*
X14515250Y-9973000D02*
X14565250Y-9923000D01*
X14515250Y-9873000D01*
X14465250Y-9923000D01*
X14515250Y-9973000D01*
X14515250Y-10227000D02*
X14565250Y-10177000D01*
X14515250Y-10127000D01*
X14465250Y-10177000D01*
X14515250Y-10227000D01*
X14515250Y-10481000D02*
X14565250Y-10431000D01*
X14515250Y-10381000D01*
X14465250Y-10431000D01*
X14515250Y-10481000D01*
D16*
X7704500Y-13590500D02*
X7813500Y-13699500D01*
X7813500Y-13590500D02*
X7704500Y-13699500D01*
X7813500Y-13645000D02*
G75*
G03*
X7813500Y-13645000I-54500J0D01*
G01*
X7704500Y-14400500D02*
X7813500Y-14509500D01*
X7813500Y-14400500D02*
X7704500Y-14509500D01*
X7813500Y-14455000D02*
G75*
G03*
X7813500Y-14455000I-54500J0D01*
G01*
X7958500Y-13590500D02*
X8067500Y-13699500D01*
X8067500Y-13590500D02*
X7958500Y-13699500D01*
X8067500Y-13645000D02*
G75*
G03*
X8067500Y-13645000I-54500J0D01*
G01*
X7958500Y-14400500D02*
X8067500Y-14509500D01*
X8067500Y-14400500D02*
X7958500Y-14509500D01*
X8067500Y-14455000D02*
G75*
G03*
X8067500Y-14455000I-54500J0D01*
G01*
X8212500Y-13590500D02*
X8321500Y-13699500D01*
X8321500Y-13590500D02*
X8212500Y-13699500D01*
X8321500Y-13645000D02*
G75*
G03*
X8321500Y-13645000I-54500J0D01*
G01*
X8212500Y-14400500D02*
X8321500Y-14509500D01*
X8321500Y-14400500D02*
X8212500Y-14509500D01*
X8321500Y-14455000D02*
G75*
G03*
X8321500Y-14455000I-54500J0D01*
G01*
X8466500Y-13590500D02*
X8575500Y-13699500D01*
X8575500Y-13590500D02*
X8466500Y-13699500D01*
X8575500Y-13645000D02*
G75*
G03*
X8575500Y-13645000I-54500J0D01*
G01*
X8466500Y-14400500D02*
X8575500Y-14509500D01*
X8575500Y-14400500D02*
X8466500Y-14509500D01*
X8575500Y-14455000D02*
G75*
G03*
X8575500Y-14455000I-54500J0D01*
G01*
D17*
X7753223Y-3753223D02*
X7893223Y-3893223D01*
X7893223Y-3753223D02*
X7753223Y-3893223D01*
X7823223Y-3753223D02*
X7823223Y-3893223D01*
X7753223Y-3823223D02*
X7893223Y-3823223D01*
X7753223Y-4106777D02*
X7893223Y-4246777D01*
X7893223Y-4106777D02*
X7753223Y-4246777D01*
X7823223Y-4106777D02*
X7823223Y-4246777D01*
X7753223Y-4176777D02*
X7893223Y-4176777D01*
X7753223Y-7753223D02*
X7893223Y-7893223D01*
X7893223Y-7753223D02*
X7753223Y-7893223D01*
X7823223Y-7753223D02*
X7823223Y-7893223D01*
X7753223Y-7823223D02*
X7893223Y-7823223D01*
X7753223Y-8106777D02*
X7893223Y-8246777D01*
X7893223Y-8106777D02*
X7753223Y-8246777D01*
X7823223Y-8106777D02*
X7823223Y-8246777D01*
X7753223Y-8176777D02*
X7893223Y-8176777D01*
X7753223Y-11753223D02*
X7893223Y-11893223D01*
X7893223Y-11753223D02*
X7753223Y-11893223D01*
X7823223Y-11753223D02*
X7823223Y-11893223D01*
X7753223Y-11823223D02*
X7893223Y-11823223D01*
X7753223Y-12106777D02*
X7893223Y-12246777D01*
X7893223Y-12106777D02*
X7753223Y-12246777D01*
X7823223Y-12106777D02*
X7823223Y-12246777D01*
X7753223Y-12176777D02*
X7893223Y-12176777D01*
X7753223Y-15753223D02*
X7893223Y-15893223D01*
X7893223Y-15753223D02*
X7753223Y-15893223D01*
X7823223Y-15753223D02*
X7823223Y-15893223D01*
X7753223Y-15823223D02*
X7893223Y-15823223D01*
X7753223Y-16106777D02*
X7893223Y-16246777D01*
X7893223Y-16106777D02*
X7753223Y-16246777D01*
X7823223Y-16106777D02*
X7823223Y-16246777D01*
X7753223Y-16176777D02*
X7893223Y-16176777D01*
X8106777Y-3753223D02*
X8246777Y-3893223D01*
X8246777Y-3753223D02*
X8106777Y-3893223D01*
X8176777Y-3753223D02*
X8176777Y-3893223D01*
X8106777Y-3823223D02*
X8246777Y-3823223D01*
X8106777Y-4106777D02*
X8246777Y-4246777D01*
X8246777Y-4106777D02*
X8106777Y-4246777D01*
X8176777Y-4106777D02*
X8176777Y-4246777D01*
X8106777Y-4176777D02*
X8246777Y-4176777D01*
X8106777Y-7753223D02*
X8246777Y-7893223D01*
X8246777Y-7753223D02*
X8106777Y-7893223D01*
X8176777Y-7753223D02*
X8176777Y-7893223D01*
X8106777Y-7823223D02*
X8246777Y-7823223D01*
X8106777Y-8106777D02*
X8246777Y-8246777D01*
X8246777Y-8106777D02*
X8106777Y-8246777D01*
X8176777Y-8106777D02*
X8176777Y-8246777D01*
X8106777Y-8176777D02*
X8246777Y-8176777D01*
X8106777Y-11753223D02*
X8246777Y-11893223D01*
X8246777Y-11753223D02*
X8106777Y-11893223D01*
X8176777Y-11753223D02*
X8176777Y-11893223D01*
X8106777Y-11823223D02*
X8246777Y-11823223D01*
X8106777Y-12106777D02*
X8246777Y-12246777D01*
X8246777Y-12106777D02*
X8106777Y-12246777D01*
X8176777Y-12106777D02*
X8176777Y-12246777D01*
X8106777Y-12176777D02*
X8246777Y-12176777D01*
X8106777Y-15753223D02*
X8246777Y-15893223D01*
X8246777Y-15753223D02*
X8106777Y-15893223D01*
X8176777Y-15753223D02*
X8176777Y-15893223D01*
X8106777Y-15823223D02*
X8246777Y-15823223D01*
X8106777Y-16106777D02*
X8246777Y-16246777D01*
X8246777Y-16106777D02*
X8106777Y-16246777D01*
X8176777Y-16106777D02*
X8176777Y-16246777D01*
X8106777Y-16176777D02*
X8246777Y-16176777D01*
X10753223Y-3753223D02*
X10893223Y-3893223D01*
X10893223Y-3753223D02*
X10753223Y-3893223D01*
X10823223Y-3753223D02*
X10823223Y-3893223D01*
X10753223Y-3823223D02*
X10893223Y-3823223D01*
X10753223Y-4106777D02*
X10893223Y-4246777D01*
X10893223Y-4106777D02*
X10753223Y-4246777D01*
X10823223Y-4106777D02*
X10823223Y-4246777D01*
X10753223Y-4176777D02*
X10893223Y-4176777D01*
X10753223Y-7753223D02*
X10893223Y-7893223D01*
X10893223Y-7753223D02*
X10753223Y-7893223D01*
X10823223Y-7753223D02*
X10823223Y-7893223D01*
X10753223Y-7823223D02*
X10893223Y-7823223D01*
X10753223Y-8106777D02*
X10893223Y-8246777D01*
X10893223Y-8106777D02*
X10753223Y-8246777D01*
X10823223Y-8106777D02*
X10823223Y-8246777D01*
X10753223Y-8176777D02*
X10893223Y-8176777D01*
X10753223Y-11753223D02*
X10893223Y-11893223D01*
X10893223Y-11753223D02*
X10753223Y-11893223D01*
X10823223Y-11753223D02*
X10823223Y-11893223D01*
X10753223Y-11823223D02*
X10893223Y-11823223D01*
X10753223Y-12106777D02*
X10893223Y-12246777D01*
X10893223Y-12106777D02*
X10753223Y-12246777D01*
X10823223Y-12106777D02*
X10823223Y-12246777D01*
X10753223Y-12176777D02*
X10893223Y-12176777D01*
X10753223Y-15753223D02*
X10893223Y-15893223D01*
X10893223Y-15753223D02*
X10753223Y-15893223D01*
X10823223Y-15753223D02*
X10823223Y-15893223D01*
X10753223Y-15823223D02*
X10893223Y-15823223D01*
X10753223Y-16106777D02*
X10893223Y-16246777D01*
X10893223Y-16106777D02*
X10753223Y-16246777D01*
X10823223Y-16106777D02*
X10823223Y-16246777D01*
X10753223Y-16176777D02*
X10893223Y-16176777D01*
X11106777Y-3753223D02*
X11246777Y-3893223D01*
X11246777Y-3753223D02*
X11106777Y-3893223D01*
X11176777Y-3753223D02*
X11176777Y-3893223D01*
X11106777Y-3823223D02*
X11246777Y-3823223D01*
X11106777Y-4106777D02*
X11246777Y-4246777D01*
X11246777Y-4106777D02*
X11106777Y-4246777D01*
X11176777Y-4106777D02*
X11176777Y-4246777D01*
X11106777Y-4176777D02*
X11246777Y-4176777D01*
X11106777Y-7753223D02*
X11246777Y-7893223D01*
X11246777Y-7753223D02*
X11106777Y-7893223D01*
X11176777Y-7753223D02*
X11176777Y-7893223D01*
X11106777Y-7823223D02*
X11246777Y-7823223D01*
X11106777Y-8106777D02*
X11246777Y-8246777D01*
X11246777Y-8106777D02*
X11106777Y-8246777D01*
X11176777Y-8106777D02*
X11176777Y-8246777D01*
X11106777Y-8176777D02*
X11246777Y-8176777D01*
X11106777Y-11753223D02*
X11246777Y-11893223D01*
X11246777Y-11753223D02*
X11106777Y-11893223D01*
X11176777Y-11753223D02*
X11176777Y-11893223D01*
X11106777Y-11823223D02*
X11246777Y-11823223D01*
X11106777Y-12106777D02*
X11246777Y-12246777D01*
X11246777Y-12106777D02*
X11106777Y-12246777D01*
X11176777Y-12106777D02*
X11176777Y-12246777D01*
X11106777Y-12176777D02*
X11246777Y-12176777D01*
X11106777Y-15753223D02*
X11246777Y-15893223D01*
X11246777Y-15753223D02*
X11106777Y-15893223D01*
X11176777Y-15753223D02*
X11176777Y-15893223D01*
X11106777Y-15823223D02*
X11246777Y-15823223D01*
X11106777Y-16106777D02*
X11246777Y-16246777D01*
X11246777Y-16106777D02*
X11106777Y-16246777D01*
X11176777Y-16106777D02*
X11176777Y-16246777D01*
X11106777Y-16176777D02*
X11246777Y-16176777D01*
X13753223Y-3753223D02*
X13893223Y-3893223D01*
X13893223Y-3753223D02*
X13753223Y-3893223D01*
X13823223Y-3753223D02*
X13823223Y-3893223D01*
X13753223Y-3823223D02*
X13893223Y-3823223D01*
X13753223Y-4106777D02*
X13893223Y-4246777D01*
X13893223Y-4106777D02*
X13753223Y-4246777D01*
X13823223Y-4106777D02*
X13823223Y-4246777D01*
X13753223Y-4176777D02*
X13893223Y-4176777D01*
X13753223Y-7753223D02*
X13893223Y-7893223D01*
X13893223Y-7753223D02*
X13753223Y-7893223D01*
X13823223Y-7753223D02*
X13823223Y-7893223D01*
X13753223Y-7823223D02*
X13893223Y-7823223D01*
X13753223Y-8106777D02*
X13893223Y-8246777D01*
X13893223Y-8106777D02*
X13753223Y-8246777D01*
X13823223Y-8106777D02*
X13823223Y-8246777D01*
X13753223Y-8176777D02*
X13893223Y-8176777D01*
X13753223Y-11753223D02*
X13893223Y-11893223D01*
X13893223Y-11753223D02*
X13753223Y-11893223D01*
X13823223Y-11753223D02*
X13823223Y-11893223D01*
X13753223Y-11823223D02*
X13893223Y-11823223D01*
X13753223Y-12106777D02*
X13893223Y-12246777D01*
X13893223Y-12106777D02*
X13753223Y-12246777D01*
X13823223Y-12106777D02*
X13823223Y-12246777D01*
X13753223Y-12176777D02*
X13893223Y-12176777D01*
X13753223Y-15753223D02*
X13893223Y-15893223D01*
X13893223Y-15753223D02*
X13753223Y-15893223D01*
X13823223Y-15753223D02*
X13823223Y-15893223D01*
X13753223Y-15823223D02*
X13893223Y-15823223D01*
X13753223Y-16106777D02*
X13893223Y-16246777D01*
X13893223Y-16106777D02*
X13753223Y-16246777D01*
X13823223Y-16106777D02*
X13823223Y-16246777D01*
X13753223Y-16176777D02*
X13893223Y-16176777D01*
X14106777Y-3753223D02*
X14246777Y-3893223D01*
X14246777Y-3753223D02*
X14106777Y-3893223D01*
X14176777Y-3753223D02*
X14176777Y-3893223D01*
X14106777Y-3823223D02*
X14246777Y-3823223D01*
X14106777Y-4106777D02*
X14246777Y-4246777D01*
X14246777Y-4106777D02*
X14106777Y-4246777D01*
X14176777Y-4106777D02*
X14176777Y-4246777D01*
X14106777Y-4176777D02*
X14246777Y-4176777D01*
X14106777Y-7753223D02*
X14246777Y-7893223D01*
X14246777Y-7753223D02*
X14106777Y-7893223D01*
X14176777Y-7753223D02*
X14176777Y-7893223D01*
X14106777Y-7823223D02*
X14246777Y-7823223D01*
X14106777Y-8106777D02*
X14246777Y-8246777D01*
X14246777Y-8106777D02*
X14106777Y-8246777D01*
X14176777Y-8106777D02*
X14176777Y-8246777D01*
X14106777Y-8176777D02*
X14246777Y-8176777D01*
X14106777Y-11753223D02*
X14246777Y-11893223D01*
X14246777Y-11753223D02*
X14106777Y-11893223D01*
X14176777Y-11753223D02*
X14176777Y-11893223D01*
X14106777Y-11823223D02*
X14246777Y-11823223D01*
X14106777Y-12106777D02*
X14246777Y-12246777D01*
X14246777Y-12106777D02*
X14106777Y-12246777D01*
X14176777Y-12106777D02*
X14176777Y-12246777D01*
X14106777Y-12176777D02*
X14246777Y-12176777D01*
X14106777Y-15753223D02*
X14246777Y-15893223D01*
X14246777Y-15753223D02*
X14106777Y-15893223D01*
X14176777Y-15753223D02*
X14176777Y-15893223D01*
X14106777Y-15823223D02*
X14246777Y-15823223D01*
X14106777Y-16106777D02*
X14246777Y-16246777D01*
X14246777Y-16106777D02*
X14106777Y-16246777D01*
X14176777Y-16106777D02*
X14176777Y-16246777D01*
X14106777Y-16176777D02*
X14246777Y-16176777D01*
D11*
X7252619Y-17315476D02*
X7252619Y-17115476D01*
X7300238Y-17115476D01*
X7328809Y-17125000D01*
X7347857Y-17144048D01*
X7357381Y-17163095D01*
X7366905Y-17201190D01*
X7366905Y-17229762D01*
X7357381Y-17267857D01*
X7347857Y-17286905D01*
X7328809Y-17305952D01*
X7300238Y-17315476D01*
X7252619Y-17315476D01*
X7452619Y-17315476D02*
X7452619Y-17182143D01*
X7452619Y-17220238D02*
X7462143Y-17201190D01*
X7471667Y-17191667D01*
X7490714Y-17182143D01*
X7509762Y-17182143D01*
X7576428Y-17315476D02*
X7576428Y-17182143D01*
X7576428Y-17115476D02*
X7566905Y-17125000D01*
X7576428Y-17134524D01*
X7585952Y-17125000D01*
X7576428Y-17115476D01*
X7576428Y-17134524D01*
X7700238Y-17315476D02*
X7681190Y-17305952D01*
X7671667Y-17286905D01*
X7671667Y-17115476D01*
X7805000Y-17315476D02*
X7785952Y-17305952D01*
X7776428Y-17286905D01*
X7776428Y-17115476D01*
X8033571Y-17315476D02*
X8033571Y-17115476D01*
X8100238Y-17258333D01*
X8166905Y-17115476D01*
X8166905Y-17315476D01*
X8347857Y-17315476D02*
X8347857Y-17210714D01*
X8338333Y-17191667D01*
X8319286Y-17182143D01*
X8281190Y-17182143D01*
X8262143Y-17191667D01*
X8347857Y-17305952D02*
X8328809Y-17315476D01*
X8281190Y-17315476D01*
X8262143Y-17305952D01*
X8252619Y-17286905D01*
X8252619Y-17267857D01*
X8262143Y-17248810D01*
X8281190Y-17239286D01*
X8328809Y-17239286D01*
X8347857Y-17229762D01*
X8443095Y-17182143D02*
X8443095Y-17382143D01*
X8443095Y-17191667D02*
X8462143Y-17182143D01*
X8500238Y-17182143D01*
X8519286Y-17191667D01*
X8528810Y-17201190D01*
X8538333Y-17220238D01*
X8538333Y-17277381D01*
X8528810Y-17296429D01*
X8519286Y-17305952D01*
X8500238Y-17315476D01*
X8462143Y-17315476D01*
X8443095Y-17305952D01*
X8624048Y-17296429D02*
X8633571Y-17305952D01*
X8624048Y-17315476D01*
X8614524Y-17305952D01*
X8624048Y-17296429D01*
X8624048Y-17315476D01*
X8624048Y-17191667D02*
X8633571Y-17201190D01*
X8624048Y-17210714D01*
X8614524Y-17201190D01*
X8624048Y-17191667D01*
X8624048Y-17210714D01*
D12*
X6975000Y-17635000D02*
X6995000Y-17655000D01*
X6995000Y-17635000D02*
X6975000Y-17655000D01*
D11*
X7290714Y-17535476D02*
X7309762Y-17535476D01*
X7328809Y-17545000D01*
X7338333Y-17554524D01*
X7347857Y-17573571D01*
X7357381Y-17611667D01*
X7357381Y-17659286D01*
X7347857Y-17697381D01*
X7338333Y-17716429D01*
X7328809Y-17725952D01*
X7309762Y-17735476D01*
X7290714Y-17735476D01*
X7271667Y-17725952D01*
X7262143Y-17716429D01*
X7252619Y-17697381D01*
X7243095Y-17659286D01*
X7243095Y-17611667D01*
X7252619Y-17573571D01*
X7262143Y-17554524D01*
X7271667Y-17545000D01*
X7290714Y-17535476D01*
X7443095Y-17716429D02*
X7452619Y-17725952D01*
X7443095Y-17735476D01*
X7433571Y-17725952D01*
X7443095Y-17716429D01*
X7443095Y-17735476D01*
X7528809Y-17554524D02*
X7538333Y-17545000D01*
X7557381Y-17535476D01*
X7605000Y-17535476D01*
X7624048Y-17545000D01*
X7633571Y-17554524D01*
X7643095Y-17573571D01*
X7643095Y-17592619D01*
X7633571Y-17621190D01*
X7519286Y-17735476D01*
X7643095Y-17735476D01*
X7766905Y-17535476D02*
X7785952Y-17535476D01*
X7805000Y-17545000D01*
X7814524Y-17554524D01*
X7824048Y-17573571D01*
X7833571Y-17611667D01*
X7833571Y-17659286D01*
X7824048Y-17697381D01*
X7814524Y-17716429D01*
X7805000Y-17725952D01*
X7785952Y-17735476D01*
X7766905Y-17735476D01*
X7747857Y-17725952D01*
X7738333Y-17716429D01*
X7728809Y-17697381D01*
X7719286Y-17659286D01*
X7719286Y-17611667D01*
X7728809Y-17573571D01*
X7738333Y-17554524D01*
X7747857Y-17545000D01*
X7766905Y-17535476D01*
X7957381Y-17535476D02*
X7976428Y-17535476D01*
X7995476Y-17545000D01*
X8005000Y-17554524D01*
X8014524Y-17573571D01*
X8024048Y-17611667D01*
X8024048Y-17659286D01*
X8014524Y-17697381D01*
X8005000Y-17716429D01*
X7995476Y-17725952D01*
X7976428Y-17735476D01*
X7957381Y-17735476D01*
X7938333Y-17725952D01*
X7928809Y-17716429D01*
X7919286Y-17697381D01*
X7909762Y-17659286D01*
X7909762Y-17611667D01*
X7919286Y-17573571D01*
X7928809Y-17554524D01*
X7938333Y-17545000D01*
X7957381Y-17535476D01*
X8109762Y-17735476D02*
X8109762Y-17602143D01*
X8109762Y-17621190D02*
X8119286Y-17611667D01*
X8138333Y-17602143D01*
X8166905Y-17602143D01*
X8185952Y-17611667D01*
X8195476Y-17630714D01*
X8195476Y-17735476D01*
X8195476Y-17630714D02*
X8205000Y-17611667D01*
X8224048Y-17602143D01*
X8252619Y-17602143D01*
X8271667Y-17611667D01*
X8281190Y-17630714D01*
X8281190Y-17735476D01*
X8376428Y-17735476D02*
X8376428Y-17602143D01*
X8376428Y-17621190D02*
X8385952Y-17611667D01*
X8405000Y-17602143D01*
X8433571Y-17602143D01*
X8452619Y-17611667D01*
X8462143Y-17630714D01*
X8462143Y-17735476D01*
X8462143Y-17630714D02*
X8471667Y-17611667D01*
X8490714Y-17602143D01*
X8519286Y-17602143D01*
X8538333Y-17611667D01*
X8547857Y-17630714D01*
X8547857Y-17735476D01*
X8938333Y-17525952D02*
X8766905Y-17783095D01*
X9195476Y-17535476D02*
X9214524Y-17535476D01*
X9233571Y-17545000D01*
X9243095Y-17554524D01*
X9252619Y-17573571D01*
X9262143Y-17611667D01*
X9262143Y-17659286D01*
X9252619Y-17697381D01*
X9243095Y-17716429D01*
X9233571Y-17725952D01*
X9214524Y-17735476D01*
X9195476Y-17735476D01*
X9176429Y-17725952D01*
X9166905Y-17716429D01*
X9157381Y-17697381D01*
X9147857Y-17659286D01*
X9147857Y-17611667D01*
X9157381Y-17573571D01*
X9166905Y-17554524D01*
X9176429Y-17545000D01*
X9195476Y-17535476D01*
X9347857Y-17716429D02*
X9357381Y-17725952D01*
X9347857Y-17735476D01*
X9338333Y-17725952D01*
X9347857Y-17716429D01*
X9347857Y-17735476D01*
X9481190Y-17535476D02*
X9500238Y-17535476D01*
X9519286Y-17545000D01*
X9528810Y-17554524D01*
X9538333Y-17573571D01*
X9547857Y-17611667D01*
X9547857Y-17659286D01*
X9538333Y-17697381D01*
X9528810Y-17716429D01*
X9519286Y-17725952D01*
X9500238Y-17735476D01*
X9481190Y-17735476D01*
X9462143Y-17725952D01*
X9452619Y-17716429D01*
X9443095Y-17697381D01*
X9433571Y-17659286D01*
X9433571Y-17611667D01*
X9443095Y-17573571D01*
X9452619Y-17554524D01*
X9462143Y-17545000D01*
X9481190Y-17535476D01*
X9671667Y-17535476D02*
X9690714Y-17535476D01*
X9709762Y-17545000D01*
X9719286Y-17554524D01*
X9728810Y-17573571D01*
X9738333Y-17611667D01*
X9738333Y-17659286D01*
X9728810Y-17697381D01*
X9719286Y-17716429D01*
X9709762Y-17725952D01*
X9690714Y-17735476D01*
X9671667Y-17735476D01*
X9652619Y-17725952D01*
X9643095Y-17716429D01*
X9633571Y-17697381D01*
X9624048Y-17659286D01*
X9624048Y-17611667D01*
X9633571Y-17573571D01*
X9643095Y-17554524D01*
X9652619Y-17545000D01*
X9671667Y-17535476D01*
X9805000Y-17535476D02*
X9938333Y-17535476D01*
X9852619Y-17735476D01*
X10024048Y-17735476D02*
X10062143Y-17735476D01*
X10081190Y-17725952D01*
X10090714Y-17716429D01*
X10109762Y-17687857D01*
X10119286Y-17649762D01*
X10119286Y-17573571D01*
X10109762Y-17554524D01*
X10100238Y-17545000D01*
X10081190Y-17535476D01*
X10043095Y-17535476D01*
X10024048Y-17545000D01*
X10014524Y-17554524D01*
X10005000Y-17573571D01*
X10005000Y-17621190D01*
X10014524Y-17640238D01*
X10024048Y-17649762D01*
X10043095Y-17659286D01*
X10081190Y-17659286D01*
X10100238Y-17649762D01*
X10109762Y-17640238D01*
X10119286Y-17621190D01*
X10195476Y-17535476D02*
X10195476Y-17573571D01*
X10271667Y-17535476D02*
X10271667Y-17573571D01*
X10566905Y-17811667D02*
X10557381Y-17802143D01*
X10538333Y-17773571D01*
X10528810Y-17754524D01*
X10519286Y-17725952D01*
X10509762Y-17678333D01*
X10509762Y-17640238D01*
X10519286Y-17592619D01*
X10528810Y-17564048D01*
X10538333Y-17545000D01*
X10557381Y-17516429D01*
X10566905Y-17506905D01*
X10728810Y-17602143D02*
X10728810Y-17735476D01*
X10681190Y-17525952D02*
X10633571Y-17668810D01*
X10757381Y-17668810D01*
X10985952Y-17735476D02*
X10985952Y-17535476D01*
X11071667Y-17735476D02*
X11071667Y-17630714D01*
X11062143Y-17611667D01*
X11043095Y-17602143D01*
X11014524Y-17602143D01*
X10995476Y-17611667D01*
X10985952Y-17621190D01*
X11195476Y-17735476D02*
X11176429Y-17725952D01*
X11166905Y-17716429D01*
X11157381Y-17697381D01*
X11157381Y-17640238D01*
X11166905Y-17621190D01*
X11176429Y-17611667D01*
X11195476Y-17602143D01*
X11224048Y-17602143D01*
X11243095Y-17611667D01*
X11252619Y-17621190D01*
X11262143Y-17640238D01*
X11262143Y-17697381D01*
X11252619Y-17716429D01*
X11243095Y-17725952D01*
X11224048Y-17735476D01*
X11195476Y-17735476D01*
X11376428Y-17735476D02*
X11357381Y-17725952D01*
X11347857Y-17706905D01*
X11347857Y-17535476D01*
X11528809Y-17725952D02*
X11509762Y-17735476D01*
X11471667Y-17735476D01*
X11452619Y-17725952D01*
X11443095Y-17706905D01*
X11443095Y-17630714D01*
X11452619Y-17611667D01*
X11471667Y-17602143D01*
X11509762Y-17602143D01*
X11528809Y-17611667D01*
X11538333Y-17630714D01*
X11538333Y-17649762D01*
X11443095Y-17668810D01*
X11614524Y-17725952D02*
X11633571Y-17735476D01*
X11671667Y-17735476D01*
X11690714Y-17725952D01*
X11700238Y-17706905D01*
X11700238Y-17697381D01*
X11690714Y-17678333D01*
X11671667Y-17668810D01*
X11643095Y-17668810D01*
X11624048Y-17659286D01*
X11614524Y-17640238D01*
X11614524Y-17630714D01*
X11624048Y-17611667D01*
X11643095Y-17602143D01*
X11671667Y-17602143D01*
X11690714Y-17611667D01*
X11766905Y-17811667D02*
X11776428Y-17802143D01*
X11795476Y-17773571D01*
X11805000Y-17754524D01*
X11814524Y-17725952D01*
X11824048Y-17678333D01*
X11824048Y-17640238D01*
X11814524Y-17592619D01*
X11805000Y-17564048D01*
X11795476Y-17545000D01*
X11776428Y-17516429D01*
X11766905Y-17506905D01*
D13*
X6995000Y-17909000D02*
G75*
G03*
X6995000Y-17909000I-15000J0D01*
G01*
D11*
X7290714Y-17799476D02*
X7309762Y-17799476D01*
X7328809Y-17809000D01*
X7338333Y-17818524D01*
X7347857Y-17837571D01*
X7357381Y-17875667D01*
X7357381Y-17923286D01*
X7347857Y-17961381D01*
X7338333Y-17980429D01*
X7328809Y-17989952D01*
X7309762Y-17999476D01*
X7290714Y-17999476D01*
X7271667Y-17989952D01*
X7262143Y-17980429D01*
X7252619Y-17961381D01*
X7243095Y-17923286D01*
X7243095Y-17875667D01*
X7252619Y-17837571D01*
X7262143Y-17818524D01*
X7271667Y-17809000D01*
X7290714Y-17799476D01*
X7443095Y-17980429D02*
X7452619Y-17989952D01*
X7443095Y-17999476D01*
X7433571Y-17989952D01*
X7443095Y-17980429D01*
X7443095Y-17999476D01*
X7519286Y-17799476D02*
X7643095Y-17799476D01*
X7576428Y-17875667D01*
X7605000Y-17875667D01*
X7624048Y-17885190D01*
X7633571Y-17894714D01*
X7643095Y-17913762D01*
X7643095Y-17961381D01*
X7633571Y-17980429D01*
X7624048Y-17989952D01*
X7605000Y-17999476D01*
X7547857Y-17999476D01*
X7528809Y-17989952D01*
X7519286Y-17980429D01*
X7766905Y-17799476D02*
X7785952Y-17799476D01*
X7805000Y-17809000D01*
X7814524Y-17818524D01*
X7824048Y-17837571D01*
X7833571Y-17875667D01*
X7833571Y-17923286D01*
X7824048Y-17961381D01*
X7814524Y-17980429D01*
X7805000Y-17989952D01*
X7785952Y-17999476D01*
X7766905Y-17999476D01*
X7747857Y-17989952D01*
X7738333Y-17980429D01*
X7728809Y-17961381D01*
X7719286Y-17923286D01*
X7719286Y-17875667D01*
X7728809Y-17837571D01*
X7738333Y-17818524D01*
X7747857Y-17809000D01*
X7766905Y-17799476D01*
X7957381Y-17799476D02*
X7976428Y-17799476D01*
X7995476Y-17809000D01*
X8005000Y-17818524D01*
X8014524Y-17837571D01*
X8024048Y-17875667D01*
X8024048Y-17923286D01*
X8014524Y-17961381D01*
X8005000Y-17980429D01*
X7995476Y-17989952D01*
X7976428Y-17999476D01*
X7957381Y-17999476D01*
X7938333Y-17989952D01*
X7928809Y-17980429D01*
X7919286Y-17961381D01*
X7909762Y-17923286D01*
X7909762Y-17875667D01*
X7919286Y-17837571D01*
X7928809Y-17818524D01*
X7938333Y-17809000D01*
X7957381Y-17799476D01*
X8109762Y-17999476D02*
X8109762Y-17866143D01*
X8109762Y-17885190D02*
X8119286Y-17875667D01*
X8138333Y-17866143D01*
X8166905Y-17866143D01*
X8185952Y-17875667D01*
X8195476Y-17894714D01*
X8195476Y-17999476D01*
X8195476Y-17894714D02*
X8205000Y-17875667D01*
X8224048Y-17866143D01*
X8252619Y-17866143D01*
X8271667Y-17875667D01*
X8281190Y-17894714D01*
X8281190Y-17999476D01*
X8376428Y-17999476D02*
X8376428Y-17866143D01*
X8376428Y-17885190D02*
X8385952Y-17875667D01*
X8405000Y-17866143D01*
X8433571Y-17866143D01*
X8452619Y-17875667D01*
X8462143Y-17894714D01*
X8462143Y-17999476D01*
X8462143Y-17894714D02*
X8471667Y-17875667D01*
X8490714Y-17866143D01*
X8519286Y-17866143D01*
X8538333Y-17875667D01*
X8547857Y-17894714D01*
X8547857Y-17999476D01*
X8938333Y-17789952D02*
X8766905Y-18047095D01*
X9195476Y-17799476D02*
X9214524Y-17799476D01*
X9233571Y-17809000D01*
X9243095Y-17818524D01*
X9252619Y-17837571D01*
X9262143Y-17875667D01*
X9262143Y-17923286D01*
X9252619Y-17961381D01*
X9243095Y-17980429D01*
X9233571Y-17989952D01*
X9214524Y-17999476D01*
X9195476Y-17999476D01*
X9176429Y-17989952D01*
X9166905Y-17980429D01*
X9157381Y-17961381D01*
X9147857Y-17923286D01*
X9147857Y-17875667D01*
X9157381Y-17837571D01*
X9166905Y-17818524D01*
X9176429Y-17809000D01*
X9195476Y-17799476D01*
X9347857Y-17980429D02*
X9357381Y-17989952D01*
X9347857Y-17999476D01*
X9338333Y-17989952D01*
X9347857Y-17980429D01*
X9347857Y-17999476D01*
X9481190Y-17799476D02*
X9500238Y-17799476D01*
X9519286Y-17809000D01*
X9528810Y-17818524D01*
X9538333Y-17837571D01*
X9547857Y-17875667D01*
X9547857Y-17923286D01*
X9538333Y-17961381D01*
X9528810Y-17980429D01*
X9519286Y-17989952D01*
X9500238Y-17999476D01*
X9481190Y-17999476D01*
X9462143Y-17989952D01*
X9452619Y-17980429D01*
X9443095Y-17961381D01*
X9433571Y-17923286D01*
X9433571Y-17875667D01*
X9443095Y-17837571D01*
X9452619Y-17818524D01*
X9462143Y-17809000D01*
X9481190Y-17799476D01*
X9738333Y-17999476D02*
X9624048Y-17999476D01*
X9681190Y-17999476D02*
X9681190Y-17799476D01*
X9662143Y-17828048D01*
X9643095Y-17847095D01*
X9624048Y-17856619D01*
X9928810Y-17999476D02*
X9814524Y-17999476D01*
X9871667Y-17999476D02*
X9871667Y-17799476D01*
X9852619Y-17828048D01*
X9833571Y-17847095D01*
X9814524Y-17856619D01*
X10043095Y-17885190D02*
X10024048Y-17875667D01*
X10014524Y-17866143D01*
X10005000Y-17847095D01*
X10005000Y-17837571D01*
X10014524Y-17818524D01*
X10024048Y-17809000D01*
X10043095Y-17799476D01*
X10081190Y-17799476D01*
X10100238Y-17809000D01*
X10109762Y-17818524D01*
X10119286Y-17837571D01*
X10119286Y-17847095D01*
X10109762Y-17866143D01*
X10100238Y-17875667D01*
X10081190Y-17885190D01*
X10043095Y-17885190D01*
X10024048Y-17894714D01*
X10014524Y-17904238D01*
X10005000Y-17923286D01*
X10005000Y-17961381D01*
X10014524Y-17980429D01*
X10024048Y-17989952D01*
X10043095Y-17999476D01*
X10081190Y-17999476D01*
X10100238Y-17989952D01*
X10109762Y-17980429D01*
X10119286Y-17961381D01*
X10119286Y-17923286D01*
X10109762Y-17904238D01*
X10100238Y-17894714D01*
X10081190Y-17885190D01*
X10195476Y-17799476D02*
X10195476Y-17837571D01*
X10271667Y-17799476D02*
X10271667Y-17837571D01*
X10566905Y-18075667D02*
X10557381Y-18066143D01*
X10538333Y-18037571D01*
X10528810Y-18018524D01*
X10519286Y-17989952D01*
X10509762Y-17942333D01*
X10509762Y-17904238D01*
X10519286Y-17856619D01*
X10528810Y-17828048D01*
X10538333Y-17809000D01*
X10557381Y-17780429D01*
X10566905Y-17770905D01*
X10728810Y-17799476D02*
X10690714Y-17799476D01*
X10671667Y-17809000D01*
X10662143Y-17818524D01*
X10643095Y-17847095D01*
X10633571Y-17885190D01*
X10633571Y-17961381D01*
X10643095Y-17980429D01*
X10652619Y-17989952D01*
X10671667Y-17999476D01*
X10709762Y-17999476D01*
X10728810Y-17989952D01*
X10738333Y-17980429D01*
X10747857Y-17961381D01*
X10747857Y-17913762D01*
X10738333Y-17894714D01*
X10728810Y-17885190D01*
X10709762Y-17875667D01*
X10671667Y-17875667D01*
X10652619Y-17885190D01*
X10643095Y-17894714D01*
X10633571Y-17913762D01*
X10862143Y-17885190D02*
X10843095Y-17875667D01*
X10833571Y-17866143D01*
X10824048Y-17847095D01*
X10824048Y-17837571D01*
X10833571Y-17818524D01*
X10843095Y-17809000D01*
X10862143Y-17799476D01*
X10900238Y-17799476D01*
X10919286Y-17809000D01*
X10928810Y-17818524D01*
X10938333Y-17837571D01*
X10938333Y-17847095D01*
X10928810Y-17866143D01*
X10919286Y-17875667D01*
X10900238Y-17885190D01*
X10862143Y-17885190D01*
X10843095Y-17894714D01*
X10833571Y-17904238D01*
X10824048Y-17923286D01*
X10824048Y-17961381D01*
X10833571Y-17980429D01*
X10843095Y-17989952D01*
X10862143Y-17999476D01*
X10900238Y-17999476D01*
X10919286Y-17989952D01*
X10928810Y-17980429D01*
X10938333Y-17961381D01*
X10938333Y-17923286D01*
X10928810Y-17904238D01*
X10919286Y-17894714D01*
X10900238Y-17885190D01*
X11109762Y-17866143D02*
X11109762Y-17999476D01*
X11062143Y-17789952D02*
X11014524Y-17932810D01*
X11138333Y-17932810D01*
X11366905Y-17999476D02*
X11366905Y-17799476D01*
X11452619Y-17999476D02*
X11452619Y-17894714D01*
X11443095Y-17875667D01*
X11424048Y-17866143D01*
X11395476Y-17866143D01*
X11376428Y-17875667D01*
X11366905Y-17885190D01*
X11576428Y-17999476D02*
X11557381Y-17989952D01*
X11547857Y-17980429D01*
X11538333Y-17961381D01*
X11538333Y-17904238D01*
X11547857Y-17885190D01*
X11557381Y-17875667D01*
X11576428Y-17866143D01*
X11605000Y-17866143D01*
X11624048Y-17875667D01*
X11633571Y-17885190D01*
X11643095Y-17904238D01*
X11643095Y-17961381D01*
X11633571Y-17980429D01*
X11624048Y-17989952D01*
X11605000Y-17999476D01*
X11576428Y-17999476D01*
X11757381Y-17999476D02*
X11738333Y-17989952D01*
X11728809Y-17970905D01*
X11728809Y-17799476D01*
X11909762Y-17989952D02*
X11890714Y-17999476D01*
X11852619Y-17999476D01*
X11833571Y-17989952D01*
X11824048Y-17970905D01*
X11824048Y-17894714D01*
X11833571Y-17875667D01*
X11852619Y-17866143D01*
X11890714Y-17866143D01*
X11909762Y-17875667D01*
X11919286Y-17894714D01*
X11919286Y-17913762D01*
X11824048Y-17932810D01*
X11995476Y-17989952D02*
X12014524Y-17999476D01*
X12052619Y-17999476D01*
X12071667Y-17989952D01*
X12081190Y-17970905D01*
X12081190Y-17961381D01*
X12071667Y-17942333D01*
X12052619Y-17932810D01*
X12024048Y-17932810D01*
X12005000Y-17923286D01*
X11995476Y-17904238D01*
X11995476Y-17894714D01*
X12005000Y-17875667D01*
X12024048Y-17866143D01*
X12052619Y-17866143D01*
X12071667Y-17875667D01*
X12147857Y-18075667D02*
X12157381Y-18066143D01*
X12176428Y-18037571D01*
X12185952Y-18018524D01*
X12195476Y-17989952D01*
X12205000Y-17942333D01*
X12205000Y-17904238D01*
X12195476Y-17856619D01*
X12185952Y-17828048D01*
X12176428Y-17809000D01*
X12157381Y-17780429D01*
X12147857Y-17770905D01*
D14*
X6975000Y-18153000D02*
X6975000Y-18193000D01*
X6955000Y-18173000D02*
X6995000Y-18173000D01*
D11*
X7290714Y-18063476D02*
X7309762Y-18063476D01*
X7328809Y-18073000D01*
X7338333Y-18082524D01*
X7347857Y-18101571D01*
X7357381Y-18139667D01*
X7357381Y-18187286D01*
X7347857Y-18225381D01*
X7338333Y-18244429D01*
X7328809Y-18253952D01*
X7309762Y-18263476D01*
X7290714Y-18263476D01*
X7271667Y-18253952D01*
X7262143Y-18244429D01*
X7252619Y-18225381D01*
X7243095Y-18187286D01*
X7243095Y-18139667D01*
X7252619Y-18101571D01*
X7262143Y-18082524D01*
X7271667Y-18073000D01*
X7290714Y-18063476D01*
X7443095Y-18244429D02*
X7452619Y-18253952D01*
X7443095Y-18263476D01*
X7433571Y-18253952D01*
X7443095Y-18244429D01*
X7443095Y-18263476D01*
X7624048Y-18130143D02*
X7624048Y-18263476D01*
X7576428Y-18053952D02*
X7528809Y-18196810D01*
X7652619Y-18196810D01*
X7766905Y-18063476D02*
X7785952Y-18063476D01*
X7805000Y-18073000D01*
X7814524Y-18082524D01*
X7824048Y-18101571D01*
X7833571Y-18139667D01*
X7833571Y-18187286D01*
X7824048Y-18225381D01*
X7814524Y-18244429D01*
X7805000Y-18253952D01*
X7785952Y-18263476D01*
X7766905Y-18263476D01*
X7747857Y-18253952D01*
X7738333Y-18244429D01*
X7728809Y-18225381D01*
X7719286Y-18187286D01*
X7719286Y-18139667D01*
X7728809Y-18101571D01*
X7738333Y-18082524D01*
X7747857Y-18073000D01*
X7766905Y-18063476D01*
X7957381Y-18063476D02*
X7976428Y-18063476D01*
X7995476Y-18073000D01*
X8005000Y-18082524D01*
X8014524Y-18101571D01*
X8024048Y-18139667D01*
X8024048Y-18187286D01*
X8014524Y-18225381D01*
X8005000Y-18244429D01*
X7995476Y-18253952D01*
X7976428Y-18263476D01*
X7957381Y-18263476D01*
X7938333Y-18253952D01*
X7928809Y-18244429D01*
X7919286Y-18225381D01*
X7909762Y-18187286D01*
X7909762Y-18139667D01*
X7919286Y-18101571D01*
X7928809Y-18082524D01*
X7938333Y-18073000D01*
X7957381Y-18063476D01*
X8109762Y-18263476D02*
X8109762Y-18130143D01*
X8109762Y-18149190D02*
X8119286Y-18139667D01*
X8138333Y-18130143D01*
X8166905Y-18130143D01*
X8185952Y-18139667D01*
X8195476Y-18158714D01*
X8195476Y-18263476D01*
X8195476Y-18158714D02*
X8205000Y-18139667D01*
X8224048Y-18130143D01*
X8252619Y-18130143D01*
X8271667Y-18139667D01*
X8281190Y-18158714D01*
X8281190Y-18263476D01*
X8376428Y-18263476D02*
X8376428Y-18130143D01*
X8376428Y-18149190D02*
X8385952Y-18139667D01*
X8405000Y-18130143D01*
X8433571Y-18130143D01*
X8452619Y-18139667D01*
X8462143Y-18158714D01*
X8462143Y-18263476D01*
X8462143Y-18158714D02*
X8471667Y-18139667D01*
X8490714Y-18130143D01*
X8519286Y-18130143D01*
X8538333Y-18139667D01*
X8547857Y-18158714D01*
X8547857Y-18263476D01*
X8938333Y-18053952D02*
X8766905Y-18311095D01*
X9195476Y-18063476D02*
X9214524Y-18063476D01*
X9233571Y-18073000D01*
X9243095Y-18082524D01*
X9252619Y-18101571D01*
X9262143Y-18139667D01*
X9262143Y-18187286D01*
X9252619Y-18225381D01*
X9243095Y-18244429D01*
X9233571Y-18253952D01*
X9214524Y-18263476D01*
X9195476Y-18263476D01*
X9176429Y-18253952D01*
X9166905Y-18244429D01*
X9157381Y-18225381D01*
X9147857Y-18187286D01*
X9147857Y-18139667D01*
X9157381Y-18101571D01*
X9166905Y-18082524D01*
X9176429Y-18073000D01*
X9195476Y-18063476D01*
X9347857Y-18244429D02*
X9357381Y-18253952D01*
X9347857Y-18263476D01*
X9338333Y-18253952D01*
X9347857Y-18244429D01*
X9347857Y-18263476D01*
X9481190Y-18063476D02*
X9500238Y-18063476D01*
X9519286Y-18073000D01*
X9528810Y-18082524D01*
X9538333Y-18101571D01*
X9547857Y-18139667D01*
X9547857Y-18187286D01*
X9538333Y-18225381D01*
X9528810Y-18244429D01*
X9519286Y-18253952D01*
X9500238Y-18263476D01*
X9481190Y-18263476D01*
X9462143Y-18253952D01*
X9452619Y-18244429D01*
X9443095Y-18225381D01*
X9433571Y-18187286D01*
X9433571Y-18139667D01*
X9443095Y-18101571D01*
X9452619Y-18082524D01*
X9462143Y-18073000D01*
X9481190Y-18063476D01*
X9738333Y-18263476D02*
X9624048Y-18263476D01*
X9681190Y-18263476D02*
X9681190Y-18063476D01*
X9662143Y-18092048D01*
X9643095Y-18111095D01*
X9624048Y-18120619D01*
X9919286Y-18063476D02*
X9824048Y-18063476D01*
X9814524Y-18158714D01*
X9824048Y-18149190D01*
X9843095Y-18139667D01*
X9890714Y-18139667D01*
X9909762Y-18149190D01*
X9919286Y-18158714D01*
X9928810Y-18177762D01*
X9928810Y-18225381D01*
X9919286Y-18244429D01*
X9909762Y-18253952D01*
X9890714Y-18263476D01*
X9843095Y-18263476D01*
X9824048Y-18253952D01*
X9814524Y-18244429D01*
X9995476Y-18063476D02*
X10128810Y-18063476D01*
X10043095Y-18263476D01*
X10195476Y-18063476D02*
X10195476Y-18101571D01*
X10271667Y-18063476D02*
X10271667Y-18101571D01*
X10566905Y-18339667D02*
X10557381Y-18330143D01*
X10538333Y-18301571D01*
X10528810Y-18282524D01*
X10519286Y-18253952D01*
X10509762Y-18206333D01*
X10509762Y-18168238D01*
X10519286Y-18120619D01*
X10528810Y-18092048D01*
X10538333Y-18073000D01*
X10557381Y-18044429D01*
X10566905Y-18034905D01*
X10747857Y-18263476D02*
X10633571Y-18263476D01*
X10690714Y-18263476D02*
X10690714Y-18063476D01*
X10671667Y-18092048D01*
X10652619Y-18111095D01*
X10633571Y-18120619D01*
X10814524Y-18063476D02*
X10947857Y-18063476D01*
X10862143Y-18263476D01*
X11014524Y-18082524D02*
X11024048Y-18073000D01*
X11043095Y-18063476D01*
X11090714Y-18063476D01*
X11109762Y-18073000D01*
X11119286Y-18082524D01*
X11128810Y-18101571D01*
X11128810Y-18120619D01*
X11119286Y-18149190D01*
X11005000Y-18263476D01*
X11128810Y-18263476D01*
X11366905Y-18263476D02*
X11366905Y-18063476D01*
X11452619Y-18263476D02*
X11452619Y-18158714D01*
X11443095Y-18139667D01*
X11424048Y-18130143D01*
X11395476Y-18130143D01*
X11376428Y-18139667D01*
X11366905Y-18149190D01*
X11576428Y-18263476D02*
X11557381Y-18253952D01*
X11547857Y-18244429D01*
X11538333Y-18225381D01*
X11538333Y-18168238D01*
X11547857Y-18149190D01*
X11557381Y-18139667D01*
X11576428Y-18130143D01*
X11605000Y-18130143D01*
X11624048Y-18139667D01*
X11633571Y-18149190D01*
X11643095Y-18168238D01*
X11643095Y-18225381D01*
X11633571Y-18244429D01*
X11624048Y-18253952D01*
X11605000Y-18263476D01*
X11576428Y-18263476D01*
X11757381Y-18263476D02*
X11738333Y-18253952D01*
X11728809Y-18234905D01*
X11728809Y-18063476D01*
X11909762Y-18253952D02*
X11890714Y-18263476D01*
X11852619Y-18263476D01*
X11833571Y-18253952D01*
X11824048Y-18234905D01*
X11824048Y-18158714D01*
X11833571Y-18139667D01*
X11852619Y-18130143D01*
X11890714Y-18130143D01*
X11909762Y-18139667D01*
X11919286Y-18158714D01*
X11919286Y-18177762D01*
X11824048Y-18196810D01*
X11995476Y-18253952D02*
X12014524Y-18263476D01*
X12052619Y-18263476D01*
X12071667Y-18253952D01*
X12081190Y-18234905D01*
X12081190Y-18225381D01*
X12071667Y-18206333D01*
X12052619Y-18196810D01*
X12024048Y-18196810D01*
X12005000Y-18187286D01*
X11995476Y-18168238D01*
X11995476Y-18158714D01*
X12005000Y-18139667D01*
X12024048Y-18130143D01*
X12052619Y-18130143D01*
X12071667Y-18139667D01*
X12147857Y-18339667D02*
X12157381Y-18330143D01*
X12176428Y-18301571D01*
X12185952Y-18282524D01*
X12195476Y-18253952D01*
X12205000Y-18206333D01*
X12205000Y-18168238D01*
X12195476Y-18120619D01*
X12185952Y-18092048D01*
X12176428Y-18073000D01*
X12157381Y-18044429D01*
X12147857Y-18034905D01*
D15*
X6987678Y-18454678D02*
X6987678Y-18419322D01*
X6952322Y-18419322D01*
X6952322Y-18454678D01*
X6987678Y-18454678D01*
D11*
X7290714Y-18327476D02*
X7309762Y-18327476D01*
X7328809Y-18337000D01*
X7338333Y-18346524D01*
X7347857Y-18365571D01*
X7357381Y-18403667D01*
X7357381Y-18451286D01*
X7347857Y-18489381D01*
X7338333Y-18508429D01*
X7328809Y-18517952D01*
X7309762Y-18527476D01*
X7290714Y-18527476D01*
X7271667Y-18517952D01*
X7262143Y-18508429D01*
X7252619Y-18489381D01*
X7243095Y-18451286D01*
X7243095Y-18403667D01*
X7252619Y-18365571D01*
X7262143Y-18346524D01*
X7271667Y-18337000D01*
X7290714Y-18327476D01*
X7443095Y-18508429D02*
X7452619Y-18517952D01*
X7443095Y-18527476D01*
X7433571Y-18517952D01*
X7443095Y-18508429D01*
X7443095Y-18527476D01*
X7633571Y-18327476D02*
X7538333Y-18327476D01*
X7528809Y-18422714D01*
X7538333Y-18413190D01*
X7557381Y-18403667D01*
X7605000Y-18403667D01*
X7624048Y-18413190D01*
X7633571Y-18422714D01*
X7643095Y-18441762D01*
X7643095Y-18489381D01*
X7633571Y-18508429D01*
X7624048Y-18517952D01*
X7605000Y-18527476D01*
X7557381Y-18527476D01*
X7538333Y-18517952D01*
X7528809Y-18508429D01*
X7766905Y-18327476D02*
X7785952Y-18327476D01*
X7805000Y-18337000D01*
X7814524Y-18346524D01*
X7824048Y-18365571D01*
X7833571Y-18403667D01*
X7833571Y-18451286D01*
X7824048Y-18489381D01*
X7814524Y-18508429D01*
X7805000Y-18517952D01*
X7785952Y-18527476D01*
X7766905Y-18527476D01*
X7747857Y-18517952D01*
X7738333Y-18508429D01*
X7728809Y-18489381D01*
X7719286Y-18451286D01*
X7719286Y-18403667D01*
X7728809Y-18365571D01*
X7738333Y-18346524D01*
X7747857Y-18337000D01*
X7766905Y-18327476D01*
X7957381Y-18327476D02*
X7976428Y-18327476D01*
X7995476Y-18337000D01*
X8005000Y-18346524D01*
X8014524Y-18365571D01*
X8024048Y-18403667D01*
X8024048Y-18451286D01*
X8014524Y-18489381D01*
X8005000Y-18508429D01*
X7995476Y-18517952D01*
X7976428Y-18527476D01*
X7957381Y-18527476D01*
X7938333Y-18517952D01*
X7928809Y-18508429D01*
X7919286Y-18489381D01*
X7909762Y-18451286D01*
X7909762Y-18403667D01*
X7919286Y-18365571D01*
X7928809Y-18346524D01*
X7938333Y-18337000D01*
X7957381Y-18327476D01*
X8109762Y-18527476D02*
X8109762Y-18394143D01*
X8109762Y-18413190D02*
X8119286Y-18403667D01*
X8138333Y-18394143D01*
X8166905Y-18394143D01*
X8185952Y-18403667D01*
X8195476Y-18422714D01*
X8195476Y-18527476D01*
X8195476Y-18422714D02*
X8205000Y-18403667D01*
X8224048Y-18394143D01*
X8252619Y-18394143D01*
X8271667Y-18403667D01*
X8281190Y-18422714D01*
X8281190Y-18527476D01*
X8376428Y-18527476D02*
X8376428Y-18394143D01*
X8376428Y-18413190D02*
X8385952Y-18403667D01*
X8405000Y-18394143D01*
X8433571Y-18394143D01*
X8452619Y-18403667D01*
X8462143Y-18422714D01*
X8462143Y-18527476D01*
X8462143Y-18422714D02*
X8471667Y-18403667D01*
X8490714Y-18394143D01*
X8519286Y-18394143D01*
X8538333Y-18403667D01*
X8547857Y-18422714D01*
X8547857Y-18527476D01*
X8938333Y-18317952D02*
X8766905Y-18575095D01*
X9195476Y-18327476D02*
X9214524Y-18327476D01*
X9233571Y-18337000D01*
X9243095Y-18346524D01*
X9252619Y-18365571D01*
X9262143Y-18403667D01*
X9262143Y-18451286D01*
X9252619Y-18489381D01*
X9243095Y-18508429D01*
X9233571Y-18517952D01*
X9214524Y-18527476D01*
X9195476Y-18527476D01*
X9176429Y-18517952D01*
X9166905Y-18508429D01*
X9157381Y-18489381D01*
X9147857Y-18451286D01*
X9147857Y-18403667D01*
X9157381Y-18365571D01*
X9166905Y-18346524D01*
X9176429Y-18337000D01*
X9195476Y-18327476D01*
X9347857Y-18508429D02*
X9357381Y-18517952D01*
X9347857Y-18527476D01*
X9338333Y-18517952D01*
X9347857Y-18508429D01*
X9347857Y-18527476D01*
X9481190Y-18327476D02*
X9500238Y-18327476D01*
X9519286Y-18337000D01*
X9528810Y-18346524D01*
X9538333Y-18365571D01*
X9547857Y-18403667D01*
X9547857Y-18451286D01*
X9538333Y-18489381D01*
X9528810Y-18508429D01*
X9519286Y-18517952D01*
X9500238Y-18527476D01*
X9481190Y-18527476D01*
X9462143Y-18517952D01*
X9452619Y-18508429D01*
X9443095Y-18489381D01*
X9433571Y-18451286D01*
X9433571Y-18403667D01*
X9443095Y-18365571D01*
X9452619Y-18346524D01*
X9462143Y-18337000D01*
X9481190Y-18327476D01*
X9738333Y-18527476D02*
X9624048Y-18527476D01*
X9681190Y-18527476D02*
X9681190Y-18327476D01*
X9662143Y-18356048D01*
X9643095Y-18375095D01*
X9624048Y-18384619D01*
X9833571Y-18527476D02*
X9871667Y-18527476D01*
X9890714Y-18517952D01*
X9900238Y-18508429D01*
X9919286Y-18479857D01*
X9928810Y-18441762D01*
X9928810Y-18365571D01*
X9919286Y-18346524D01*
X9909762Y-18337000D01*
X9890714Y-18327476D01*
X9852619Y-18327476D01*
X9833571Y-18337000D01*
X9824048Y-18346524D01*
X9814524Y-18365571D01*
X9814524Y-18413190D01*
X9824048Y-18432238D01*
X9833571Y-18441762D01*
X9852619Y-18451286D01*
X9890714Y-18451286D01*
X9909762Y-18441762D01*
X9919286Y-18432238D01*
X9928810Y-18413190D01*
X9995476Y-18327476D02*
X10128810Y-18327476D01*
X10043095Y-18527476D01*
X10195476Y-18327476D02*
X10195476Y-18365571D01*
X10271667Y-18327476D02*
X10271667Y-18365571D01*
X10566905Y-18603667D02*
X10557381Y-18594143D01*
X10538333Y-18565571D01*
X10528810Y-18546524D01*
X10519286Y-18517952D01*
X10509762Y-18470333D01*
X10509762Y-18432238D01*
X10519286Y-18384619D01*
X10528810Y-18356048D01*
X10538333Y-18337000D01*
X10557381Y-18308429D01*
X10566905Y-18298905D01*
X10728810Y-18327476D02*
X10690714Y-18327476D01*
X10671667Y-18337000D01*
X10662143Y-18346524D01*
X10643095Y-18375095D01*
X10633571Y-18413190D01*
X10633571Y-18489381D01*
X10643095Y-18508429D01*
X10652619Y-18517952D01*
X10671667Y-18527476D01*
X10709762Y-18527476D01*
X10728810Y-18517952D01*
X10738333Y-18508429D01*
X10747857Y-18489381D01*
X10747857Y-18441762D01*
X10738333Y-18422714D01*
X10728810Y-18413190D01*
X10709762Y-18403667D01*
X10671667Y-18403667D01*
X10652619Y-18413190D01*
X10643095Y-18422714D01*
X10633571Y-18441762D01*
X10985952Y-18527476D02*
X10985952Y-18327476D01*
X11071667Y-18527476D02*
X11071667Y-18422714D01*
X11062143Y-18403667D01*
X11043095Y-18394143D01*
X11014524Y-18394143D01*
X10995476Y-18403667D01*
X10985952Y-18413190D01*
X11195476Y-18527476D02*
X11176429Y-18517952D01*
X11166905Y-18508429D01*
X11157381Y-18489381D01*
X11157381Y-18432238D01*
X11166905Y-18413190D01*
X11176429Y-18403667D01*
X11195476Y-18394143D01*
X11224048Y-18394143D01*
X11243095Y-18403667D01*
X11252619Y-18413190D01*
X11262143Y-18432238D01*
X11262143Y-18489381D01*
X11252619Y-18508429D01*
X11243095Y-18517952D01*
X11224048Y-18527476D01*
X11195476Y-18527476D01*
X11376428Y-18527476D02*
X11357381Y-18517952D01*
X11347857Y-18498905D01*
X11347857Y-18327476D01*
X11528809Y-18517952D02*
X11509762Y-18527476D01*
X11471667Y-18527476D01*
X11452619Y-18517952D01*
X11443095Y-18498905D01*
X11443095Y-18422714D01*
X11452619Y-18403667D01*
X11471667Y-18394143D01*
X11509762Y-18394143D01*
X11528809Y-18403667D01*
X11538333Y-18422714D01*
X11538333Y-18441762D01*
X11443095Y-18460810D01*
X11614524Y-18517952D02*
X11633571Y-18527476D01*
X11671667Y-18527476D01*
X11690714Y-18517952D01*
X11700238Y-18498905D01*
X11700238Y-18489381D01*
X11690714Y-18470333D01*
X11671667Y-18460810D01*
X11643095Y-18460810D01*
X11624048Y-18451286D01*
X11614524Y-18432238D01*
X11614524Y-18422714D01*
X11624048Y-18403667D01*
X11643095Y-18394143D01*
X11671667Y-18394143D01*
X11690714Y-18403667D01*
X11766905Y-18603667D02*
X11776428Y-18594143D01*
X11795476Y-18565571D01*
X11805000Y-18546524D01*
X11814524Y-18517952D01*
X11824048Y-18470333D01*
X11824048Y-18432238D01*
X11814524Y-18384619D01*
X11805000Y-18356048D01*
X11795476Y-18337000D01*
X11776428Y-18308429D01*
X11766905Y-18298905D01*
D10*
X6945000Y-18751000D02*
X6995000Y-18701000D01*
X6945000Y-18651000D01*
X6895000Y-18701000D01*
X6945000Y-18751000D01*
D11*
X7357381Y-18791476D02*
X7243095Y-18791476D01*
X7300238Y-18791476D02*
X7300238Y-18591476D01*
X7281190Y-18620048D01*
X7262143Y-18639095D01*
X7243095Y-18648619D01*
X7443095Y-18772429D02*
X7452619Y-18781952D01*
X7443095Y-18791476D01*
X7433571Y-18781952D01*
X7443095Y-18772429D01*
X7443095Y-18791476D01*
X7576428Y-18591476D02*
X7595476Y-18591476D01*
X7614524Y-18601000D01*
X7624048Y-18610524D01*
X7633571Y-18629571D01*
X7643095Y-18667667D01*
X7643095Y-18715286D01*
X7633571Y-18753381D01*
X7624048Y-18772429D01*
X7614524Y-18781952D01*
X7595476Y-18791476D01*
X7576428Y-18791476D01*
X7557381Y-18781952D01*
X7547857Y-18772429D01*
X7538333Y-18753381D01*
X7528809Y-18715286D01*
X7528809Y-18667667D01*
X7538333Y-18629571D01*
X7547857Y-18610524D01*
X7557381Y-18601000D01*
X7576428Y-18591476D01*
X7766905Y-18591476D02*
X7785952Y-18591476D01*
X7805000Y-18601000D01*
X7814524Y-18610524D01*
X7824048Y-18629571D01*
X7833571Y-18667667D01*
X7833571Y-18715286D01*
X7824048Y-18753381D01*
X7814524Y-18772429D01*
X7805000Y-18781952D01*
X7785952Y-18791476D01*
X7766905Y-18791476D01*
X7747857Y-18781952D01*
X7738333Y-18772429D01*
X7728809Y-18753381D01*
X7719286Y-18715286D01*
X7719286Y-18667667D01*
X7728809Y-18629571D01*
X7738333Y-18610524D01*
X7747857Y-18601000D01*
X7766905Y-18591476D01*
X7957381Y-18591476D02*
X7976428Y-18591476D01*
X7995476Y-18601000D01*
X8005000Y-18610524D01*
X8014524Y-18629571D01*
X8024048Y-18667667D01*
X8024048Y-18715286D01*
X8014524Y-18753381D01*
X8005000Y-18772429D01*
X7995476Y-18781952D01*
X7976428Y-18791476D01*
X7957381Y-18791476D01*
X7938333Y-18781952D01*
X7928809Y-18772429D01*
X7919286Y-18753381D01*
X7909762Y-18715286D01*
X7909762Y-18667667D01*
X7919286Y-18629571D01*
X7928809Y-18610524D01*
X7938333Y-18601000D01*
X7957381Y-18591476D01*
X8109762Y-18791476D02*
X8109762Y-18658143D01*
X8109762Y-18677190D02*
X8119286Y-18667667D01*
X8138333Y-18658143D01*
X8166905Y-18658143D01*
X8185952Y-18667667D01*
X8195476Y-18686714D01*
X8195476Y-18791476D01*
X8195476Y-18686714D02*
X8205000Y-18667667D01*
X8224048Y-18658143D01*
X8252619Y-18658143D01*
X8271667Y-18667667D01*
X8281190Y-18686714D01*
X8281190Y-18791476D01*
X8376428Y-18791476D02*
X8376428Y-18658143D01*
X8376428Y-18677190D02*
X8385952Y-18667667D01*
X8405000Y-18658143D01*
X8433571Y-18658143D01*
X8452619Y-18667667D01*
X8462143Y-18686714D01*
X8462143Y-18791476D01*
X8462143Y-18686714D02*
X8471667Y-18667667D01*
X8490714Y-18658143D01*
X8519286Y-18658143D01*
X8538333Y-18667667D01*
X8547857Y-18686714D01*
X8547857Y-18791476D01*
X8938333Y-18581952D02*
X8766905Y-18839095D01*
X9195476Y-18591476D02*
X9214524Y-18591476D01*
X9233571Y-18601000D01*
X9243095Y-18610524D01*
X9252619Y-18629571D01*
X9262143Y-18667667D01*
X9262143Y-18715286D01*
X9252619Y-18753381D01*
X9243095Y-18772429D01*
X9233571Y-18781952D01*
X9214524Y-18791476D01*
X9195476Y-18791476D01*
X9176429Y-18781952D01*
X9166905Y-18772429D01*
X9157381Y-18753381D01*
X9147857Y-18715286D01*
X9147857Y-18667667D01*
X9157381Y-18629571D01*
X9166905Y-18610524D01*
X9176429Y-18601000D01*
X9195476Y-18591476D01*
X9347857Y-18772429D02*
X9357381Y-18781952D01*
X9347857Y-18791476D01*
X9338333Y-18781952D01*
X9347857Y-18772429D01*
X9347857Y-18791476D01*
X9481190Y-18591476D02*
X9500238Y-18591476D01*
X9519286Y-18601000D01*
X9528810Y-18610524D01*
X9538333Y-18629571D01*
X9547857Y-18667667D01*
X9547857Y-18715286D01*
X9538333Y-18753381D01*
X9528810Y-18772429D01*
X9519286Y-18781952D01*
X9500238Y-18791476D01*
X9481190Y-18791476D01*
X9462143Y-18781952D01*
X9452619Y-18772429D01*
X9443095Y-18753381D01*
X9433571Y-18715286D01*
X9433571Y-18667667D01*
X9443095Y-18629571D01*
X9452619Y-18610524D01*
X9462143Y-18601000D01*
X9481190Y-18591476D01*
X9614524Y-18591476D02*
X9738333Y-18591476D01*
X9671667Y-18667667D01*
X9700238Y-18667667D01*
X9719286Y-18677190D01*
X9728810Y-18686714D01*
X9738333Y-18705762D01*
X9738333Y-18753381D01*
X9728810Y-18772429D01*
X9719286Y-18781952D01*
X9700238Y-18791476D01*
X9643095Y-18791476D01*
X9624048Y-18781952D01*
X9614524Y-18772429D01*
X9833571Y-18791476D02*
X9871667Y-18791476D01*
X9890714Y-18781952D01*
X9900238Y-18772429D01*
X9919286Y-18743857D01*
X9928810Y-18705762D01*
X9928810Y-18629571D01*
X9919286Y-18610524D01*
X9909762Y-18601000D01*
X9890714Y-18591476D01*
X9852619Y-18591476D01*
X9833571Y-18601000D01*
X9824048Y-18610524D01*
X9814524Y-18629571D01*
X9814524Y-18677190D01*
X9824048Y-18696238D01*
X9833571Y-18705762D01*
X9852619Y-18715286D01*
X9890714Y-18715286D01*
X9909762Y-18705762D01*
X9919286Y-18696238D01*
X9928810Y-18677190D01*
X10100238Y-18658143D02*
X10100238Y-18791476D01*
X10052619Y-18581952D02*
X10005000Y-18724810D01*
X10128810Y-18724810D01*
X10195476Y-18591476D02*
X10195476Y-18629571D01*
X10271667Y-18591476D02*
X10271667Y-18629571D01*
X10566905Y-18867667D02*
X10557381Y-18858143D01*
X10538333Y-18829571D01*
X10528810Y-18810524D01*
X10519286Y-18781952D01*
X10509762Y-18734333D01*
X10509762Y-18696238D01*
X10519286Y-18648619D01*
X10528810Y-18620048D01*
X10538333Y-18601000D01*
X10557381Y-18572429D01*
X10566905Y-18562905D01*
X10624048Y-18591476D02*
X10747857Y-18591476D01*
X10681190Y-18667667D01*
X10709762Y-18667667D01*
X10728810Y-18677190D01*
X10738333Y-18686714D01*
X10747857Y-18705762D01*
X10747857Y-18753381D01*
X10738333Y-18772429D01*
X10728810Y-18781952D01*
X10709762Y-18791476D01*
X10652619Y-18791476D01*
X10633571Y-18781952D01*
X10624048Y-18772429D01*
X10928810Y-18591476D02*
X10833571Y-18591476D01*
X10824048Y-18686714D01*
X10833571Y-18677190D01*
X10852619Y-18667667D01*
X10900238Y-18667667D01*
X10919286Y-18677190D01*
X10928810Y-18686714D01*
X10938333Y-18705762D01*
X10938333Y-18753381D01*
X10928810Y-18772429D01*
X10919286Y-18781952D01*
X10900238Y-18791476D01*
X10852619Y-18791476D01*
X10833571Y-18781952D01*
X10824048Y-18772429D01*
X11176429Y-18791476D02*
X11176429Y-18591476D01*
X11262143Y-18791476D02*
X11262143Y-18686714D01*
X11252619Y-18667667D01*
X11233571Y-18658143D01*
X11205000Y-18658143D01*
X11185952Y-18667667D01*
X11176429Y-18677190D01*
X11385952Y-18791476D02*
X11366905Y-18781952D01*
X11357381Y-18772429D01*
X11347857Y-18753381D01*
X11347857Y-18696238D01*
X11357381Y-18677190D01*
X11366905Y-18667667D01*
X11385952Y-18658143D01*
X11414524Y-18658143D01*
X11433571Y-18667667D01*
X11443095Y-18677190D01*
X11452619Y-18696238D01*
X11452619Y-18753381D01*
X11443095Y-18772429D01*
X11433571Y-18781952D01*
X11414524Y-18791476D01*
X11385952Y-18791476D01*
X11566905Y-18791476D02*
X11547857Y-18781952D01*
X11538333Y-18762905D01*
X11538333Y-18591476D01*
X11719286Y-18781952D02*
X11700238Y-18791476D01*
X11662143Y-18791476D01*
X11643095Y-18781952D01*
X11633571Y-18762905D01*
X11633571Y-18686714D01*
X11643095Y-18667667D01*
X11662143Y-18658143D01*
X11700238Y-18658143D01*
X11719286Y-18667667D01*
X11728809Y-18686714D01*
X11728809Y-18705762D01*
X11633571Y-18724810D01*
X11805000Y-18781952D02*
X11824048Y-18791476D01*
X11862143Y-18791476D01*
X11881190Y-18781952D01*
X11890714Y-18762905D01*
X11890714Y-18753381D01*
X11881190Y-18734333D01*
X11862143Y-18724810D01*
X11833571Y-18724810D01*
X11814524Y-18715286D01*
X11805000Y-18696238D01*
X11805000Y-18686714D01*
X11814524Y-18667667D01*
X11833571Y-18658143D01*
X11862143Y-18658143D01*
X11881190Y-18667667D01*
X11957381Y-18867667D02*
X11966905Y-18858143D01*
X11985952Y-18829571D01*
X11995476Y-18810524D01*
X12005000Y-18781952D01*
X12014524Y-18734333D01*
X12014524Y-18696238D01*
X12005000Y-18648619D01*
X11995476Y-18620048D01*
X11985952Y-18601000D01*
X11966905Y-18572429D01*
X11957381Y-18562905D01*
D16*
X6886000Y-18910500D02*
X6995000Y-19019500D01*
X6995000Y-18910500D02*
X6886000Y-19019500D01*
X6995000Y-18965000D02*
G75*
G03*
X6995000Y-18965000I-54500J0D01*
G01*
D11*
X7357381Y-19055476D02*
X7243095Y-19055476D01*
X7300238Y-19055476D02*
X7300238Y-18855476D01*
X7281190Y-18884048D01*
X7262143Y-18903095D01*
X7243095Y-18912619D01*
X7443095Y-19036429D02*
X7452619Y-19045952D01*
X7443095Y-19055476D01*
X7433571Y-19045952D01*
X7443095Y-19036429D01*
X7443095Y-19055476D01*
X7576428Y-18855476D02*
X7595476Y-18855476D01*
X7614524Y-18865000D01*
X7624048Y-18874524D01*
X7633571Y-18893571D01*
X7643095Y-18931667D01*
X7643095Y-18979286D01*
X7633571Y-19017381D01*
X7624048Y-19036429D01*
X7614524Y-19045952D01*
X7595476Y-19055476D01*
X7576428Y-19055476D01*
X7557381Y-19045952D01*
X7547857Y-19036429D01*
X7538333Y-19017381D01*
X7528809Y-18979286D01*
X7528809Y-18931667D01*
X7538333Y-18893571D01*
X7547857Y-18874524D01*
X7557381Y-18865000D01*
X7576428Y-18855476D01*
X7738333Y-19055476D02*
X7776428Y-19055476D01*
X7795476Y-19045952D01*
X7805000Y-19036429D01*
X7824048Y-19007857D01*
X7833571Y-18969762D01*
X7833571Y-18893571D01*
X7824048Y-18874524D01*
X7814524Y-18865000D01*
X7795476Y-18855476D01*
X7757381Y-18855476D01*
X7738333Y-18865000D01*
X7728809Y-18874524D01*
X7719286Y-18893571D01*
X7719286Y-18941190D01*
X7728809Y-18960238D01*
X7738333Y-18969762D01*
X7757381Y-18979286D01*
X7795476Y-18979286D01*
X7814524Y-18969762D01*
X7824048Y-18960238D01*
X7833571Y-18941190D01*
X7957381Y-18855476D02*
X7976428Y-18855476D01*
X7995476Y-18865000D01*
X8005000Y-18874524D01*
X8014524Y-18893571D01*
X8024048Y-18931667D01*
X8024048Y-18979286D01*
X8014524Y-19017381D01*
X8005000Y-19036429D01*
X7995476Y-19045952D01*
X7976428Y-19055476D01*
X7957381Y-19055476D01*
X7938333Y-19045952D01*
X7928809Y-19036429D01*
X7919286Y-19017381D01*
X7909762Y-18979286D01*
X7909762Y-18931667D01*
X7919286Y-18893571D01*
X7928809Y-18874524D01*
X7938333Y-18865000D01*
X7957381Y-18855476D01*
X8109762Y-19055476D02*
X8109762Y-18922143D01*
X8109762Y-18941190D02*
X8119286Y-18931667D01*
X8138333Y-18922143D01*
X8166905Y-18922143D01*
X8185952Y-18931667D01*
X8195476Y-18950714D01*
X8195476Y-19055476D01*
X8195476Y-18950714D02*
X8205000Y-18931667D01*
X8224048Y-18922143D01*
X8252619Y-18922143D01*
X8271667Y-18931667D01*
X8281190Y-18950714D01*
X8281190Y-19055476D01*
X8376428Y-19055476D02*
X8376428Y-18922143D01*
X8376428Y-18941190D02*
X8385952Y-18931667D01*
X8405000Y-18922143D01*
X8433571Y-18922143D01*
X8452619Y-18931667D01*
X8462143Y-18950714D01*
X8462143Y-19055476D01*
X8462143Y-18950714D02*
X8471667Y-18931667D01*
X8490714Y-18922143D01*
X8519286Y-18922143D01*
X8538333Y-18931667D01*
X8547857Y-18950714D01*
X8547857Y-19055476D01*
X8938333Y-18845952D02*
X8766905Y-19103095D01*
X9195476Y-18855476D02*
X9214524Y-18855476D01*
X9233571Y-18865000D01*
X9243095Y-18874524D01*
X9252619Y-18893571D01*
X9262143Y-18931667D01*
X9262143Y-18979286D01*
X9252619Y-19017381D01*
X9243095Y-19036429D01*
X9233571Y-19045952D01*
X9214524Y-19055476D01*
X9195476Y-19055476D01*
X9176429Y-19045952D01*
X9166905Y-19036429D01*
X9157381Y-19017381D01*
X9147857Y-18979286D01*
X9147857Y-18931667D01*
X9157381Y-18893571D01*
X9166905Y-18874524D01*
X9176429Y-18865000D01*
X9195476Y-18855476D01*
X9347857Y-19036429D02*
X9357381Y-19045952D01*
X9347857Y-19055476D01*
X9338333Y-19045952D01*
X9347857Y-19036429D01*
X9347857Y-19055476D01*
X9481190Y-18855476D02*
X9500238Y-18855476D01*
X9519286Y-18865000D01*
X9528810Y-18874524D01*
X9538333Y-18893571D01*
X9547857Y-18931667D01*
X9547857Y-18979286D01*
X9538333Y-19017381D01*
X9528810Y-19036429D01*
X9519286Y-19045952D01*
X9500238Y-19055476D01*
X9481190Y-19055476D01*
X9462143Y-19045952D01*
X9452619Y-19036429D01*
X9443095Y-19017381D01*
X9433571Y-18979286D01*
X9433571Y-18931667D01*
X9443095Y-18893571D01*
X9452619Y-18874524D01*
X9462143Y-18865000D01*
X9481190Y-18855476D01*
X9719286Y-18922143D02*
X9719286Y-19055476D01*
X9671667Y-18845952D02*
X9624048Y-18988810D01*
X9747857Y-18988810D01*
X9814524Y-18874524D02*
X9824048Y-18865000D01*
X9843095Y-18855476D01*
X9890714Y-18855476D01*
X9909762Y-18865000D01*
X9919286Y-18874524D01*
X9928810Y-18893571D01*
X9928810Y-18912619D01*
X9919286Y-18941190D01*
X9805000Y-19055476D01*
X9928810Y-19055476D01*
X10024048Y-19055476D02*
X10062143Y-19055476D01*
X10081190Y-19045952D01*
X10090714Y-19036429D01*
X10109762Y-19007857D01*
X10119286Y-18969762D01*
X10119286Y-18893571D01*
X10109762Y-18874524D01*
X10100238Y-18865000D01*
X10081190Y-18855476D01*
X10043095Y-18855476D01*
X10024048Y-18865000D01*
X10014524Y-18874524D01*
X10005000Y-18893571D01*
X10005000Y-18941190D01*
X10014524Y-18960238D01*
X10024048Y-18969762D01*
X10043095Y-18979286D01*
X10081190Y-18979286D01*
X10100238Y-18969762D01*
X10109762Y-18960238D01*
X10119286Y-18941190D01*
X10195476Y-18855476D02*
X10195476Y-18893571D01*
X10271667Y-18855476D02*
X10271667Y-18893571D01*
X10566905Y-19131667D02*
X10557381Y-19122143D01*
X10538333Y-19093571D01*
X10528810Y-19074524D01*
X10519286Y-19045952D01*
X10509762Y-18998333D01*
X10509762Y-18960238D01*
X10519286Y-18912619D01*
X10528810Y-18884048D01*
X10538333Y-18865000D01*
X10557381Y-18836429D01*
X10566905Y-18826905D01*
X10671667Y-18941190D02*
X10652619Y-18931667D01*
X10643095Y-18922143D01*
X10633571Y-18903095D01*
X10633571Y-18893571D01*
X10643095Y-18874524D01*
X10652619Y-18865000D01*
X10671667Y-18855476D01*
X10709762Y-18855476D01*
X10728810Y-18865000D01*
X10738333Y-18874524D01*
X10747857Y-18893571D01*
X10747857Y-18903095D01*
X10738333Y-18922143D01*
X10728810Y-18931667D01*
X10709762Y-18941190D01*
X10671667Y-18941190D01*
X10652619Y-18950714D01*
X10643095Y-18960238D01*
X10633571Y-18979286D01*
X10633571Y-19017381D01*
X10643095Y-19036429D01*
X10652619Y-19045952D01*
X10671667Y-19055476D01*
X10709762Y-19055476D01*
X10728810Y-19045952D01*
X10738333Y-19036429D01*
X10747857Y-19017381D01*
X10747857Y-18979286D01*
X10738333Y-18960238D01*
X10728810Y-18950714D01*
X10709762Y-18941190D01*
X10985952Y-19055476D02*
X10985952Y-18855476D01*
X11071667Y-19055476D02*
X11071667Y-18950714D01*
X11062143Y-18931667D01*
X11043095Y-18922143D01*
X11014524Y-18922143D01*
X10995476Y-18931667D01*
X10985952Y-18941190D01*
X11195476Y-19055476D02*
X11176429Y-19045952D01*
X11166905Y-19036429D01*
X11157381Y-19017381D01*
X11157381Y-18960238D01*
X11166905Y-18941190D01*
X11176429Y-18931667D01*
X11195476Y-18922143D01*
X11224048Y-18922143D01*
X11243095Y-18931667D01*
X11252619Y-18941190D01*
X11262143Y-18960238D01*
X11262143Y-19017381D01*
X11252619Y-19036429D01*
X11243095Y-19045952D01*
X11224048Y-19055476D01*
X11195476Y-19055476D01*
X11376428Y-19055476D02*
X11357381Y-19045952D01*
X11347857Y-19026905D01*
X11347857Y-18855476D01*
X11528809Y-19045952D02*
X11509762Y-19055476D01*
X11471667Y-19055476D01*
X11452619Y-19045952D01*
X11443095Y-19026905D01*
X11443095Y-18950714D01*
X11452619Y-18931667D01*
X11471667Y-18922143D01*
X11509762Y-18922143D01*
X11528809Y-18931667D01*
X11538333Y-18950714D01*
X11538333Y-18969762D01*
X11443095Y-18988810D01*
X11614524Y-19045952D02*
X11633571Y-19055476D01*
X11671667Y-19055476D01*
X11690714Y-19045952D01*
X11700238Y-19026905D01*
X11700238Y-19017381D01*
X11690714Y-18998333D01*
X11671667Y-18988810D01*
X11643095Y-18988810D01*
X11624048Y-18979286D01*
X11614524Y-18960238D01*
X11614524Y-18950714D01*
X11624048Y-18931667D01*
X11643095Y-18922143D01*
X11671667Y-18922143D01*
X11690714Y-18931667D01*
X11766905Y-19131667D02*
X11776428Y-19122143D01*
X11795476Y-19093571D01*
X11805000Y-19074524D01*
X11814524Y-19045952D01*
X11824048Y-18998333D01*
X11824048Y-18960238D01*
X11814524Y-18912619D01*
X11805000Y-18884048D01*
X11795476Y-18865000D01*
X11776428Y-18836429D01*
X11766905Y-18826905D01*
D17*
X6855000Y-19159000D02*
X6995000Y-19299000D01*
X6995000Y-19159000D02*
X6855000Y-19299000D01*
X6925000Y-19159000D02*
X6925000Y-19299000D01*
X6855000Y-19229000D02*
X6995000Y-19229000D01*
D11*
X7357381Y-19319476D02*
X7243095Y-19319476D01*
X7300238Y-19319476D02*
X7300238Y-19119476D01*
X7281190Y-19148048D01*
X7262143Y-19167095D01*
X7243095Y-19176619D01*
X7443095Y-19300429D02*
X7452619Y-19309952D01*
X7443095Y-19319476D01*
X7433571Y-19309952D01*
X7443095Y-19300429D01*
X7443095Y-19319476D01*
X7624048Y-19186143D02*
X7624048Y-19319476D01*
X7576428Y-19109952D02*
X7528809Y-19252810D01*
X7652619Y-19252810D01*
X7766905Y-19119476D02*
X7785952Y-19119476D01*
X7805000Y-19129000D01*
X7814524Y-19138524D01*
X7824048Y-19157571D01*
X7833571Y-19195667D01*
X7833571Y-19243286D01*
X7824048Y-19281381D01*
X7814524Y-19300429D01*
X7805000Y-19309952D01*
X7785952Y-19319476D01*
X7766905Y-19319476D01*
X7747857Y-19309952D01*
X7738333Y-19300429D01*
X7728809Y-19281381D01*
X7719286Y-19243286D01*
X7719286Y-19195667D01*
X7728809Y-19157571D01*
X7738333Y-19138524D01*
X7747857Y-19129000D01*
X7766905Y-19119476D01*
X7957381Y-19119476D02*
X7976428Y-19119476D01*
X7995476Y-19129000D01*
X8005000Y-19138524D01*
X8014524Y-19157571D01*
X8024048Y-19195667D01*
X8024048Y-19243286D01*
X8014524Y-19281381D01*
X8005000Y-19300429D01*
X7995476Y-19309952D01*
X7976428Y-19319476D01*
X7957381Y-19319476D01*
X7938333Y-19309952D01*
X7928809Y-19300429D01*
X7919286Y-19281381D01*
X7909762Y-19243286D01*
X7909762Y-19195667D01*
X7919286Y-19157571D01*
X7928809Y-19138524D01*
X7938333Y-19129000D01*
X7957381Y-19119476D01*
X8109762Y-19319476D02*
X8109762Y-19186143D01*
X8109762Y-19205190D02*
X8119286Y-19195667D01*
X8138333Y-19186143D01*
X8166905Y-19186143D01*
X8185952Y-19195667D01*
X8195476Y-19214714D01*
X8195476Y-19319476D01*
X8195476Y-19214714D02*
X8205000Y-19195667D01*
X8224048Y-19186143D01*
X8252619Y-19186143D01*
X8271667Y-19195667D01*
X8281190Y-19214714D01*
X8281190Y-19319476D01*
X8376428Y-19319476D02*
X8376428Y-19186143D01*
X8376428Y-19205190D02*
X8385952Y-19195667D01*
X8405000Y-19186143D01*
X8433571Y-19186143D01*
X8452619Y-19195667D01*
X8462143Y-19214714D01*
X8462143Y-19319476D01*
X8462143Y-19214714D02*
X8471667Y-19195667D01*
X8490714Y-19186143D01*
X8519286Y-19186143D01*
X8538333Y-19195667D01*
X8547857Y-19214714D01*
X8547857Y-19319476D01*
X8938333Y-19109952D02*
X8766905Y-19367095D01*
X9195476Y-19119476D02*
X9214524Y-19119476D01*
X9233571Y-19129000D01*
X9243095Y-19138524D01*
X9252619Y-19157571D01*
X9262143Y-19195667D01*
X9262143Y-19243286D01*
X9252619Y-19281381D01*
X9243095Y-19300429D01*
X9233571Y-19309952D01*
X9214524Y-19319476D01*
X9195476Y-19319476D01*
X9176429Y-19309952D01*
X9166905Y-19300429D01*
X9157381Y-19281381D01*
X9147857Y-19243286D01*
X9147857Y-19195667D01*
X9157381Y-19157571D01*
X9166905Y-19138524D01*
X9176429Y-19129000D01*
X9195476Y-19119476D01*
X9347857Y-19300429D02*
X9357381Y-19309952D01*
X9347857Y-19319476D01*
X9338333Y-19309952D01*
X9347857Y-19300429D01*
X9347857Y-19319476D01*
X9481190Y-19119476D02*
X9500238Y-19119476D01*
X9519286Y-19129000D01*
X9528810Y-19138524D01*
X9538333Y-19157571D01*
X9547857Y-19195667D01*
X9547857Y-19243286D01*
X9538333Y-19281381D01*
X9528810Y-19300429D01*
X9519286Y-19309952D01*
X9500238Y-19319476D01*
X9481190Y-19319476D01*
X9462143Y-19309952D01*
X9452619Y-19300429D01*
X9443095Y-19281381D01*
X9433571Y-19243286D01*
X9433571Y-19195667D01*
X9443095Y-19157571D01*
X9452619Y-19138524D01*
X9462143Y-19129000D01*
X9481190Y-19119476D01*
X9728810Y-19119476D02*
X9633571Y-19119476D01*
X9624048Y-19214714D01*
X9633571Y-19205190D01*
X9652619Y-19195667D01*
X9700238Y-19195667D01*
X9719286Y-19205190D01*
X9728810Y-19214714D01*
X9738333Y-19233762D01*
X9738333Y-19281381D01*
X9728810Y-19300429D01*
X9719286Y-19309952D01*
X9700238Y-19319476D01*
X9652619Y-19319476D01*
X9633571Y-19309952D01*
X9624048Y-19300429D01*
X9919286Y-19119476D02*
X9824048Y-19119476D01*
X9814524Y-19214714D01*
X9824048Y-19205190D01*
X9843095Y-19195667D01*
X9890714Y-19195667D01*
X9909762Y-19205190D01*
X9919286Y-19214714D01*
X9928810Y-19233762D01*
X9928810Y-19281381D01*
X9919286Y-19300429D01*
X9909762Y-19309952D01*
X9890714Y-19319476D01*
X9843095Y-19319476D01*
X9824048Y-19309952D01*
X9814524Y-19300429D01*
X10119286Y-19319476D02*
X10005000Y-19319476D01*
X10062143Y-19319476D02*
X10062143Y-19119476D01*
X10043095Y-19148048D01*
X10024048Y-19167095D01*
X10005000Y-19176619D01*
X10195476Y-19119476D02*
X10195476Y-19157571D01*
X10271667Y-19119476D02*
X10271667Y-19157571D01*
X10566905Y-19395667D02*
X10557381Y-19386143D01*
X10538333Y-19357571D01*
X10528810Y-19338524D01*
X10519286Y-19309952D01*
X10509762Y-19262333D01*
X10509762Y-19224238D01*
X10519286Y-19176619D01*
X10528810Y-19148048D01*
X10538333Y-19129000D01*
X10557381Y-19100429D01*
X10566905Y-19090905D01*
X10728810Y-19186143D02*
X10728810Y-19319476D01*
X10681190Y-19109952D02*
X10633571Y-19252810D01*
X10757381Y-19252810D01*
X10862143Y-19205190D02*
X10843095Y-19195667D01*
X10833571Y-19186143D01*
X10824048Y-19167095D01*
X10824048Y-19157571D01*
X10833571Y-19138524D01*
X10843095Y-19129000D01*
X10862143Y-19119476D01*
X10900238Y-19119476D01*
X10919286Y-19129000D01*
X10928810Y-19138524D01*
X10938333Y-19157571D01*
X10938333Y-19167095D01*
X10928810Y-19186143D01*
X10919286Y-19195667D01*
X10900238Y-19205190D01*
X10862143Y-19205190D01*
X10843095Y-19214714D01*
X10833571Y-19224238D01*
X10824048Y-19243286D01*
X10824048Y-19281381D01*
X10833571Y-19300429D01*
X10843095Y-19309952D01*
X10862143Y-19319476D01*
X10900238Y-19319476D01*
X10919286Y-19309952D01*
X10928810Y-19300429D01*
X10938333Y-19281381D01*
X10938333Y-19243286D01*
X10928810Y-19224238D01*
X10919286Y-19214714D01*
X10900238Y-19205190D01*
X11176429Y-19319476D02*
X11176429Y-19119476D01*
X11262143Y-19319476D02*
X11262143Y-19214714D01*
X11252619Y-19195667D01*
X11233571Y-19186143D01*
X11205000Y-19186143D01*
X11185952Y-19195667D01*
X11176429Y-19205190D01*
X11385952Y-19319476D02*
X11366905Y-19309952D01*
X11357381Y-19300429D01*
X11347857Y-19281381D01*
X11347857Y-19224238D01*
X11357381Y-19205190D01*
X11366905Y-19195667D01*
X11385952Y-19186143D01*
X11414524Y-19186143D01*
X11433571Y-19195667D01*
X11443095Y-19205190D01*
X11452619Y-19224238D01*
X11452619Y-19281381D01*
X11443095Y-19300429D01*
X11433571Y-19309952D01*
X11414524Y-19319476D01*
X11385952Y-19319476D01*
X11566905Y-19319476D02*
X11547857Y-19309952D01*
X11538333Y-19290905D01*
X11538333Y-19119476D01*
X11719286Y-19309952D02*
X11700238Y-19319476D01*
X11662143Y-19319476D01*
X11643095Y-19309952D01*
X11633571Y-19290905D01*
X11633571Y-19214714D01*
X11643095Y-19195667D01*
X11662143Y-19186143D01*
X11700238Y-19186143D01*
X11719286Y-19195667D01*
X11728809Y-19214714D01*
X11728809Y-19233762D01*
X11633571Y-19252810D01*
X11805000Y-19309952D02*
X11824048Y-19319476D01*
X11862143Y-19319476D01*
X11881190Y-19309952D01*
X11890714Y-19290905D01*
X11890714Y-19281381D01*
X11881190Y-19262333D01*
X11862143Y-19252810D01*
X11833571Y-19252810D01*
X11814524Y-19243286D01*
X11805000Y-19224238D01*
X11805000Y-19214714D01*
X11814524Y-19195667D01*
X11833571Y-19186143D01*
X11862143Y-19186143D01*
X11881190Y-19195667D01*
X11957381Y-19395667D02*
X11966905Y-19386143D01*
X11985952Y-19357571D01*
X11995476Y-19338524D01*
X12005000Y-19309952D01*
X12014524Y-19262333D01*
X12014524Y-19224238D01*
X12005000Y-19176619D01*
X11995476Y-19148048D01*
X11985952Y-19129000D01*
X11966905Y-19100429D01*
X11957381Y-19090905D01*
M02*
