%TF.GenerationSoftware,KiCad,Pcbnew,6.0.10-86aedd382b~118~ubuntu20.04.1*%
%TF.CreationDate,2023-01-07T15:43:35+01:00*%
%TF.ProjectId,IOB_V3,494f425f-5633-42e6-9b69-6361645f7063,rev?*%
%TF.SameCoordinates,Original*%
%TF.FileFunction,Drillmap*%
%TF.FilePolarity,Positive*%
%FSLAX45Y45*%
G04 Gerber Fmt 4.5, Leading zero omitted, Abs format (unit mm)*
G04 Created by KiCad (PCBNEW 6.0.10-86aedd382b~118~ubuntu20.04.1) date 2023-01-07 15:43:35*
%MOMM*%
%LPD*%
G01*
G04 APERTURE LIST*
%ADD10C,0.100000*%
%ADD11C,0.200000*%
G04 APERTURE END LIST*
D10*
X14898995Y-17000000D02*
X7101005Y-17000000D01*
X7100711Y-3000000D02*
G75*
G03*
X7000000Y-3100711I719J-101430D01*
G01*
X7000005Y-16900000D02*
G75*
G03*
X7101005Y-17000000I102025J2040D01*
G01*
X7000000Y-16900000D02*
X7000000Y-3100711D01*
X15000000Y-3101005D02*
X15000000Y-16898995D01*
X7100711Y-3000000D02*
X14898995Y-3000000D01*
X15000000Y-3101005D02*
G75*
G03*
X14898995Y-3000000I-102020J-1015D01*
G01*
X14898995Y-17000000D02*
G75*
G03*
X15000000Y-16898995I-1015J102020D01*
G01*
D11*
X7252619Y-17315476D02*
X7252619Y-17115476D01*
X7300238Y-17115476D01*
X7328809Y-17125000D01*
X7347857Y-17144048D01*
X7357381Y-17163095D01*
X7366905Y-17201190D01*
X7366905Y-17229762D01*
X7357381Y-17267857D01*
X7347857Y-17286905D01*
X7328809Y-17305952D01*
X7300238Y-17315476D01*
X7252619Y-17315476D01*
X7452619Y-17315476D02*
X7452619Y-17182143D01*
X7452619Y-17220238D02*
X7462143Y-17201190D01*
X7471667Y-17191667D01*
X7490714Y-17182143D01*
X7509762Y-17182143D01*
X7576428Y-17315476D02*
X7576428Y-17182143D01*
X7576428Y-17115476D02*
X7566905Y-17125000D01*
X7576428Y-17134524D01*
X7585952Y-17125000D01*
X7576428Y-17115476D01*
X7576428Y-17134524D01*
X7700238Y-17315476D02*
X7681190Y-17305952D01*
X7671667Y-17286905D01*
X7671667Y-17115476D01*
X7805000Y-17315476D02*
X7785952Y-17305952D01*
X7776428Y-17286905D01*
X7776428Y-17115476D01*
X8033571Y-17315476D02*
X8033571Y-17115476D01*
X8100238Y-17258333D01*
X8166905Y-17115476D01*
X8166905Y-17315476D01*
X8347857Y-17315476D02*
X8347857Y-17210714D01*
X8338333Y-17191667D01*
X8319286Y-17182143D01*
X8281190Y-17182143D01*
X8262143Y-17191667D01*
X8347857Y-17305952D02*
X8328809Y-17315476D01*
X8281190Y-17315476D01*
X8262143Y-17305952D01*
X8252619Y-17286905D01*
X8252619Y-17267857D01*
X8262143Y-17248810D01*
X8281190Y-17239286D01*
X8328809Y-17239286D01*
X8347857Y-17229762D01*
X8443095Y-17182143D02*
X8443095Y-17382143D01*
X8443095Y-17191667D02*
X8462143Y-17182143D01*
X8500238Y-17182143D01*
X8519286Y-17191667D01*
X8528810Y-17201190D01*
X8538333Y-17220238D01*
X8538333Y-17277381D01*
X8528810Y-17296429D01*
X8519286Y-17305952D01*
X8500238Y-17315476D01*
X8462143Y-17315476D01*
X8443095Y-17305952D01*
X8624048Y-17296429D02*
X8633571Y-17305952D01*
X8624048Y-17315476D01*
X8614524Y-17305952D01*
X8624048Y-17296429D01*
X8624048Y-17315476D01*
X8624048Y-17191667D02*
X8633571Y-17201190D01*
X8624048Y-17210714D01*
X8614524Y-17201190D01*
X8624048Y-17191667D01*
X8624048Y-17210714D01*
M02*
